<svg width="40" height="40" viewBox="0 0 40 40" fill="none" xmlns="http://www.w3.org/2000/svg">
<circle cx="20" cy="20" r="20" fill="#F0AF13"/>
<path d="M10.1738 12.1343C10.0869 13.051 10 13.9678 10 14.8419C10 21.7494 14.6272 27.0367 20.623 27.0367C23.2517 27.0367 25.6847 25.928 26.7492 24.0519C27.6834 25.2671 28.1396 26.6956 28.9216 28.9341C28.9868 29.1473 29.2258 29.2326 29.3996 29.126L30.1164 28.7849C30.6378 28.5717 30.8333 28.2732 30.8333 27.7402C30.8333 26.2478 28.8782 24.0093 27.8789 23.1139C23.6644 19.2977 17.1689 21.5149 15.6048 17.3149C15.5613 17.2297 15.5396 17.1657 15.5396 17.1231C15.5396 16.9525 15.67 16.8246 15.8003 16.8246C15.9524 16.8246 16.0393 16.9099 16.1479 17.0165C19.3631 20.1718 23.8382 17.5281 27.9006 21.2377C28.2265 21.4936 28.6392 21.4083 28.6609 21.0245C28.7044 20.7047 28.7261 20.3423 28.7261 19.9372C28.7261 15.3109 25.4023 13.3495 20.6448 13.3495C19.1458 13.3495 17.6251 13.5414 16.2131 13.5414C14.2145 13.5414 12.4331 13.2002 11.2165 11.8998C10.8472 11.5373 10.239 11.6013 10.1738 12.1343Z" fill="white"/>
</svg>
