<svg width="40" height="40" viewBox="0 0 40 40" fill="none" xmlns="http://www.w3.org/2000/svg">
<circle cx="20" cy="20" r="20" fill="#F0AF13"/>
<path d="M9.01758 26.1563H9.67839C10.0474 26.1563 10.4029 26.252 10.6354 26.3886L16.2683 31.1784C16.8015 31.5064 17.403 31.6706 18.0182 31.6706H26.153C26.9082 31.6706 27.5202 31.0128 27.5202 30.2578C27.5202 29.5027 26.9082 28.8906 26.153 28.8906H20.0007C19.4538 28.8906 18.9341 28.6718 18.5514 28.2891L14.8463 24.584C14.5866 24.3243 14.5866 23.8867 14.8463 23.627C15.106 23.3672 15.5026 23.3535 15.7761 23.5995L19.3033 27.127C19.766 27.5902 20.5879 27.738 21.2311 27.127C21.7643 26.5938 21.7643 25.7187 21.2311 25.1855L16.3776 20.3183C15.7131 19.6537 14.8465 19.3203 13.9713 19.3203H9.01758C8.63466 19.3203 8.33398 19.621 8.33398 20.0039V25.4727C8.33398 25.8554 8.63466 26.1563 9.01758 26.1563Z" fill="white"/>
<path d="M25.1269 27.5273C25.6931 27.5273 26.1522 27.0682 26.1522 26.502C26.1522 25.9357 25.6931 25.4766 25.1269 25.4766H22.9013C22.958 25.6982 22.9974 25.9252 22.9974 26.1602C22.9974 26.6481 22.8712 27.1168 22.6348 27.5273H25.1269Z" fill="white"/>
<path d="M23.7598 22.0547H20.0391L22.084 24.1055H23.7598C24.3261 24.1055 24.7852 23.6464 24.7852 23.0801C24.7852 22.5138 24.3261 22.0547 23.7598 22.0547Z" fill="white"/>
<path d="M30.9831 13.8503H30.3223C29.9532 13.8503 29.5977 13.7545 29.3652 13.6179L23.7324 8.87373C23.1992 8.54564 22.5977 8.33594 21.9824 8.33594H13.8477C13.0925 8.33594 12.4805 8.99372 12.4805 9.7487C12.4805 10.5039 13.0925 11.1159 13.8477 11.1159H20C20.5469 11.1159 21.0665 11.3347 21.4493 11.7174L25.1544 15.4225C25.4141 15.6823 25.4141 16.1198 25.1544 16.3796C24.8946 16.6393 24.498 16.653 24.2246 16.407L20.6973 12.8795C20.2346 12.4163 19.4127 12.2686 18.7695 12.8795C18.2364 13.4127 18.2364 14.2878 18.7695 14.821L23.623 19.6882C24.2876 20.3526 25.1542 20.6862 26.0293 20.6862H30.9831C31.366 20.6862 31.6667 20.3855 31.6667 20.0026V14.5339C31.6667 14.1511 31.366 13.8503 30.9831 13.8503Z" fill="white"/>
<path d="M14.873 12.4844C14.3068 12.4844 13.8477 12.9435 13.8477 13.5098C13.8477 14.076 14.3068 14.5352 14.873 14.5352H17.0986C17.0419 14.3135 17.0025 14.0865 17.0025 13.8516C17.0025 13.3636 17.1287 12.8949 17.3651 12.4844H14.873Z" fill="white"/>
<path d="M15.2148 16.9316C15.2148 17.4979 15.674 17.957 16.2402 17.957H19.961L17.9161 15.9062H16.2402C15.674 15.9062 15.2148 16.3654 15.2148 16.9316Z" fill="white"/>
</svg>
