<svg width="40" height="40" viewBox="0 0 40 40" fill="none" xmlns="http://www.w3.org/2000/svg">
<circle cx="20" cy="20" r="20" fill="#F0AF13"/>
<path d="M20.416 10C14.9018 10 10.416 14.4858 10.416 20C10.416 25.5142 14.9018 30 20.416 30C25.9302 30 30.416 25.5142 30.416 20C30.416 14.4858 25.9302 10 20.416 10ZM25.1719 25.1724C25.0094 25.3349 24.7961 25.4167 24.5827 25.4167C24.3694 25.4167 24.1559 25.3349 23.9936 25.1724L19.8269 21.0059C19.6702 20.8501 19.5827 20.6383 19.5827 20.4167V15C19.5827 14.5392 19.956 14.1667 20.416 14.1667C20.8761 14.1667 21.2493 14.5392 21.2493 15V20.0717L25.1719 23.9941C25.4977 24.3201 25.4977 24.8466 25.1719 25.1724Z" fill="white"/>
</svg>
