<svg width="40" height="40" viewBox="0 0 40 40" fill="none" xmlns="http://www.w3.org/2000/svg">
<circle cx="20" cy="20" r="20" fill="#F0AF13"/>
<path d="M19.8906 24.7461C19.6716 24.9061 19.443 25.0506 19.207 25.1806V31.6644H20.5742V25.1806C20.3382 25.0506 20.1096 24.9061 19.8906 24.7461Z" fill="white"/>
<path d="M26.1875 13.7803C25.9808 12.3507 25.2941 11.0361 24.2262 10.0415C23.0452 8.94165 21.5057 8.33594 19.8911 8.33594C18.2765 8.33594 16.737 8.94165 15.556 10.0415C14.488 11.0361 13.8014 12.3507 13.5947 13.7803C11.2944 14.7848 9.77734 17.0761 9.77734 19.6126C9.77734 23.1208 12.6314 25.9748 16.1395 25.9748C17.2208 25.9748 18.2744 25.6994 19.2074 25.1855V22.4029L16.1413 20.7907L16.7776 19.5806L19.2075 20.8582V15.1367H20.5747V17.8279L23.0045 16.5503L23.6408 17.7604L20.5747 19.3726V25.1855C21.5077 25.6994 22.5613 25.9748 23.6426 25.9748C27.1507 25.9748 30.0048 23.1207 30.0048 19.6126C30.0048 17.0761 28.4878 14.7847 26.1875 13.7803Z" fill="white"/>
</svg>
