<svg width="484" height="601" viewBox="0 0 484 601" fill="none" xmlns="http://www.w3.org/2000/svg">
<path opacity="0.1" d="M72.0952 479.555C72.2706 477.52 72.3757 475.449 72.3757 473.379C72.3774 470.87 72.2369 468.363 71.955 465.87C70.49 451.575 64.7597 438.052 55.5095 427.061C54.6328 425.973 49.0224 420.043 47.0237 418.464C19.3215 390.77 2.70278 353.89 0.301849 314.779C-2.09908 275.669 9.88378 237.03 33.9904 206.152C58.097 175.273 92.6611 154.289 131.164 147.156C169.667 140.024 209.447 147.236 243.002 167.433L222.769 251.999C208.949 246.259 194.049 243.588 179.097 244.171C164.145 244.753 149.497 248.575 136.164 255.372C122.831 262.169 111.131 271.78 101.87 283.542C92.6092 295.303 86.0085 308.935 82.5233 323.497C79.0382 338.059 78.7516 353.205 81.6833 367.888C84.615 382.572 90.6953 396.444 99.5045 408.548C108.314 420.652 119.642 430.699 132.708 437.997C145.774 445.294 160.267 449.668 175.186 450.816L171.68 465.063L163.65 498.573V498.959C163.378 499.874 163.201 500.815 163.124 501.767C169.541 502.363 176.063 502.714 182.655 502.714C236.946 502.726 289.046 481.283 327.619 443.05C366.193 404.818 388.118 352.89 388.627 298.563C386.28 298.47 383.939 298.259 381.614 297.931C345.181 291.615 309.485 262.315 301.771 223.12C298.218 208.809 298.081 193.862 301.371 179.488C304.66 165.114 311.284 151.716 320.706 140.378V101.534H221.893C215.071 101.567 208.311 100.248 202 97.6553C195.69 95.0621 189.955 91.2454 185.125 86.4249C180.294 81.6045 176.465 75.8754 173.857 69.5677C171.248 63.26 169.913 56.4982 169.927 49.6718C170.226 36.6792 175.486 24.2946 184.626 15.0618C193.766 5.82907 206.092 0.449057 219.072 0.0268629C232.052 -0.395331 244.701 4.17235 254.42 12.7917C264.14 21.411 270.192 33.4277 271.334 46.3734C278.644 36.8297 289.443 30.5827 301.355 29.0067C313.268 27.4306 325.318 30.6546 334.855 37.9694C344.392 45.2842 350.634 56.0906 352.209 68.0113C353.784 79.9321 350.562 91.9906 343.253 101.534H397.218L335.012 147.151L364.046 172.836C364.526 173.218 364.983 173.628 365.414 174.065L365.94 174.486C369.83 178.278 372.503 183.145 373.615 188.465C374.728 193.785 374.231 199.316 372.187 204.351C370.144 209.387 366.646 213.699 362.142 216.735C357.638 219.772 352.331 221.396 346.9 221.4C343.095 221.387 339.335 220.587 335.854 219.049C336.343 232.946 341.813 246.202 351.265 256.395C360.716 266.588 373.518 273.036 387.329 274.561C389.192 274.772 391.065 274.878 392.94 274.877H393.641C401.231 274.882 408.748 273.389 415.761 270.485C422.774 267.58 429.146 263.321 434.513 257.95C439.88 252.579 444.136 246.203 447.039 239.185C449.941 232.166 451.433 224.645 451.428 217.049C451.442 213.389 451.113 209.735 450.446 206.136C460.282 218.925 468.142 233.119 473.765 248.244L475.027 251.753C483.205 275.29 485.843 300.398 482.736 325.122C479.629 349.846 470.861 373.519 457.115 394.297C443.369 415.075 425.016 432.397 403.484 444.915C381.953 457.432 357.825 464.808 332.979 466.466V466.466C314.382 482.093 293.389 494.617 270.808 503.556L292.654 570.998C293.39 572.693 294.512 574.191 295.931 575.373C297.35 576.556 299.026 577.389 300.824 577.806L346.409 586.192C348.118 586.49 349.667 587.382 350.783 588.71C351.899 590.039 352.511 591.72 352.51 593.456V600.825H231.431L232.798 591.771C233.005 590.403 233.586 589.118 234.478 588.059C235.369 587 236.535 586.208 237.847 585.771L260.64 578.402C262.126 577.926 263.423 576.99 264.343 575.729C265.263 574.467 265.759 572.946 265.759 571.384L248.507 511.1C230.374 516.174 211.682 518.979 192.859 519.452H187.249C184.654 519.452 182.059 519.452 179.569 519.452L174.45 570.507C174.389 572.661 175.044 574.774 176.314 576.514C177.583 578.255 179.394 579.524 181.463 580.122L206.008 586.052C211.514 587.666 213.372 593.631 213.372 601H92.1524C92.1524 594.158 91.8018 587.385 97.7278 586.438L140.437 580.016C143.671 579.826 146.703 578.382 148.89 575.991C151.076 573.599 152.245 570.449 152.149 567.209L156.637 518.89C151.689 526.384 144.229 531.864 135.601 534.341C126.973 536.817 117.745 536.129 109.58 532.4C99.5416 539.925 87.4014 544.117 74.862 544.387C62.3226 544.658 50.0131 540.994 39.6601 533.909C48.7976 527.921 56.4537 519.932 62.049 510.545C67.6442 501.159 71.0317 490.621 71.955 479.73L72.0952 479.555ZM458.266 304.844C458.1 296.354 457.421 287.882 456.232 279.474C443.912 288.705 429.551 294.832 414.365 297.334C413.733 353.871 391.661 408.055 352.615 448.922C383.231 439.311 409.985 420.177 428.986 394.303C447.987 368.429 458.244 337.164 458.266 305.054" fill="white"/>
</svg>
