<svg width="276" height="343" viewBox="0 0 276 343" fill="none" xmlns="http://www.w3.org/2000/svg">
<path opacity="0.03" d="M234.888 273.689C234.788 272.528 234.728 271.346 234.728 270.165C234.727 268.733 234.807 267.302 234.968 265.879C235.803 257.721 239.071 250.003 244.346 243.73C244.846 243.109 248.045 239.725 249.185 238.824C264.982 223.019 274.459 201.971 275.828 179.649C277.197 157.328 270.364 135.277 256.617 117.654C242.87 100.031 223.16 88.0551 201.204 83.9844C179.248 79.9137 156.563 84.0298 137.429 95.5564L148.966 143.819C156.847 140.544 165.344 139.02 173.87 139.352C182.397 139.685 190.75 141.866 198.353 145.745C205.956 149.624 212.628 155.109 217.909 161.822C223.19 168.534 226.954 176.314 228.941 184.625C230.929 192.936 231.092 201.579 229.42 209.959C227.748 218.34 224.281 226.257 219.258 233.165C214.234 240.073 207.774 245.807 200.323 249.971C192.872 254.136 184.608 256.632 176.1 257.288L178.1 265.419L182.679 284.544V284.764C182.834 285.286 182.935 285.823 182.979 286.366C179.32 286.706 175.6 286.907 171.841 286.907C140.882 286.913 111.172 274.676 89.1758 252.856C67.1795 231.036 54.6763 201.4 54.3863 170.394C55.7246 170.341 57.0593 170.221 58.3855 170.034C79.1611 166.429 99.5167 149.707 103.916 127.338C105.942 119.17 106.02 110.64 104.144 102.436C102.268 94.233 98.4911 86.5868 93.1181 80.1162V57.9472H149.466C153.356 57.9657 157.211 57.2133 160.81 55.7334C164.408 54.2534 167.679 52.0752 170.433 49.3241C173.187 46.5729 175.371 43.3033 176.859 39.7034C178.346 36.1034 179.108 32.2444 179.1 28.3485C178.929 20.9334 175.929 13.8653 170.717 8.59603C165.506 3.32674 158.477 0.256284 151.075 0.0153311C143.673 -0.225622 136.46 2.38122 130.917 7.30042C125.375 12.2196 121.923 19.0777 121.272 26.466C117.104 21.0193 110.946 17.454 104.153 16.5546C97.3598 15.6551 90.4882 17.4951 85.0498 21.6697C79.6114 25.8444 76.0515 32.0118 75.1534 38.8151C74.2553 45.6185 76.0925 52.5005 80.2608 57.9472H49.4874L84.9598 83.9812L68.4033 98.6404C68.1297 98.8583 67.8693 99.0924 67.6235 99.3413L67.3236 99.5816C65.1051 101.746 63.5812 104.524 62.9466 107.56C62.312 110.596 62.5955 113.753 63.761 116.626C64.9264 119.5 66.9208 121.961 69.4893 123.694C72.0579 125.427 75.0841 126.354 78.1813 126.357C80.3507 126.349 82.4952 125.892 84.4799 125.015C84.2012 132.946 81.0818 140.511 75.692 146.329C70.3023 152.146 63.0021 155.826 55.1262 156.696C54.064 156.817 52.9958 156.877 51.9269 156.877H51.5269C47.1988 156.879 42.9125 156.027 38.9133 154.37C34.9141 152.712 31.2803 150.281 28.2198 147.216C25.1593 144.151 22.7321 140.512 21.077 136.506C19.4219 132.501 18.5713 128.208 18.574 123.873C18.5663 121.784 18.7538 119.699 19.1339 117.645C13.5254 124.944 9.04307 133.045 5.83669 141.677L5.11684 143.679C0.453618 157.112 -1.05074 171.442 0.720909 185.552C2.49256 199.662 7.49241 213.173 15.3311 225.031C23.1698 236.889 33.6357 246.776 45.9139 253.92C58.1921 261.064 71.9512 265.273 86.1196 266.22V266.22C96.7242 275.138 108.695 282.286 121.572 287.387L109.115 325.878C108.695 326.845 108.055 327.7 107.246 328.375C106.437 329.049 105.481 329.525 104.456 329.763L78.4612 334.549C77.4866 334.719 76.6032 335.228 75.9667 335.986C75.3302 336.745 74.9814 337.704 74.9819 338.694V342.9H144.027L143.247 337.733C143.129 336.952 142.798 336.219 142.29 335.614C141.782 335.01 141.116 334.558 140.368 334.309L127.371 330.103C126.523 329.832 125.784 329.297 125.259 328.577C124.734 327.857 124.451 326.989 124.451 326.098L134.289 291.693C144.63 294.588 155.289 296.189 166.023 296.459H169.222C170.702 296.459 172.181 296.459 173.601 296.459L176.52 325.597C176.555 326.826 176.181 328.032 175.457 329.026C174.734 330.019 173.701 330.743 172.521 331.084L158.524 334.469C155.385 335.39 154.325 338.795 154.325 343H223.45C223.45 339.095 223.65 335.23 220.271 334.689L195.916 331.024C194.072 330.916 192.343 330.092 191.096 328.727C189.849 327.362 189.182 325.564 189.238 323.715L186.678 296.139C189.5 300.416 193.754 303.543 198.674 304.956C203.594 306.37 208.856 305.977 213.512 303.849C219.237 308.143 226.16 310.536 233.31 310.69C240.461 310.845 247.48 308.753 253.384 304.71C248.173 301.293 243.807 296.733 240.617 291.376C237.426 286.019 235.494 280.005 234.968 273.789L234.888 273.689ZM14.6748 173.979C14.7695 169.134 15.1568 164.298 15.8346 159.5C22.8601 164.769 31.0493 168.265 39.7095 169.693C40.0697 201.959 52.6564 232.883 74.922 256.206C57.4632 250.722 42.2068 239.802 31.3715 225.035C20.5362 210.268 14.6871 192.425 14.6748 174.099" fill="#003D73"/>
</svg>
