<svg width="120" height="137" viewBox="0 0 120 137" fill="none" xmlns="http://www.w3.org/2000/svg">
<g clip-path="url(#clip0)">
<path fill-rule="evenodd" clip-rule="evenodd" d="M0.700487 119.393C0.65997 114.46 0.605947 109.514 0.56543 104.581C3.83381 102.129 7.08868 99.6757 10.3571 97.2363C10.3435 104.649 10.3165 112.061 10.303 119.474C7.10218 119.433 3.90133 119.42 0.700487 119.393Z" fill="url(#paint0_linear)"/>
<path d="M102.244 137.099H17.2382C11.9457 137.099 7.65479 133.321 7.65479 128.661V0H111.827V128.661C111.827 133.321 107.537 137.099 102.244 137.099Z" fill="white"/>
<path d="M120.131 101.979C80.276 102.922 40.4207 103.879 0.565395 104.822C0.416832 113.124 0.254764 121.44 0.106201 129.742C38.9351 130.321 77.7504 130.887 116.579 131.467C117.768 121.628 118.943 111.803 120.131 101.979Z" fill="url(#paint1_linear)"/>
<path d="M13.0582 120.386V115.494L9.07398 120.386H8.43921V114.402H9.128V119.295L13.1122 114.402H13.7469V120.386H13.0582Z" fill="white"/>
<path d="M20.2027 120.386V117.677H16.3941V120.386H15.7053V114.402H16.3941V116.99H20.2027V114.402H20.8915V120.386H20.2027Z" fill="white"/>
<path d="M24.2949 115.101H22.1069V114.414H27.1851V115.101H24.9972V120.398H24.3084V115.101H24.2949Z" fill="white"/>
<path d="M30.9803 119.873C31.372 119.873 31.7366 119.806 32.0878 119.671C32.4389 119.536 32.682 119.402 32.8306 119.267L33.0602 119.065H33.2358V119.806C33.1683 119.86 33.0872 119.927 32.9657 120.008C32.8441 120.089 32.5875 120.21 32.1958 120.345C31.7907 120.48 31.372 120.547 30.9263 120.547C30.0619 120.547 29.3326 120.251 28.7519 119.644C28.1711 119.051 27.874 118.297 27.874 117.38C27.874 116.464 28.1576 115.709 28.7384 115.116C29.3191 114.523 30.0214 114.213 30.8723 114.213C31.6826 114.213 32.3579 114.482 32.8711 115.022C33.3843 115.561 33.641 116.261 33.641 117.151V117.501H28.5628C28.5898 118.216 28.8194 118.795 29.2651 119.226C29.6973 119.658 30.2645 119.873 30.9803 119.873ZM28.6168 116.827H32.8846C32.8576 116.275 32.655 115.817 32.2769 115.466C31.8987 115.116 31.4395 114.927 30.8588 114.927C30.278 114.927 29.7783 115.102 29.3596 115.466C28.9545 115.817 28.7114 116.275 28.6168 116.827Z" fill="white"/>
<path d="M35.8828 114.402L35.9368 115.44H35.9909C36.0044 115.413 36.0314 115.372 36.0719 115.318C36.1124 115.265 36.1934 115.17 36.3285 115.022C36.4636 114.874 36.6121 114.752 36.7742 114.658C36.9363 114.564 37.1523 114.456 37.409 114.375C37.6656 114.281 37.9492 114.24 38.2328 114.24C39.0296 114.24 39.7049 114.537 40.2722 115.143C40.8394 115.75 41.123 116.504 41.123 117.407C41.123 118.31 40.8394 119.065 40.2722 119.672C39.7049 120.278 39.0296 120.575 38.2328 120.575C37.9357 120.575 37.6656 120.534 37.409 120.453C37.1523 120.372 36.9363 120.265 36.7742 120.157C36.6121 120.035 36.4636 119.928 36.342 119.806C36.2205 119.685 36.1259 119.591 36.0719 119.496L35.9909 119.375H35.9368V122.947H35.248V114.429H35.8828V114.402ZM36.5851 115.615C36.1529 116.073 35.9503 116.666 35.9503 117.407C35.9503 118.149 36.1664 118.742 36.5851 119.2C37.0173 119.658 37.544 119.887 38.1923 119.887C38.8406 119.887 39.3808 119.658 39.7995 119.2C40.2316 118.742 40.4342 118.149 40.4342 117.407C40.4342 116.666 40.2181 116.073 39.7995 115.615C39.3673 115.157 38.8406 114.928 38.1923 114.928C37.544 114.928 37.0038 115.157 36.5851 115.615Z" fill="white"/>
<path d="M47.295 120.386V117.677H43.4864V120.386H42.7976V114.402H43.4864V116.99H47.295V114.402H47.9838V120.386H47.295Z" fill="white"/>
<path d="M52.7784 119.873C53.1701 119.873 53.5347 119.806 53.8859 119.671C54.237 119.536 54.4801 119.402 54.6287 119.267L54.8583 119.065H55.0339V119.806C54.9664 119.86 54.8853 119.927 54.7638 120.008C54.6422 120.089 54.3856 120.21 53.9939 120.345C53.5888 120.48 53.1701 120.547 52.7244 120.547C51.86 120.547 51.1307 120.251 50.55 119.644C49.9692 119.051 49.6721 118.297 49.6721 117.38C49.6721 116.464 49.9557 115.709 50.5365 115.116C51.1172 114.523 51.8195 114.213 52.6704 114.213C53.4807 114.213 54.156 114.482 54.6692 115.022C55.1824 115.561 55.4391 116.261 55.4391 117.151V117.501H50.3474C50.3744 118.216 50.604 118.795 51.0497 119.226C51.4819 119.658 52.0626 119.873 52.7784 119.873ZM50.4149 116.827H54.6827C54.6557 116.275 54.4531 115.817 54.075 115.466C53.6968 115.116 53.2376 114.927 52.6569 114.927C52.0761 114.927 51.5764 115.102 51.1577 115.466C50.7526 115.817 50.496 116.275 50.4149 116.827Z" fill="white"/>
<path d="M58.2482 115.101H56.0603V114.414H61.1385V115.101H58.9505V120.398H58.2617V115.101H58.2482Z" fill="white"/>
<path d="M61.8813 116.99V116.303H65.5144V116.99H61.8813Z" fill="white"/>
<path d="M70.0656 120.386L68.2154 115.723H68.1613L67.4185 120.386H66.7297L67.7157 114.402H68.3504L70.3087 119.349H70.3628L72.3211 114.402H72.9559L73.9418 120.386H73.253L72.5102 115.723H72.4561L70.6059 120.386H70.0656Z" fill="white"/>
<path d="M77.6153 114.227C78.3311 114.227 78.9119 114.442 79.3441 114.873C79.7763 115.305 79.9788 115.898 79.9788 116.639V120.372H79.3441L79.29 119.281H79.236C79.2225 119.308 79.1955 119.361 79.155 119.415C79.1145 119.469 79.0334 119.577 78.9119 119.725C78.7903 119.874 78.6418 119.995 78.5067 120.116C78.3582 120.224 78.1691 120.332 77.926 120.426C77.6829 120.52 77.4263 120.561 77.1561 120.561C76.5619 120.561 76.0757 120.386 75.6975 120.035C75.3194 119.685 75.1438 119.254 75.1438 118.715C75.1438 118.148 75.3464 117.704 75.7381 117.34C76.1297 116.989 76.6699 116.814 77.3452 116.814C77.7099 116.814 78.0475 116.868 78.3717 116.976C78.6958 117.084 78.9389 117.192 79.074 117.299L79.29 117.448V116.639C79.29 115.493 78.7363 114.914 77.6153 114.914C77.2372 114.914 76.859 114.981 76.4944 115.13C76.1162 115.278 75.8461 115.413 75.657 115.561L75.3734 115.776H75.2519V115.035C75.3194 114.968 75.4139 114.9 75.549 114.806C75.6705 114.712 75.9406 114.604 76.3593 114.456C76.7645 114.307 77.1967 114.227 77.6153 114.227ZM77.2237 119.874C77.4938 119.874 77.7504 119.82 77.9935 119.712C78.2366 119.604 78.4257 119.469 78.5877 119.308C78.7363 119.146 78.8714 118.998 78.9794 118.836C79.101 118.674 79.182 118.553 79.2225 118.445L79.3036 118.27C79.2495 118.216 79.1685 118.148 79.074 118.068C78.9794 117.987 78.7633 117.865 78.4392 117.731C78.1151 117.596 77.7639 117.529 77.3992 117.529C76.3593 117.529 75.8461 117.933 75.8461 118.741C75.8461 119.092 75.9677 119.375 76.1972 119.577C76.4268 119.766 76.7645 119.874 77.2237 119.874Z" fill="white"/>
<path d="M81.8831 120.386V114.402H85.9753V115.09H82.5718V120.386H81.8831Z" fill="white"/>
<path d="M88.9735 114.227C89.6893 114.227 90.27 114.442 90.7022 114.873C91.1344 115.305 91.337 115.898 91.337 116.639V120.372H90.7022L90.6482 119.281H90.5942C90.5807 119.308 90.5536 119.361 90.5131 119.415C90.4726 119.469 90.3916 119.577 90.27 119.725C90.1485 119.874 89.9999 119.995 89.8649 120.116C89.7163 120.224 89.5272 120.332 89.2841 120.426C89.041 120.52 88.7844 120.561 88.5143 120.561C87.92 120.561 87.4338 120.386 87.0557 120.035C86.6775 119.685 86.502 119.254 86.502 118.715C86.502 118.148 86.7045 117.704 87.0962 117.34C87.4879 116.989 88.0281 116.814 88.7034 116.814C89.068 116.814 89.4057 116.868 89.7298 116.976C90.0539 117.084 90.297 117.192 90.4321 117.299L90.6482 117.448V116.639C90.6482 115.493 90.0945 114.914 88.9735 114.914C88.5953 114.914 88.2172 114.981 87.8525 115.13C87.4744 115.278 87.2042 115.413 87.0152 115.561L86.7316 115.776H86.61V115.035C86.6775 114.968 86.7721 114.9 86.9071 114.806C87.0287 114.712 87.2988 114.604 87.7175 114.456C88.1226 114.307 88.5413 114.227 88.9735 114.227ZM88.5683 119.874C88.8384 119.874 89.095 119.82 89.3381 119.712C89.5812 119.604 89.7703 119.469 89.9324 119.308C90.0809 119.146 90.216 118.998 90.324 118.836C90.4456 118.674 90.5266 118.553 90.5671 118.445L90.6482 118.27C90.5942 118.216 90.5131 118.148 90.4186 118.068C90.3241 117.987 90.108 117.865 89.7838 117.731C89.4597 117.596 89.1085 117.529 88.7439 117.529C87.704 117.529 87.1907 117.933 87.1907 118.741C87.1907 119.092 87.3123 119.375 87.5419 119.577C87.7715 119.766 88.1226 119.874 88.5683 119.874Z" fill="white"/>
<path d="M96.5909 118.714C96.5909 118.391 96.4558 118.121 96.1992 117.919C95.9291 117.717 95.5239 117.623 94.9837 117.623H94.403V116.935H94.9162C95.8751 116.935 96.3613 116.585 96.3613 115.898C96.3613 115.251 95.8751 114.914 94.9162 114.914C94.592 114.914 94.2814 114.981 93.9978 115.116C93.7142 115.251 93.4981 115.385 93.363 115.52L93.1739 115.722H92.9984V114.914C93.0389 114.86 93.1199 114.792 93.2145 114.712C93.309 114.631 93.5251 114.536 93.8492 114.402C94.1734 114.28 94.5245 114.213 94.9027 114.213C95.578 114.213 96.0912 114.375 96.4693 114.685C96.8475 114.995 97.0366 115.399 97.0366 115.884C97.0366 116.086 96.9961 116.275 96.9285 116.437C96.861 116.598 96.78 116.733 96.6854 116.827C96.5909 116.922 96.4963 117.003 96.4018 117.057C96.3073 117.124 96.2262 117.151 96.1587 117.178L96.0507 117.218V117.272C96.0777 117.286 96.1182 117.286 96.1722 117.313C96.2262 117.326 96.3208 117.367 96.4693 117.434C96.6179 117.501 96.7394 117.582 96.834 117.677C96.9285 117.771 97.0366 117.919 97.1176 118.094C97.2121 118.283 97.2527 118.485 97.2527 118.701C97.2527 119.24 97.0501 119.685 96.6449 120.022C96.2397 120.372 95.6725 120.534 94.9567 120.534C94.6866 120.534 94.43 120.507 94.1734 120.453C93.9168 120.399 93.7007 120.318 93.5251 120.237C93.3495 120.156 93.201 120.062 93.0524 119.981C92.9173 119.887 92.8093 119.819 92.7553 119.766L92.6472 119.671L92.8768 119.038C92.9443 119.105 93.0254 119.173 93.1334 119.267C93.2415 119.361 93.4846 119.469 93.8357 119.617C94.2004 119.766 94.565 119.846 94.9432 119.846C96.0507 119.873 96.5909 119.483 96.5909 118.714Z" fill="white"/>
<path d="M103.452 120.386V115.494L99.4675 120.386H98.8328V114.402H99.5215V119.295L103.506 114.402H104.14V120.386H103.452Z" fill="white"/>
<path d="M110.596 120.386V117.677H106.788V120.386H106.099V114.402H106.788V116.99H110.596V114.402H111.285V120.386H110.596Z" fill="white"/>
<path d="M56.614 22.1732C57.524 22.1732 58.2617 21.4371 58.2617 20.529C58.2617 19.6209 57.524 18.8848 56.614 18.8848C55.704 18.8848 54.9663 19.6209 54.9663 20.529C54.9663 21.4371 55.704 22.1732 56.614 22.1732Z" fill="#163E6D"/>
<path d="M72.7532 49.0072C72.7532 51.6083 70.984 53.7916 68.58 54.425L65.9734 43.5354C66.3515 43.4545 66.7432 43.4141 67.1484 43.4141C70.2412 43.4141 72.7532 45.9074 72.7532 49.0072Z" fill="#163E6D"/>
<path d="M81.3833 61.1638C81.3563 60.9347 81.3563 60.6921 81.3563 60.4495C81.3563 60.153 81.3698 59.8565 81.3968 59.5734C81.5724 57.8753 82.2612 56.3119 83.3146 55.072C83.4227 54.9507 84.0709 54.2769 84.3005 54.0747C87.677 50.7054 89.7703 46.0557 89.7703 40.9208C89.7703 30.6376 81.4238 22.3086 71.119 22.3086C67.6075 22.3086 64.3121 23.279 61.5164 24.9636L63.8664 34.7751C65.2845 34.1821 66.8512 33.8587 68.4854 33.8587C75.1302 33.8587 80.5189 39.2361 80.5189 45.867C80.5189 52.1879 75.6164 57.3766 69.4037 57.8349L69.7954 59.4926L70.7273 63.3741L70.7408 63.4145C70.7678 63.5223 70.7948 63.6167 70.7948 63.738C70.052 63.8053 69.2957 63.8458 68.5259 63.8458C55.3713 63.8458 44.7018 53.2661 44.5803 40.1796C44.8639 40.1661 45.1475 40.1526 45.4176 40.0987C49.6584 39.3709 53.8047 35.9746 54.7096 31.4193C54.7096 31.4058 54.7096 31.4058 54.7096 31.4058C54.9121 30.5702 55.0202 29.7077 55.0202 28.8181C55.0202 27.5513 54.8041 26.3248 54.3989 25.1927C54.0343 24.1819 53.3185 22.7264 52.4811 21.8234V17.322H63.9745C67.2834 17.322 70.079 14.613 70.0115 11.3111C69.9575 8.10347 67.3239 5.5293 64.1095 5.5293C61.0167 5.5293 58.4776 7.90131 58.221 10.9337C57.1541 9.65337 55.5064 8.88516 53.6831 9.04688C51.1711 9.276 49.1317 11.3111 48.9156 13.8313C48.8076 15.1386 49.1722 16.3516 49.861 17.322H43.5809L50.8199 22.6455L47.4435 25.624C47.3895 25.6645 47.3354 25.7184 47.2814 25.7588L47.2274 25.8127C46.6331 26.3922 46.2685 27.1874 46.2685 28.0769C46.2685 29.8289 47.6866 31.2441 49.4423 31.2441C49.9015 31.2441 50.3337 31.1497 50.7254 30.9745C50.6038 34.3169 48.0107 37.0393 44.7288 37.3897C44.5128 37.4167 44.2967 37.4302 44.0806 37.4302H44.013C43.1757 37.4302 42.3789 37.2819 41.6495 36.9989C39.097 36.042 37.2872 33.5891 37.2872 30.7185C37.2872 30.2872 37.3277 29.8694 37.4088 29.4516C36.2743 30.9071 35.3559 32.5514 34.6941 34.3169C34.6401 34.4517 34.5996 34.5865 34.5456 34.7212C33.8703 36.6485 33.5056 38.724 33.5056 40.8938C33.5056 50.8401 41.2579 58.9804 51.063 59.6139C53.2104 61.4064 55.6414 62.8754 58.2886 63.9132L55.736 71.7704C55.5334 72.1882 55.1687 72.4847 54.7906 72.5656L49.4829 73.536C49.0777 73.6034 48.767 73.9673 48.767 74.3851V75.2476H62.8535L62.6914 74.1964C62.6374 73.8729 62.4213 73.6168 62.1107 73.509L59.4636 72.66C59.0989 72.5387 58.8558 72.2017 58.8693 71.8244L60.8817 64.8296C62.948 65.4091 65.1224 65.7461 67.3509 65.8C67.5535 65.8 67.7561 65.8135 67.9586 65.8135H67.9992C68.3098 65.8135 68.6069 65.8135 68.8905 65.8L69.4848 71.7165C69.4983 72.2287 69.1606 72.6869 68.6744 72.8352L65.7977 73.5225C65.1495 73.7112 64.9469 74.3985 64.9469 75.2611H79.0333C79.0333 74.4659 79.0738 73.6842 78.385 73.5764L73.4149 72.8352C72.5506 72.7004 72.1184 72.2287 72.0509 71.3527L71.5241 65.7461C72.3075 66.9321 73.6445 67.7138 75.1707 67.7138C75.819 67.7138 76.4402 67.5655 76.9939 67.3094C78.1554 68.1855 79.6141 68.6976 81.1807 68.6976C82.6393 68.6976 84.0034 68.2529 85.1244 67.4847C83.0445 66.083 81.5994 63.7919 81.3833 61.1638ZM36.4769 40.9073C36.4769 39.5865 36.7065 37.9693 36.7065 37.9693C36.7065 37.9693 38.5432 39.5057 41.582 40.0448C41.6901 46.8913 44.3642 52.983 48.767 57.6058C41.6495 55.3685 36.4769 48.7377 36.4769 40.9073Z" fill="#163E6D"/>
<path d="M34.1674 12.5781C29.5755 12.5781 25.8479 16.2979 25.8479 20.8802C25.8479 25.4625 29.5755 29.1822 34.1674 29.1822C38.7593 29.1822 42.4869 25.4625 42.4869 20.8802C42.5004 16.2979 38.7728 12.5781 34.1674 12.5781ZM41.1228 19.9907L41.2579 20.5837C41.3254 20.9071 41.1228 21.2306 40.7987 21.298L40.6636 20.705C40.5961 20.3815 40.7987 20.0581 41.1228 19.9907ZM40.8527 22.174C40.5826 22.4166 40.3125 22.3896 40.1504 22.2009L39.3401 21.298C39.6102 21.0554 39.8803 21.0823 40.0424 21.271L40.8527 22.174ZM33.8838 14.9501L34.5456 14.2897C34.7346 14.4784 34.7211 14.6806 34.5861 14.8154L33.9243 15.4758C33.7217 15.2871 33.7487 15.0849 33.8838 14.9501ZM32.0335 25.8129C32.0335 26.1633 31.7499 26.4463 31.3987 26.4463V25.8129C31.3987 25.4625 31.6824 25.1794 32.0335 25.1794V25.8129ZM31.912 22.9287V24.4382L31.0611 25.2873V26.2037H30.2237L29.3864 25.3681V23.2657H28.4815C27.4956 23.2657 26.6988 22.4705 26.6988 21.4866V20.9206C26.6988 20.5971 26.9689 20.3276 27.293 20.3276H30.3993L31.939 22.3627H32.4792C32.4657 22.6727 32.2226 22.9287 31.912 22.9287ZM38.057 22.5244V22.0392C38.057 21.9179 38.0976 21.8101 38.1651 21.7292L37.6249 21.1901H36.8955C36.7875 21.581 36.4904 21.891 36.0987 22.0123V22.3762C36.0987 22.7131 35.8286 22.9826 35.491 22.9826L35.0588 21.5001C34.7211 21.5001 34.451 21.2306 34.451 20.8936L34.1269 20.678H33.4111L32.2226 21.864L30.737 19.8963H32.1551C32.1551 19.6403 31.939 19.4246 31.6824 19.4246L30.737 19.8963H30.1157V19.0877C30.1157 18.7507 29.8456 18.4677 29.4944 18.4677H29.2378C29.2378 19.1416 28.6841 19.6942 28.0088 19.6942V18.4677H29.1703L28.8056 17.713H28.2519C28.2519 17.3761 28.522 17.1065 28.8597 17.1065V17.6726L29.3729 17.3221L29.724 17.43L29.7916 17.2413L29.1703 17.0256C29.1703 16.2305 29.8186 15.5836 30.6154 15.5836C31.0881 15.5836 31.5068 15.8127 31.7634 16.1631L32.8033 15.2736L33.9648 15.6779L34.5456 15.5701C34.7481 14.9636 35.3154 14.5323 35.9907 14.5323V15.2871L37.9085 14.9097L39.3671 15.9879L38.3272 16.3248L38.5162 16.5135V16.4866C39.1915 16.4866 39.7452 17.0391 39.7452 17.713H39.7182V17.9152L40.0964 18.2925C40.3125 18.5082 40.3125 18.872 40.0964 19.0877L39.6912 18.6834C39.5562 18.5486 39.5021 18.3599 39.5292 18.1847H39.205V18.589L40.0829 19.3977C40.0829 20.2333 39.5427 20.9476 38.7999 21.2036L39.5562 21.9314C39.5562 22.2683 39.2861 22.5379 38.9484 22.5379L38.5162 22.1066C38.5162 22.3357 38.3136 22.5244 38.057 22.5244ZM40.326 25.0042L38.6918 24.9773C39.0024 23.6565 40.0829 22.7805 41.0823 23.0096L40.326 25.0042Z" fill="#163E6D"/>
<path d="M28.8056 86.9844H28.3194V83.5207H26.2125V86.9844H25.7263V83.0625H28.8056V86.9844Z" fill="#163E6D"/>
<path d="M34.0865 83.0625V83.5207H32.844V86.9844H32.3578V83.5207H31.1152V83.0625H34.0865Z" fill="#163E6D"/>
<path d="M39.5831 86.9844H39.0969V83.8307L36.8549 86.9844H36.3958V83.0625H36.882V86.2162L39.1239 83.0625H39.5831V86.9844Z" fill="#163E6D"/>
<path d="M42.2708 83.0625H42.757V86.5262H44.7558V83.0625H45.242V86.5262H45.7282V87.847H45.242V86.9844H42.2708V83.0625Z" fill="#163E6D"/>
<path d="M48.0376 83.0625H50.4686V83.5207H48.5238V84.7607H50.0634V85.2189H48.5238V86.5397H50.4686V86.9979H48.0376V83.0625Z" fill="#163E6D"/>
<path d="M54.6691 86.6077C53.3996 86.5537 52.6973 85.8529 52.6973 84.9365C52.6973 84.02 53.3996 83.3192 54.6691 83.2653V82.834H55.1553V83.2653C56.4248 83.3192 57.1271 84.02 57.1271 84.9365C57.1271 85.8529 56.4248 86.5537 55.1553 86.6077V87.0389H54.6691V86.6077ZM54.6691 83.7235C53.6967 83.7505 53.1835 84.2626 53.1835 84.9365C53.1835 85.6103 53.6967 86.1225 54.6691 86.1494V83.7235ZM55.1553 86.1494C56.1277 86.1225 56.6409 85.6103 56.6409 84.9365C56.6409 84.2626 56.1277 83.7505 55.1553 83.7235V86.1494Z" fill="#163E6D"/>
<path d="M60.0038 85.9062L59.5176 86.9844H59.0044L60.8142 83.0625H61.2734L63.0831 86.9844H62.5699L62.0837 85.9062H60.0038ZM61.0573 83.669H61.0302L60.2199 85.448H61.8676L61.0573 83.669Z" fill="#163E6D"/>
<path d="M65.7301 84.5046H66.4864C67.3508 84.5046 67.837 84.9898 67.837 85.7445C67.837 86.4992 67.3508 86.9844 66.4864 86.9844H65.2439V83.0625H67.5939V83.5207H65.7301V84.5046ZM65.7301 86.5262H66.4864C67.0266 86.5262 67.3238 86.2297 67.3238 85.7445C67.3238 85.2593 67.0266 84.9628 66.4864 84.9628H65.7301V86.5262Z" fill="#163E6D"/>
<path d="M70.7948 86.9844H70.3086V83.0625H71.4701C72.3615 83.0625 72.8747 83.5746 72.8747 84.3563C72.8747 85.138 72.3615 85.6501 71.4701 85.6501H70.7948V86.9844ZM70.7948 85.1784H71.4701C72.0373 85.1784 72.3614 84.855 72.3614 84.3428C72.3614 83.8307 72.0373 83.5072 71.4701 83.5072H70.7948V85.1784Z" fill="#163E6D"/>
<path d="M78.5201 86.9844H78.0339V83.8307L75.792 86.9844H75.3328V83.0625H75.819V86.2162L78.0609 83.0625H78.5201V86.9844Z" fill="#163E6D"/>
<path d="M81.7074 84.9357L83.5982 83.0488H84.2195L82.3287 84.9357L84.3545 86.9842H83.7062L81.7074 84.9626V86.9842H81.2212V83.0623H81.7074V84.9357Z" fill="#163E6D"/>
<path d="M86.9613 85.9062L86.4751 86.9844H85.9619L87.7717 83.0625H88.2309L90.0406 86.9844H89.5274L89.0412 85.9062H86.9613ZM88.0148 83.669H87.9878L87.1774 85.448H88.8251L88.0148 83.669Z" fill="#163E6D"/>
<path d="M30.0347 97.4037C31.3987 97.4037 32.1551 96.312 32.1551 96.312H32.3712V98.1584C32.3712 98.1584 31.4933 99.1423 29.697 99.1423C27.347 99.1423 25.5508 97.3498 25.5508 95.0047C25.5508 92.6597 27.347 90.8672 29.697 90.8672C31.7634 90.8672 32.6413 91.9049 32.6413 91.9049L31.939 93.4279C31.939 93.4279 31.3447 92.6058 30.0347 92.6058C28.5626 92.6058 27.5766 93.5896 27.5766 95.0047C27.5766 96.4198 28.5626 97.4037 30.0347 97.4037Z" fill="#163E6D"/>
<path d="M34.5588 91.0293H40.0692V92.7679H36.5307V94.1426H39.2588V95.8811H36.5307V97.2424H40.0692V98.9809H34.5588V91.0293Z" fill="#163E6D"/>
<path d="M44.8638 91.0293C46.9302 91.0293 47.8081 91.9053 47.8081 93.1452C47.8081 94.4525 46.606 94.7221 46.606 94.7221V94.776C46.606 94.776 48.1862 95.0995 48.1862 96.7302C48.1862 98.0375 47.2543 98.9674 45.1339 98.9674H42.1897V91.0293H44.8638ZM44.1615 92.6735V94.0886H44.9313C45.4716 94.0886 45.8092 93.8191 45.8092 93.3743C45.8092 92.9431 45.4851 92.6735 44.9313 92.6735H44.1615ZM44.1615 97.3502H45.1474C45.7957 97.3502 46.1874 97.0806 46.1874 96.5281C46.1874 95.9755 45.8092 95.7059 45.1474 95.7059H44.1615V97.3502Z" fill="#163E6D"/>
<path d="M50.104 91.0293H55.6143V92.7679H52.0758V94.1426H54.804V95.8811H52.0758V97.2424H55.6143V98.9809H50.104V91.0293Z" fill="#163E6D"/>
<path d="M59.6932 98.9792H57.7349V91.041H60.355C62.4213 91.041 63.6233 92.2405 63.6233 93.9252C63.6233 95.6098 62.4213 96.8093 60.355 96.8093H59.7067V98.9792H59.6932ZM59.6932 95.0573H60.3415C61.1113 95.0573 61.5975 94.626 61.5975 93.9117C61.5975 93.1974 61.1113 92.7661 60.3415 92.7661H59.6932V95.0573Z" fill="#163E6D"/>
<path d="M72.6179 98.9792H70.6595V95.8524H67.6073V98.9792H65.6489V91.041H67.6073V94.1139H70.6595V91.041H72.6179V98.9792Z" fill="#163E6D"/>
<path d="M76.7103 97.4562L76.0621 98.9792H73.9822L77.6287 91.041H79.2089L82.8689 98.9792H80.8025L80.1543 97.4562H76.7103ZM78.3985 93.6421L77.4126 95.812H79.425L78.4391 93.6421H78.3985Z" fill="#163E6D"/>
<path d="M85.4347 96.0968V96.0429C85.4347 96.0429 84.0707 95.4499 84.0707 93.8056C84.0707 92.2288 85.2727 91.0293 87.339 91.0293H89.9591V98.9674H88.0008V96.5685H87.2985L85.7184 98.9674H83.5439L85.4347 96.0968ZM88.0008 92.7814H87.3525C86.5287 92.7814 86.0965 93.1587 86.0965 93.873C86.0965 94.5738 86.5287 94.9647 87.3525 94.9647H88.0008V92.7814Z" fill="#163E6D"/>
</g>
<defs>
<linearGradient id="paint0_linear" x1="0.574695" y1="108.344" x2="10.3627" y2="108.344" gradientUnits="userSpaceOnUse">
<stop stop-color="#831811"/>
<stop offset="0.1971" stop-color="#911913"/>
<stop offset="0.4527" stop-color="#9F1915"/>
<stop offset="0.7168" stop-color="#A81916"/>
<stop offset="1" stop-color="#AB1917"/>
</linearGradient>
<linearGradient id="paint1_linear" x1="0.106201" y1="116.718" x2="120.131" y2="116.718" gradientUnits="userSpaceOnUse">
<stop stop-color="#E52B16"/>
<stop offset="1" stop-color="#CE1D17"/>
</linearGradient>
<clipPath id="clip0">
<rect width="120" height="137" fill="white"/>
</clipPath>
</defs>
</svg>
