<svg width="124" height="81" viewBox="0 0 124 81" fill="none" xmlns="http://www.w3.org/2000/svg">
<path d="M4.19922 26.6H3.59923V22.1H0.899216V26.6H0.199219V21.5H4.19922V26.6Z" fill="#163E6D"/>
<path d="M11.0992 21.5V22.1H9.49922V26.6H8.89922V22.1H7.19922V21.5H11.0992Z" fill="#163E6D"/>
<path d="M18.2996 26.6H17.5996V22.5L14.6996 26.6H14.0996V21.5H14.7996V25.6L17.6996 21.5H18.2996V26.6Z" fill="#163E6D"/>
<path d="M21.8008 21.5H22.4008V26H25.0008V21.5H25.6008V26H26.3008V27.8H25.6008V26.6H21.8008V21.5Z" fill="#163E6D"/>
<path d="M29.3008 21.5H32.4008V22.1H29.9008V23.7H31.9008V24.3H29.9008V26H32.4008V26.6H29.3008V21.5Z" fill="#163E6D"/>
<path d="M37.9008 26.1016C36.3008 26.0016 35.3008 25.1016 35.3008 23.9016C35.3008 22.7016 36.2008 21.8016 37.9008 21.7016V21.1016H38.5008V21.8016C40.1008 21.9016 41.1008 22.8016 41.1008 24.0016C41.1008 25.2016 40.2008 26.1016 38.5008 26.2016V26.8016H37.9008V26.1016ZM37.9008 22.4016C36.6008 22.4016 36.0008 23.1016 36.0008 24.0016C36.0008 24.9016 36.7008 25.5016 37.9008 25.6016V22.4016ZM38.5008 25.5016C39.8008 25.5016 40.4008 24.8016 40.4008 23.9016C40.4008 23.0016 39.7008 22.4016 38.5008 22.3016V25.5016Z" fill="#163E6D"/>
<path d="M44.8 25.2L44.2 26.6H43.5L45.9 21.5H46.5L48.9 26.6H48.2L47.6 25.2H44.8ZM46.2 22.3L45.1 24.6H47.2L46.2 22.3Z" fill="#163E6D"/>
<path d="M52.2992 23.4H53.2992C54.3992 23.4 55.0992 24 55.0992 25C55.0992 26 54.4992 26.6 53.2992 26.6H51.6992V21.5H54.7992V22.1H52.3992V23.4H52.2992ZM52.2992 26H53.2992C53.9992 26 54.3992 25.6 54.3992 25C54.3992 24.4 53.9992 24 53.2992 24H52.2992V26Z" fill="#163E6D"/>
<path d="M58.9008 26.6H58.3008V21.5H59.8008C61.0008 21.5 61.6008 22.2 61.6008 23.2C61.6008 24.2 60.9008 24.9 59.8008 24.9H58.9008V26.6ZM58.9008 24.3H59.8008C60.5008 24.3 61.0008 23.9 61.0008 23.2C61.0008 22.5 60.6008 22.1 59.8008 22.1H58.9008V24.3Z" fill="#163E6D"/>
<path d="M68.9008 26.6H68.3008V22.5L65.4008 26.6H64.8008V21.5H65.4008V25.6L68.4008 21.5H68.9008V26.6Z" fill="#163E6D"/>
<path d="M73.1 24L75.5 21.5H76.3L73.9 24L76.5 26.6H75.7L73.1 24V26.6H72.5V21.5H73.1V24Z" fill="#163E6D"/>
<path d="M79.8996 25.2L79.2996 26.6H78.5996L80.9996 21.5H81.5996L83.9996 26.6H83.2996L82.6996 25.2H79.8996ZM81.2996 22.3L80.1996 24.6H82.2996L81.2996 22.3Z" fill="#163E6D"/>
<path d="M5.8 40.1992C7.6 40.1992 8.60001 38.7992 8.60001 38.7992H8.89999V41.1992C8.89999 41.1992 7.79999 42.4992 5.39999 42.4992C2.29999 42.4992 0 40.1992 0 37.0992C0 33.9992 2.29999 31.6992 5.39999 31.6992C8.09999 31.6992 9.2 32.9992 9.2 32.9992L8.3 34.9992C8.3 34.9992 7.5 33.8992 5.8 33.8992C3.9 33.8992 2.60001 35.1992 2.60001 36.9992C2.60001 38.7992 3.9 40.1992 5.8 40.1992Z" fill="#163E6D"/>
<path d="M11.6992 31.9023H18.8992V34.2023H14.2992V36.0023H17.7992V38.2023H14.2992V40.0023H18.8992V42.3023H11.6992V31.9023Z" fill="#163E6D"/>
<path d="M25.0996 31.9023C27.7996 31.9023 28.8996 33.0023 28.8996 34.7023C28.8996 36.4023 27.2996 36.8023 27.2996 36.8023C27.2996 36.8023 29.3996 37.2023 29.3996 39.4023C29.3996 41.1023 28.1996 42.3023 25.3996 42.3023H21.5996V31.9023H25.0996ZM24.1996 34.0023V35.8023H25.1996C25.8996 35.8023 26.2996 35.4023 26.2996 34.9023C26.2996 34.3023 25.8996 34.0023 25.1996 34.0023H24.1996ZM24.1996 40.2023H25.4996C26.3996 40.2023 26.7996 39.8023 26.7996 39.1023C26.7996 38.4023 26.2996 38.0023 25.4996 38.0023H24.1996V40.2023Z" fill="#163E6D"/>
<path d="M31.9004 31.9023H39.1004V34.2023H34.5004V36.0023H38.1004V38.2023H34.5004V40.0023H39.1004V42.3023H31.9004V31.9023Z" fill="#163E6D"/>
<path d="M44.4008 42.3023H41.8008V31.9023H45.2008C47.9008 31.9023 49.5008 33.5023 49.5008 35.7023C49.5008 37.9023 47.9008 39.5023 45.2008 39.5023H44.3008V42.3023H44.4008ZM44.4008 37.2023H45.3008C46.3008 37.2023 46.9008 36.6023 46.9008 35.7023C46.9008 34.8023 46.3008 34.2023 45.3008 34.2023H44.4008V37.2023Z" fill="#163E6D"/>
<path d="M61.2992 42.3023H58.6992V38.2023H54.6992V42.3023H52.1992V31.9023H54.6992V35.9023H58.6992V31.9023H61.2992V42.3023Z" fill="#163E6D"/>
<path d="M66.6 40.3023L65.7 42.3023H63L67.8 31.9023H69.9L74.7 42.3023H72L71.1 40.3023H66.6ZM68.8 35.3023L67.5 38.1023H70.1L68.8 35.3023Z" fill="#163E6D"/>
<path d="M77.9004 38.5023C77.9004 38.4023 76.1004 37.6023 76.1004 35.5023C76.1004 33.4023 77.7004 31.9023 80.4004 31.9023H83.8004V42.3023H81.2004V39.2023H80.3004L78.2004 42.3023H75.4004L77.9004 38.5023ZM81.3004 34.2023H80.4004C79.3004 34.2023 78.8004 34.7023 78.8004 35.6023C78.8004 36.5023 79.4004 37.0023 80.4004 37.0023H81.3004V34.2023Z" fill="#163E6D"/>
<path d="M103.9 9.10156C103.9 9.70156 103.5 10.1016 102.9 10.1016C102.3 10.1016 101.9 9.70156 101.9 9.10156C101.9 8.50156 102.3 8.10156 102.9 8.10156C103.4 8.10156 103.9 8.60156 103.9 9.10156Z" fill="#163E6D"/>
<path d="M112.7 26.5016C112.7 28.1016 111.6 29.4016 110.2 29.8016L108.6 23.2016C108.8 23.1016 109.1 23.1016 109.3 23.1016C111.1 23.1016 112.7 24.6016 112.7 26.5016Z" fill="#163E6D"/>
<path d="M117.9 33.9C117.9 33.8 117.9 33.6 117.9 33.5C117.9 33.3 117.9 33.1 117.9 33C118 32 118.4 31 119.1 30.3C119.2 30.2 119.6 29.8 119.7 29.7C121.8 27.6 123 24.8 123 21.7C123 15.4 117.9 10.3 111.6 10.3C109.5 10.3 107.5 10.9 105.8 11.9L107.2 17.9C108.1 17.5 109 17.3 110 17.3C114 17.3 117.3 20.6 117.3 24.6C117.3 28.5 114.3 31.6 110.5 31.9L110.7 32.9L111.3 35.3C111.3 35.4 111.3 35.4 111.3 35.5C110.8 35.5 110.4 35.6 109.9 35.6C101.9 35.6 95.4 29.1 95.3 21.2C95.5 21.2 95.6 21.2 95.8 21.2C98.4 20.8 100.9 18.7 101.5 15.9C101.6 15.4 101.7 14.9 101.7 14.3C101.7 13.5 101.6 12.8 101.3 12.1C101.1 11.5 100.6 10.6 100.1 10V7.2H107.1C109.1 7.2 110.8 5.6 110.8 3.5C110.8 1.5 109.2 0 107.2 0C105.3 0 103.8 1.5 103.6 3.3C103 2.5 101.9 2 100.8 2.1C99.3 2.2 98 3.5 97.9 5C97.8 5.8 98.1 6.5 98.5 7.1H94.7L99.1 10.3L97 12.1L96.9 12.2C96.5 12.6 96.3 13 96.3 13.6C96.3 14.7 97.2 15.5 98.2 15.5C98.5 15.5 98.7 15.4 99 15.3C98.9 17.3 97.4 19 95.3 19.2C95.2 19.2 95 19.2 94.9 19.2C94.4 19.2 93.9 19.1 93.5 18.9C92 18.3 90.8 16.8 90.8 15.1C90.8 14.8 90.8 14.6 90.9 14.3C90.2 15.2 89.7 16.2 89.2 17.3C89.2 17.4 89.1 17.5 89.1 17.5C88.7 18.7 88.5 19.9 88.5 21.3C88.5 27.4 93.2 32.3 99.2 32.7C100.5 33.8 102 34.7 103.6 35.3L102 40.1C101.9 40.4 101.7 40.5 101.4 40.6L98.2 41.2C98 41.2 97.8 41.5 97.8 41.7V42.2H106.4L106.3 41.6C106.3 41.4 106.1 41.2 105.9 41.2L104.3 40.7C104.1 40.6 103.9 40.4 103.9 40.2L105.1 35.9C106.4 36.3 107.7 36.5 109 36.5C109.1 36.5 109.2 36.5 109.4 36.5C109.6 36.5 109.8 36.5 109.9 36.5L110.3 40.1C110.3 40.4 110.1 40.7 109.8 40.8L108.1 41.2C107.7 41.3 107.6 41.7 107.6 42.3H116.2C116.2 41.8 116.2 41.3 115.8 41.3L112.8 40.8C112.3 40.7 112 40.4 112 39.9L111.7 36.5C112.2 37.2 113 37.7 113.9 37.7C114.3 37.7 114.7 37.6 115 37.5C115.7 38 116.6 38.4 117.6 38.4C118.5 38.4 119.3 38.1 120 37.7C118.9 36.9 118.1 35.5 117.9 33.9ZM90.6 21.6C90.6 20.8 90.7 19.8 90.7 19.8C90.7 19.8 91.8 20.7 93.7 21.1C93.8 25.3 95.4 29 98.1 31.8C93.7 30.4 90.6 26.3 90.6 21.6Z" fill="#163E6D"/>
<path d="M87.9 12.3023C87.9 12.5023 87.7 12.7023 87.5 12.7023V12.3023C87.5 12.1023 87.7 11.9023 87.9 11.9023V12.3023Z" fill="#163E6D"/>
<path d="M89.1996 4.30078C86.3996 4.30078 84.0996 6.60078 84.0996 9.40078C84.0996 12.2008 86.3996 14.5008 89.1996 14.5008C91.9996 14.5008 94.2996 12.2008 94.2996 9.40078C94.2996 6.50078 91.9996 4.30078 89.1996 4.30078Z" fill="#163E6D"/>
<path d="M86.8008 12.3992L86.4008 11.9992V10.5992H85.7008C85.2008 10.5992 84.8008 10.1992 84.8008 9.69922V9.39922C84.8008 9.29922 84.9008 9.19922 85.0008 9.19922H86.8008L87.7008 10.3992V11.4992L87.2008 11.9992V12.4992H86.8008V12.3992Z" fill="white"/>
<path d="M89.7996 9.59922H89.6996C89.5996 9.59922 89.4996 9.49922 89.4996 9.39922V9.29922L89.1996 9.09922H88.5996L87.9996 9.69922L87.3996 8.89922H88.0996V8.79922C88.0996 8.59922 87.8996 8.39922 87.6996 8.39922L87.0996 8.69922H86.8996V8.29922C86.8996 7.99922 86.6996 7.79922 86.3996 7.79922H86.2996L86.1996 7.49922L86.3996 7.39922L86.6996 7.49922L86.7996 7.09922L86.3996 6.99922C86.3996 6.59922 86.7996 6.39922 87.0996 6.39922C87.2996 6.39922 87.4996 6.49922 87.6996 6.69922L87.7996 6.79922L88.4996 6.19922L89.0996 6.39922L89.5996 6.29922V6.19922C89.6996 5.89922 89.8996 5.69922 90.1996 5.69922V6.19922L91.4996 5.99922L92.0996 6.49922L91.4996 6.69922L91.9996 7.19922V6.79922C92.1996 6.89922 92.3996 7.09922 92.4996 7.29922V7.39922V7.59922H92.1996V7.99922L92.6996 8.49922C92.6996 8.89922 92.3996 9.29922 91.9996 9.39922L91.7996 9.49922L92.3996 10.0992C92.3996 10.1992 92.2996 10.2992 92.1996 10.2992L91.7996 9.89922L91.2996 9.39922H90.6996V9.49922C90.5996 9.69922 90.4996 9.79922 90.2996 9.89922H90.1996V10.1992C90.1996 10.2992 90.0996 10.3992 90.0996 10.3992L89.7996 9.59922ZM85.5996 7.99922H85.9996C85.8996 8.19922 85.7996 8.39922 85.5996 8.39922V7.99922Z" fill="white"/>
<path d="M92.0996 11.7008C92.2996 11.1008 92.6996 10.8008 93.1996 10.8008L92.7996 11.7008H92.0996Z" fill="white"/>
<path d="M123.736 50C82.6485 50.9736 41.5609 51.9611 0.473391 52.9347C0.320235 61.5023 0.153156 70.0839 0 78.6515C40.0294 79.2496 80.0448 79.8338 120.074 80.4318C121.299 70.2786 122.511 60.1393 123.736 50Z" fill="url(#paint0_linear)"/>
<path d="M13.3516 69.0013V63.9525L9.24424 69.0013H8.58984V62.8259H9.29993V67.8747L13.4073 62.8259H14.0617V69.0013H13.3516Z" fill="white"/>
<path d="M20.7165 69.0013V66.2057H16.7902V69.0013H16.0801V62.8259H16.7902V65.4964H20.7165V62.8259H21.4266V69.0013H20.7165Z" fill="white"/>
<path d="M24.9353 63.5455H22.6797V62.8362H27.9148V63.5455H25.6593V69.0116H24.9492V63.5455H24.9353Z" fill="white"/>
<path d="M31.8273 68.4707C32.2311 68.4707 32.607 68.4012 32.9691 68.2621C33.3311 68.123 33.5817 67.9839 33.7348 67.8448L33.9715 67.6362H34.1525V68.4012C34.0829 68.4568 33.9994 68.5263 33.8741 68.6098C33.7488 68.6932 33.4842 68.8184 33.0804 68.9575C32.6627 69.0966 32.2311 69.1661 31.7717 69.1661C30.8806 69.1661 30.1287 68.8601 29.53 68.2343C28.9313 67.6223 28.625 66.8434 28.625 65.8976C28.625 64.9519 28.9174 64.173 29.5161 63.561C30.1148 62.949 30.8388 62.6292 31.716 62.6292C32.5514 62.6292 33.2475 62.9073 33.7766 63.4637C34.3057 64.02 34.5702 64.7432 34.5702 65.6612V66.0228H29.3351C29.3629 66.76 29.5996 67.358 30.0591 67.8031C30.5046 68.2482 31.0894 68.4707 31.8273 68.4707ZM29.3908 65.3274H33.7905C33.7627 64.7571 33.5538 64.2843 33.164 63.9226C32.7741 63.561 32.3007 63.3663 31.702 63.3663C31.1033 63.3663 30.5882 63.5471 30.1566 63.9226C29.7389 64.2843 29.4882 64.7571 29.3908 65.3274Z" fill="white"/>
<path d="M36.881 62.8271L36.9366 63.898H36.9923C37.0063 63.8702 37.0341 63.8285 37.0759 63.7728C37.1176 63.7172 37.2012 63.6198 37.3404 63.4668C37.4797 63.3139 37.6328 63.1887 37.7999 63.0913C37.967 62.994 38.1897 62.8827 38.4543 62.7992C38.7188 62.7019 39.0112 62.6602 39.3036 62.6602C40.1251 62.6602 40.8212 62.9661 41.406 63.592C41.9908 64.2179 42.2832 64.9968 42.2832 65.9287C42.2832 66.8605 41.9908 67.6394 41.406 68.2653C40.8212 68.8912 40.1251 69.1972 39.3036 69.1972C38.9973 69.1972 38.7188 69.1554 38.4543 69.072C38.1897 68.9885 37.967 68.8773 37.7999 68.766C37.6328 68.6408 37.4796 68.5296 37.3543 68.4044C37.229 68.2792 37.1316 68.1818 37.0759 68.0845L36.9923 67.9593H36.9366V71.6451H36.2266V62.8549H36.881V62.8271ZM37.605 64.0788C37.1594 64.5517 36.9506 65.1637 36.9506 65.9287C36.9506 66.6936 37.1733 67.3056 37.605 67.7785C38.0505 68.2514 38.5935 68.4878 39.2618 68.4878C39.9301 68.4878 40.4871 68.2514 40.9187 67.7785C41.3642 67.3056 41.5731 66.6936 41.5731 65.9287C41.5731 65.1637 41.3503 64.5517 40.9187 64.0788C40.4731 63.6059 39.9301 63.3695 39.2618 63.3695C38.5935 63.3695 38.0366 63.6059 37.605 64.0788Z" fill="white"/>
<path d="M48.6462 69.0013V66.2057H44.7199V69.0013H44.0098V62.8259H44.7199V65.4964H48.6462V62.8259H49.3563V69.0013H48.6462Z" fill="white"/>
<path d="M54.3 68.4707C54.7038 68.4707 55.0797 68.4012 55.4417 68.2621C55.8037 68.123 56.0543 67.9839 56.2075 67.8448L56.4442 67.6362H56.6252V68.4012C56.5556 68.4568 56.472 68.5263 56.3467 68.6098C56.2214 68.6932 55.9569 68.8184 55.5531 68.9575C55.1354 69.0966 54.7038 69.1661 54.2443 69.1661C53.3532 69.1661 52.6014 68.8601 52.0027 68.2343C51.404 67.6223 51.0977 66.8434 51.0977 65.8976C51.0977 64.9519 51.39 64.173 51.9887 63.561C52.5874 62.949 53.3115 62.6292 54.1886 62.6292C55.024 62.6292 55.7202 62.9073 56.2493 63.4637C56.7783 64.02 57.0429 64.7432 57.0429 65.6612V66.0228H51.7938C51.8217 66.76 52.0584 67.358 52.5178 67.8031C52.9634 68.2482 53.5621 68.4707 54.3 68.4707ZM51.8634 65.3274H56.2632C56.2353 64.7571 56.0265 64.2843 55.6366 63.9226C55.2468 63.561 54.7734 63.3663 54.1747 63.3663C53.576 63.3663 53.0608 63.5471 52.6292 63.9226C52.2115 64.2843 51.947 64.7571 51.8634 65.3274Z" fill="white"/>
<path d="M59.9392 63.5455H57.6836V62.8362H62.9187V63.5455H60.6632V69.0116H59.9531V63.5455H59.9392Z" fill="white"/>
<path d="M63.6836 65.4962V64.7869H67.429V65.4962H63.6836Z" fill="white"/>
<path d="M72.1207 69.0013L70.2132 64.189H70.1575L69.3917 69.0013H68.6816L69.698 62.8259H70.3524L72.3713 67.9304H72.427L74.4459 62.8259H75.1003L76.1167 69.0013H75.4066L74.6408 64.189H74.5851L72.6776 69.0013H72.1207Z" fill="white"/>
<path d="M79.9054 62.6394C80.6433 62.6394 81.242 62.8619 81.6876 63.307C82.1331 63.7521 82.342 64.3641 82.342 65.129V68.9817H81.6876L81.6319 67.8551H81.5762C81.5623 67.8829 81.5344 67.9386 81.4926 67.9942C81.4509 68.0498 81.3673 68.1611 81.242 68.3141C81.1167 68.4671 80.9635 68.5923 80.8243 68.7174C80.6712 68.8287 80.4762 68.94 80.2256 69.0373C79.975 69.1347 79.7105 69.1764 79.432 69.1764C78.8194 69.1764 78.3181 68.9956 77.9283 68.634C77.5384 68.2724 77.3574 67.8273 77.3574 67.2709C77.3574 66.6868 77.5663 66.2278 77.97 65.8523C78.3738 65.4907 78.9308 65.3098 79.6269 65.3098C80.0028 65.3098 80.3509 65.3655 80.6851 65.4767C81.0192 65.588 81.2699 65.6993 81.4091 65.8105L81.6319 65.9635V65.129C81.6319 63.9468 81.061 63.3487 79.9054 63.3487C79.5155 63.3487 79.1257 63.4183 78.7497 63.5713C78.3599 63.7243 78.0814 63.8634 77.8865 64.0164L77.5941 64.2389H77.4688V63.4739C77.5384 63.4044 77.6359 63.3348 77.7751 63.2375C77.9004 63.1401 78.1789 63.0288 78.6105 62.8759C79.0282 62.7229 79.4738 62.6394 79.9054 62.6394ZM79.5016 68.4671C79.7801 68.4671 80.0446 68.4114 80.2952 68.3002C80.5459 68.1889 80.7408 68.0498 80.9079 67.8829C81.061 67.716 81.2002 67.563 81.3116 67.3961C81.4369 67.2292 81.5205 67.104 81.5622 66.9928L81.6458 66.812C81.5901 66.7563 81.5066 66.6868 81.4091 66.6033C81.3116 66.5199 81.0889 66.3947 80.7547 66.2556C80.4205 66.1165 80.0585 66.047 79.6826 66.047C78.6105 66.047 78.0814 66.4642 78.0814 67.2988C78.0814 67.6604 78.2067 67.9525 78.4434 68.1611C78.6801 68.3558 79.0282 68.4671 79.5016 68.4671Z" fill="white"/>
<path d="M84.3047 69.0013V62.8259H88.5235V63.5353H85.0148V69.0013H84.3047Z" fill="white"/>
<path d="M91.6144 62.6394C92.3523 62.6394 92.951 62.8619 93.3965 63.307C93.8421 63.7521 94.0509 64.3641 94.0509 65.129V68.9817H93.3965L93.3408 67.8551H93.2851C93.2712 67.8829 93.2434 67.9386 93.2016 67.9942C93.1598 68.0498 93.0763 68.1611 92.951 68.3141C92.8257 68.4671 92.6725 68.5923 92.5333 68.7174C92.3801 68.8287 92.1852 68.94 91.9346 69.0373C91.684 69.1347 91.4194 69.1764 91.141 69.1764C90.5283 69.1764 90.0271 68.9956 89.6373 68.634C89.2474 68.2724 89.0664 67.8273 89.0664 67.2709C89.0664 66.6868 89.2752 66.2278 89.679 65.8523C90.0828 65.4907 90.6397 65.3098 91.3359 65.3098C91.7118 65.3098 92.0599 65.3655 92.3941 65.4767C92.7282 65.588 92.9788 65.6993 93.1181 65.8105L93.3408 65.9635V65.129C93.3408 63.9468 92.77 63.3487 91.6144 63.3487C91.2245 63.3487 90.8347 63.4183 90.4587 63.5713C90.0689 63.7243 89.7904 63.8634 89.5955 64.0164L89.3031 64.2389H89.1778V63.4739C89.2474 63.4044 89.3449 63.3348 89.4841 63.2375C89.6094 63.1401 89.8879 63.0288 90.3195 62.8759C90.7372 62.7229 91.1688 62.6394 91.6144 62.6394ZM91.1967 68.4671C91.4751 68.4671 91.7397 68.4114 91.9903 68.3002C92.2409 68.1889 92.4358 68.0498 92.6029 67.8829C92.7561 67.716 92.8953 67.563 93.0067 67.3961C93.132 67.2292 93.2155 67.104 93.2573 66.9928L93.3408 66.812C93.2851 66.7563 93.2016 66.6868 93.1041 66.6033C93.0067 66.5199 92.7839 66.3947 92.4497 66.2556C92.1156 66.1165 91.7536 66.047 91.3777 66.047C90.3056 66.047 89.7765 66.4642 89.7765 67.2988C89.7765 67.6604 89.9018 67.9525 90.1385 68.1611C90.3752 68.3558 90.7372 68.4671 91.1967 68.4671Z" fill="white"/>
<path d="M99.466 67.2746C99.466 66.9408 99.3268 66.6626 99.0622 66.454C98.7837 66.2454 98.366 66.148 97.8091 66.148H97.2104V65.4387H97.7395C98.7281 65.4387 99.2293 65.077 99.2293 64.3677C99.2293 63.7001 98.7281 63.3524 97.7395 63.3524C97.4053 63.3524 97.0851 63.4219 96.7927 63.561C96.5003 63.7001 96.2776 63.8392 96.1383 63.9783L95.9434 64.1869H95.7624V63.3524C95.8042 63.2968 95.8877 63.2272 95.9852 63.1438C96.0826 63.0603 96.3054 62.9629 96.6396 62.8239C96.9737 62.6987 97.3357 62.6292 97.7256 62.6292C98.4217 62.6292 98.9508 62.7961 99.3407 63.1159C99.7305 63.4358 99.9255 63.8531 99.9255 64.3538C99.9255 64.5624 99.8837 64.7571 99.8141 64.9241C99.7445 65.091 99.6609 65.23 99.5634 65.3274C99.466 65.4248 99.3685 65.5082 99.2711 65.5638C99.1736 65.6334 99.0901 65.6612 99.0204 65.689L98.9091 65.7307V65.7864C98.9369 65.8003 98.9787 65.8003 99.0344 65.8281C99.0901 65.842 99.1875 65.8837 99.3407 65.9533C99.4938 66.0228 99.6191 66.1063 99.7166 66.2036C99.8141 66.301 99.9254 66.454 100.009 66.6348C100.106 66.8295 100.148 67.0381 100.148 67.2607C100.148 67.817 99.9394 68.276 99.5217 68.6237C99.104 68.9853 98.5192 69.1522 97.7813 69.1522C97.5028 69.1522 97.2383 69.1244 96.9737 69.0688C96.7092 69.0131 96.4864 68.9297 96.3054 68.8462C96.1244 68.7628 95.9712 68.6654 95.8181 68.582C95.6789 68.4846 95.5675 68.4151 95.5118 68.3594L95.4004 68.2621L95.6371 67.6084C95.7067 67.6779 95.7902 67.7475 95.9016 67.8448C96.013 67.9422 96.2636 68.0535 96.6256 68.2064C97.0016 68.3594 97.3775 68.4429 97.7673 68.4429C98.9091 68.4707 99.466 68.0674 99.466 67.2746Z" fill="white"/>
<path d="M106.539 69.0013V63.9525L102.432 69.0013H101.777V62.8259H102.487V67.8747L106.595 62.8259H107.249V69.0013H106.539Z" fill="white"/>
<path d="M113.906 69.0013V66.2057H109.98V69.0013H109.27V62.8259H109.98V65.4964H113.906V62.8259H114.616V69.0013H113.906Z" fill="white"/>
<defs>
<linearGradient id="paint0_linear" x1="0" y1="65.2115" x2="123.735" y2="65.2115" gradientUnits="userSpaceOnUse">
<stop stop-color="#E52B16"/>
<stop offset="1" stop-color="#CE1D17"/>
</linearGradient>
</defs>
</svg>
