<svg width="264" height="91" viewBox="0 0 264 91" fill="none" xmlns="http://www.w3.org/2000/svg">
<g clip-path="url(#clip0)">
<path d="M9.1398 57.0037H7.68582V47.4683H1.86993V57.0037H0.415955V46.2246H9.1398V57.0037Z" fill="#003D73"/>
<path d="M23.8867 46.2246V47.4683H20.3556V57.0037H18.9017V47.4683H15.5783V46.2246H23.8867Z" fill="#003D73"/>
<path d="M39.2577 57.0037H37.8037V48.2975L31.5724 57.0037H30.3261V46.2246H31.5724V54.9308L37.8037 46.2246H39.2577V57.0037Z" fill="#003D73"/>
<path d="M46.735 46.2246H47.9812V55.7599H53.5894V46.2246H55.0434V55.7599H56.2897V59.4911H55.0434V57.0037H46.735V46.2246Z" fill="#003D73"/>
<path d="M62.7281 46.2246H69.5825V47.4683H64.1821V50.785H68.544V52.236H64.1821V55.7599H69.5825V57.0037H62.7281V46.2246Z" fill="#003D73"/>
<path d="M81.4226 55.968C77.8915 55.7607 76.0221 53.8951 76.0221 51.4076C76.0221 48.9201 77.8915 46.8473 81.4226 46.8473V45.6035H82.6688V46.8473C86.1999 47.0545 88.0693 48.9201 88.0693 51.4076C88.0693 53.8951 86.1999 55.968 82.6688 55.968V57.2117H81.4226V55.968ZM81.4226 48.091C78.7223 48.091 77.2684 49.542 77.2684 51.4076C77.2684 53.2732 78.7223 54.7242 81.4226 54.7242V48.091ZM82.6688 54.7242C85.3691 54.7242 86.823 53.2732 86.823 51.4076C86.823 49.542 85.3691 48.091 82.6688 48.091V54.7242Z" fill="#003D73"/>
<path d="M96.1702 54.1038L94.9239 57.0059H93.47L98.455 46.0195H99.7013L104.686 57.0059H103.232L101.986 54.1038H96.1702ZM99.2859 47.8851L97.0011 52.8601H101.571L99.2859 47.8851Z" fill="#003D73"/>
<path d="M112.163 50.1631H114.24C116.11 49.9558 117.979 51.4068 118.187 53.2724C118.395 55.1381 116.941 57.0037 115.071 57.2109C114.864 57.2109 114.656 57.2109 114.24 57.2109H110.709V46.2246H117.148V47.4683H112.163V50.1631ZM112.163 55.7599H114.24C115.487 55.7599 116.525 54.7235 116.525 53.4797C116.525 52.236 115.487 51.1996 114.24 51.1996H112.163V55.7599Z" fill="#003D73"/>
<path d="M126.288 57.2111H124.834V46.2248H128.157C130.234 46.0175 131.896 47.4685 132.104 49.5414C132.312 51.6143 130.858 53.2726 128.78 53.4799C128.573 53.4799 128.365 53.4799 127.95 53.4799H126.08V57.2111H126.288ZM126.288 52.0289H128.157C129.404 52.2362 130.65 51.1997 130.65 49.956C130.858 48.7122 129.819 47.4685 128.573 47.4685C128.365 47.4685 128.365 47.4685 128.157 47.4685H126.288V52.0289Z" fill="#003D73"/>
<path d="M147.89 57.0037H146.644V48.2975L140.412 57.0037H139.166V46.2246H140.412V54.9308L146.644 46.2246H147.89V57.0037Z" fill="#003D73"/>
<path d="M156.821 51.4068L162.222 46.2246H163.883L158.483 51.4068L164.299 57.0037H162.429L156.821 51.4068V57.0037H155.575V46.2246H156.821V51.4068Z" fill="#003D73"/>
<path d="M171.569 54.1038L170.323 57.0059H168.869L173.854 46.0195H175.1L180.085 57.0059H178.631L177.385 54.1038H171.569ZM174.477 47.8851L172.192 52.8601H176.762L174.477 47.8851Z" fill="#003D73"/>
<path d="M12.4626 86.2326C14.7474 86.2326 17.0323 84.9889 18.4862 83.1233H19.1094V88.3055C17.0323 90.1711 14.332 91.2075 11.6318 91.0003C5.19276 91.0003 0 85.818 0 79.392C0 72.9661 5.19276 67.7838 11.6318 67.7838C14.7474 67.5766 17.6554 68.613 19.9402 70.6859L17.8631 75.039C16.4091 73.5879 14.5397 72.7588 12.4626 72.7588C8.72384 72.7588 5.81589 75.6608 5.81589 79.392C5.81589 83.3305 8.72384 86.2326 12.4626 86.2326Z" fill="#003D73"/>
<path d="M25.1334 68.4062H40.5039V73.3812H30.5338V77.1124H38.2191V81.8801H30.5338V85.8186H40.5039V90.5862H25.1334V68.4062Z" fill="#003D73"/>
<path d="M54.0052 68.4062C59.8211 68.4062 62.3136 70.8937 62.3136 74.4176C62.3136 76.4905 60.8596 78.3561 58.9902 78.7707V78.978C61.4827 79.5999 63.3521 81.8801 63.3521 84.3675C63.3521 88.0987 60.8596 90.5862 54.836 90.5862H46.5276V68.4062H54.0052ZM51.9281 72.9666V76.9051H54.0052C55.4591 76.9051 56.4977 76.076 56.4977 75.0395C56.4977 74.0031 55.6668 72.9666 54.0052 72.9666H51.9281ZM51.9281 86.0258H54.6283C56.4977 86.0258 57.5362 85.1967 57.5362 83.7457C57.5362 82.2946 56.4977 81.4655 54.6283 81.4655H51.9281V86.0258Z" fill="#003D73"/>
<path d="M68.544 68.4062H83.9146V73.3812H73.9445V77.1124H81.6298V81.8801H73.9445V85.8186H83.9146V90.5862H68.544V68.4062Z" fill="#003D73"/>
<path d="M95.3388 90.5862H89.9383V68.4062H97.2082C103.024 68.4062 106.347 71.7229 106.347 76.4905C106.347 81.2582 103.024 84.5748 97.2082 84.5748H95.3388V90.5862ZM95.3388 79.5999H97.2082C99.0776 79.8072 100.532 78.5634 100.739 76.6978C100.947 74.8322 99.7007 73.3812 97.8313 73.1739C97.6236 73.1739 97.4159 73.1739 97.0005 73.1739H95.1311V79.5999H95.3388Z" fill="#003D73"/>
<path d="M131.481 90.5862H126.08V81.8801H117.356V90.5862H111.956V68.4062H117.356V77.1124H126.08V68.4062H131.481V90.5862Z" fill="#003D73"/>
<path d="M142.905 86.4404L141.035 90.5862H135.22L145.397 68.4062H149.759L159.937 90.5862H154.121L152.252 86.4404H142.905ZM147.682 75.6614L144.982 81.6728H150.59L147.682 75.6614Z" fill="#003D73"/>
<path d="M167.207 82.5019C164.922 81.2582 163.468 78.7707 163.468 76.076C163.468 71.7229 166.791 68.4062 172.607 68.4062H179.877V90.5862H174.477V83.953H172.4L168.038 90.5862H162.014L167.207 82.5019ZM174.477 73.3812H172.607C170.322 73.3812 169.076 74.4176 169.076 76.4905C169.076 78.5634 170.322 79.5999 172.607 79.5999H174.477V73.3812Z" fill="#003D73"/>
<path d="M222.873 19.692C222.873 20.9358 221.834 21.7649 220.796 21.7649C219.757 21.7649 218.719 20.7285 218.719 19.692C218.719 18.6556 219.757 17.6191 220.796 17.6191C221.834 17.6191 222.873 18.4483 222.873 19.692Z" fill="#003D73"/>
<path d="M241.775 56.7984C241.775 60.115 239.49 63.017 236.374 63.8462L233.051 49.5432C233.466 49.3359 234.089 49.3359 234.505 49.3359C238.451 49.5432 241.775 52.8599 241.775 56.7984Z" fill="#003D73"/>
<path d="M253.199 72.7577C253.199 72.5504 253.199 72.1359 253.199 71.9286C253.199 71.514 253.199 71.0994 253.199 70.6848C253.407 68.6119 254.238 66.5391 255.692 64.8807C255.899 64.6734 256.73 63.8443 256.938 63.637C266.493 54.1017 266.493 38.7623 256.938 29.227C249.045 21.35 236.79 19.899 227.028 25.4958L230.143 38.3477C238.244 35.0311 247.383 38.7623 250.707 46.8466C254.03 54.9309 250.291 64.0516 242.19 67.3682C240.736 67.9901 239.075 68.4047 237.413 68.6119L237.828 70.6848L239.075 75.6598C239.075 75.8671 239.075 75.8671 239.075 76.0744C238.036 76.0744 236.998 76.2816 236.167 76.2816C219.135 76.2816 205.218 62.6006 205.01 45.6028C205.426 45.6028 205.633 45.6028 206.049 45.6028C212.072 44.5664 216.85 40.2133 218.096 34.2019C219.135 29.8488 218.096 25.2885 215.188 21.7646V15.5459H230.143C234.505 15.5459 238.036 12.022 238.036 7.66889C237.828 3.31581 234.297 -0.000814289 230.143 0.206475C226.197 0.413764 223.081 3.31581 222.666 7.25431C220.173 4.35226 215.811 4.14497 212.903 6.63244C210.411 8.91263 209.788 12.6438 211.657 15.5459H203.349L212.696 22.5937L208.334 26.5322L208.126 26.7395C207.295 27.5687 206.88 28.3978 206.88 29.6416C206.88 31.9217 208.749 33.7873 211.034 33.7873C211.657 33.7873 212.072 33.5801 212.696 33.3728C212.488 37.7258 209.164 41.2498 204.803 41.6643C204.595 41.6643 204.179 41.6643 203.972 41.6643C202.933 41.6643 201.895 41.457 200.856 41.0425C197.325 39.7987 195.04 36.4821 195.248 32.7509C195.248 32.129 195.248 31.7145 195.456 31.0926C194.002 32.9582 192.755 35.2384 191.924 37.5186L191.717 37.9331C190.886 40.6279 190.263 43.3227 190.263 46.0174C190.055 59.0766 200.025 69.8557 213.111 70.6848C216.019 72.965 219.135 75.0379 222.458 76.2816L219.135 86.4388C218.927 87.0607 218.511 87.268 217.888 87.4753L211.034 88.719C210.411 88.719 210.203 89.3409 209.995 89.7555V90.7919H228.481L228.274 89.3409C228.274 88.9263 227.858 88.5117 227.443 88.5117L223.912 87.4753C223.496 87.268 223.081 86.8534 223.081 86.4388L225.781 77.3181C228.481 78.1473 231.389 78.5618 234.297 78.5618H236.375L237.205 86.2315C237.205 86.8534 236.79 87.4753 236.167 87.6826L232.428 88.5117C231.597 88.719 231.389 89.7555 231.389 90.7919H249.876C249.876 89.7555 249.876 88.719 249.045 88.5117L242.606 87.4753C241.567 87.4753 240.736 86.6461 240.736 85.6097L240.113 78.3545C241.152 80.0129 243.021 80.842 244.891 80.842C245.721 80.842 246.552 80.6347 247.175 80.4274C248.837 81.6712 250.707 82.293 252.576 82.293C254.445 82.293 256.315 81.6712 257.769 80.6347C255.276 79.1837 253.407 76.0744 253.199 72.7577ZM194.417 46.2247C194.417 44.981 194.625 43.7372 194.625 42.2862C196.494 43.7372 198.571 44.5664 201.064 44.981C201.064 53.4798 204.595 61.7714 210.411 67.9901C200.856 65.088 194.417 56.1746 194.417 46.2247Z" fill="#003D73"/>
<path d="M188.602 26.5342C188.602 26.9488 188.186 27.3634 187.771 27.3634V26.5342C187.771 26.1197 188.186 25.7051 188.602 25.7051V26.5342Z" fill="#003D73"/>
<path d="M191.509 9.12109C185.486 9.12109 180.708 13.8887 180.708 19.9001C180.708 25.9115 185.486 30.6792 191.509 30.6792C197.533 30.6792 202.31 25.9115 202.31 19.9001C202.31 14.096 197.533 9.12109 191.509 9.12109Z" fill="#003D73"/>
<path d="M186.317 26.7392L185.486 25.9101V22.8007H184.032C182.785 22.8007 181.955 21.9716 181.955 20.7279V20.106C181.955 19.8987 182.162 19.6914 182.37 19.6914H186.317L188.186 22.3862V24.6663L187.147 25.7028V26.7392H186.317Z" fill="white"/>
<path d="M192.755 20.522C192.34 20.522 192.132 20.3148 192.132 20.1075V19.9002L191.509 19.4856H190.262L189.016 20.9366L187.77 19.071H189.224V18.8637C189.224 18.4491 188.808 18.0346 188.393 18.0346L186.939 18.4491H186.524V17.8273C186.524 17.2054 186.108 16.7908 185.485 16.7908H185.277L184.862 16.169L185.277 15.9617L185.9 16.169L186.108 15.3398L185.277 15.1325C185.277 14.3034 186.108 13.6815 186.939 13.6815C187.354 13.6815 187.978 13.8888 188.185 14.3034L188.393 14.5107L189.847 13.2669L191.093 13.4742L192.132 13.2669C192.339 12.645 192.755 12.2305 193.378 12.2305V13.2669L196.078 12.645L197.325 13.6815L196.078 14.0961L197.325 15.1325V14.7179C197.74 14.9252 198.155 15.3398 198.363 15.7544V16.3763H197.74V17.4127L198.986 18.4491C198.986 19.2783 198.363 20.1075 197.532 20.3148L197.117 20.522L198.363 21.7658C198.363 21.9731 198.155 22.1804 197.948 22.1804L197.117 21.3512L196.078 20.3148H194.832V20.522C194.624 20.9366 194.417 21.3512 194.001 21.3512H193.793V21.9731C193.793 22.1804 193.793 22.3876 193.586 22.3876L192.755 20.522ZM183.616 17.2054H184.654C184.447 17.62 184.239 18.0346 183.616 18.2419V17.2054Z" fill="white"/>
<path d="M197.74 25.0827C197.948 24.0462 198.987 23.2171 200.027 23.0098L199.195 25.0827H197.74Z" fill="white"/>
</g>
<defs>
<clipPath id="clip0">
<rect width="264" height="91" fill="white"/>
</clipPath>
</defs>
</svg>
