<svg width="18" height="24" viewBox="0 0 18 24" fill="none" xmlns="http://www.w3.org/2000/svg">
<path d="M8.83517 0C3.96369 0 0 3.96369 0 8.83566C0 10.1065 0.260103 11.3198 0.772697 12.4422C2.98173 17.2761 7.21708 22.3797 8.46282 23.8286C8.55616 23.9369 8.69222 23.9993 8.83542 23.9993C8.97861 23.9993 9.11468 23.9369 9.20801 23.8286C10.4533 22.38 14.6886 17.2766 16.8984 12.4422C17.4112 11.3198 17.6711 10.1065 17.6711 8.83566C17.6706 3.96369 13.7069 0 8.83517 0Z" fill="#163E6D"/>
<path d="M8.27282 5.94332C8.3728 5.94332 8.45384 5.86244 8.45384 5.76267C8.45384 5.66291 8.3728 5.58203 8.27282 5.58203C8.17284 5.58203 8.0918 5.66291 8.0918 5.76267C8.0918 5.86244 8.17284 5.94332 8.27282 5.94332Z" fill="white"/>
<path d="M10.0456 8.8928C10.0456 9.17857 9.85127 9.41844 9.58715 9.48803L9.30078 8.29165C9.34233 8.28276 9.38536 8.27832 9.42987 8.27832C9.76966 8.27832 10.0456 8.55225 10.0456 8.8928Z" fill="white"/>
<path d="M10.9944 10.2265C10.9915 10.2013 10.9915 10.1747 10.9915 10.148C10.9915 10.1155 10.9929 10.0829 10.9959 10.0518C11.0152 9.86522 11.0909 9.69346 11.2066 9.55723C11.2185 9.54391 11.2897 9.46987 11.3149 9.44766C11.6859 9.07749 11.9159 8.56666 11.9159 8.00252C11.9159 6.87276 10.9989 5.9577 9.86674 5.9577C9.48095 5.9577 9.11891 6.06431 8.81176 6.2494L9.06994 7.32733C9.22574 7.26218 9.39786 7.22665 9.5774 7.22665C10.3074 7.22665 10.8995 7.81744 10.8995 8.54593C10.8995 9.24037 10.3608 9.81043 9.6783 9.86077L9.72133 10.0429L9.82371 10.4693L9.82519 10.4738C9.82816 10.4856 9.83113 10.496 9.83113 10.5093C9.74952 10.5167 9.66643 10.5212 9.58185 10.5212C8.13664 10.5212 6.96444 9.35882 6.95109 7.92108C6.98225 7.9196 7.01341 7.91812 7.04308 7.9122C7.50899 7.83224 7.96452 7.45911 8.06393 6.95864C8.06393 6.95716 8.06393 6.95716 8.06393 6.95716C8.08619 6.86536 8.09806 6.7706 8.09806 6.67287C8.09806 6.53369 8.07432 6.39895 8.0298 6.27457C7.98974 6.16352 7.9111 6.0036 7.8191 5.9044V5.40985H9.08181C9.44534 5.40985 9.75249 5.11224 9.74507 4.74947C9.73913 4.39707 9.44979 4.11426 9.09665 4.11426C8.75686 4.11426 8.47791 4.37486 8.44972 4.70801C8.3325 4.56735 8.15147 4.48295 7.95116 4.50072C7.67518 4.52589 7.45112 4.74947 7.42738 5.02636C7.41551 5.16998 7.45558 5.30324 7.53125 5.40985H6.84128L7.6366 5.99472L7.26565 6.32195C7.25971 6.32639 7.25378 6.33232 7.24784 6.33676L7.24191 6.34268C7.17662 6.40635 7.13656 6.49371 7.13656 6.59143C7.13656 6.78392 7.29236 6.93939 7.48525 6.93939C7.5357 6.93939 7.58318 6.92903 7.62621 6.90978C7.61286 7.27699 7.32797 7.57609 6.96741 7.61458C6.94367 7.61754 6.91993 7.61903 6.89619 7.61903H6.88877C6.79677 7.61903 6.70923 7.60274 6.6291 7.57164C6.34867 7.46652 6.14984 7.19703 6.14984 6.88165C6.14984 6.83427 6.15429 6.78836 6.16319 6.74246C6.03855 6.90238 5.93765 7.08302 5.86495 7.27699C5.85901 7.2918 5.85456 7.3066 5.84863 7.32141C5.77444 7.53315 5.73438 7.76117 5.73438 7.99956C5.73438 9.0923 6.58607 9.98663 7.66331 10.0562C7.89923 10.2532 8.16631 10.4145 8.45714 10.5286L8.1767 11.3918C8.15444 11.4377 8.11438 11.4703 8.07283 11.4792L7.4897 11.5858C7.44519 11.5932 7.41106 11.6331 7.41106 11.679V11.7738H8.95866L8.94085 11.6583C8.93492 11.6228 8.91118 11.5946 8.87705 11.5828L8.58623 11.4895C8.54616 11.4762 8.51946 11.4392 8.52094 11.3977L8.74202 10.6292C8.96905 10.6929 9.20794 10.7299 9.45276 10.7359C9.47502 10.7359 9.49728 10.7373 9.51953 10.7373H9.52398C9.55811 10.7373 9.59075 10.7373 9.62191 10.7359L9.6872 11.3859C9.68869 11.4421 9.65159 11.4925 9.59817 11.5088L9.28213 11.5843C9.2109 11.605 9.18865 11.6805 9.18865 11.7753H10.7362C10.7362 11.6879 10.7407 11.6021 10.665 11.5902L10.119 11.5088C10.024 11.494 9.97654 11.4421 9.96912 11.3459L9.91125 10.7299C9.99731 10.8602 10.1442 10.9461 10.3119 10.9461C10.3831 10.9461 10.4514 10.9298 10.5122 10.9017C10.6398 10.9979 10.8 11.0542 10.9722 11.0542C11.1324 11.0542 11.2823 11.0053 11.4054 10.9209C11.1769 10.7669 11.0182 10.5152 10.9944 10.2265ZM6.06081 8.00104C6.06081 7.85593 6.08603 7.67825 6.08603 7.67825C6.08603 7.67825 6.28783 7.84705 6.62168 7.90628C6.63355 8.65846 6.92734 9.32773 7.41106 9.8356C6.6291 9.58981 6.06081 8.86132 6.06081 8.00104Z" fill="white"/>
<path d="M5.80659 4.88867C5.3021 4.88867 4.89258 5.29734 4.89258 5.80077C4.89258 6.3042 5.3021 6.71287 5.80659 6.71287C6.31108 6.71287 6.72061 6.3042 6.72061 5.80077C6.72209 5.29734 6.31257 4.88867 5.80659 4.88867ZM6.57075 5.70305L6.58559 5.7682C6.593 5.80373 6.57075 5.83927 6.53514 5.84667L6.5203 5.78152C6.51288 5.74599 6.53514 5.71045 6.57075 5.70305ZM6.54107 5.94292C6.5114 5.96957 6.48172 5.96661 6.46391 5.94588L6.37489 5.84667C6.40456 5.82002 6.43424 5.82298 6.45204 5.84371L6.54107 5.94292ZM5.77543 5.14927L5.84814 5.07672C5.86891 5.09745 5.86743 5.11966 5.85259 5.13446L5.77989 5.20702C5.75763 5.18629 5.7606 5.16408 5.77543 5.14927ZM5.57215 6.3427C5.57215 6.3812 5.541 6.41229 5.50242 6.41229V6.3427C5.50242 6.3042 5.53358 6.27311 5.57215 6.27311V6.3427ZM5.5588 6.02583V6.19167L5.46532 6.28495V6.38564H5.37333L5.28133 6.29384V6.06285H5.18192C5.0736 6.06285 4.98606 5.97549 4.98606 5.8674V5.80521C4.98606 5.76968 5.01573 5.74006 5.05134 5.74006H5.39262L5.56177 5.96364H5.62112C5.61964 5.9977 5.59293 6.02583 5.5588 6.02583ZM6.23393 5.98141V5.92811C6.23393 5.91478 6.23838 5.90294 6.2458 5.89405L6.18645 5.83483H6.10632C6.09445 5.87777 6.06181 5.91182 6.01878 5.92515V5.96513C6.01878 6.00214 5.9891 6.03176 5.95201 6.03176L5.90452 5.86888C5.86743 5.86888 5.83775 5.83927 5.83775 5.80225L5.80214 5.77856H5.7235L5.59293 5.90886L5.42971 5.69268H5.58551C5.58551 5.66455 5.56177 5.64086 5.53358 5.64086L5.42971 5.69268H5.36146V5.60384C5.36146 5.56682 5.33178 5.53573 5.2932 5.53573H5.26501C5.26501 5.60976 5.20417 5.67047 5.12998 5.67047V5.53573H5.25759L5.21753 5.45281H5.15669C5.15669 5.41579 5.18637 5.38618 5.22346 5.38618V5.44837L5.27985 5.40987L5.31843 5.42172L5.32585 5.40099L5.25759 5.3773C5.25759 5.28994 5.32881 5.21886 5.41636 5.21886C5.46829 5.21886 5.51429 5.24403 5.54248 5.28253L5.65673 5.18481L5.78434 5.22923L5.84814 5.21738C5.8704 5.15075 5.93272 5.10337 6.00691 5.10337V5.18629L6.2176 5.14483L6.37785 5.26328L6.2636 5.3003L6.28438 5.32103V5.31807C6.35857 5.31807 6.4194 5.37878 6.4194 5.45281H6.41643V5.47502L6.45798 5.51648C6.48172 5.54017 6.48172 5.58015 6.45798 5.60384L6.41347 5.55942C6.39863 5.54461 6.39269 5.52388 6.39566 5.50463H6.36005V5.54905L6.4565 5.6379C6.4565 5.7297 6.39714 5.80817 6.31554 5.83631L6.39863 5.91626C6.39863 5.95328 6.36895 5.98289 6.33186 5.98289L6.28438 5.93551C6.28438 5.96068 6.26212 5.98141 6.23393 5.98141ZM6.4832 6.25386L6.30367 6.2509C6.33779 6.10579 6.4565 6.00955 6.5663 6.03472L6.4832 6.25386Z" fill="white"/>
</svg>
