<svg width="24" height="23" viewBox="0 0 24 23" fill="none" xmlns="http://www.w3.org/2000/svg">
<path d="M12.1602 22.6875C18.2891 22.6875 23.3398 17.625 23.3398 11.5078C23.3398 5.37891 18.2773 0.316406 12.1602 0.316406C6.03125 0.316406 0.980469 5.37891 0.980469 11.5078C0.980469 17.625 6.04297 22.6875 12.1602 22.6875ZM12.1602 21.0703C6.86328 21.0703 2.59766 16.8047 2.59766 11.5078C2.59766 6.19922 6.85156 1.93359 12.1602 1.93359C17.457 1.93359 21.7227 6.19922 21.7344 11.5078C21.7461 16.8047 17.4688 21.0703 12.1602 21.0703ZM12.1602 11.2031C13.7305 11.2148 14.9844 9.87891 14.9844 8.10938C14.9844 6.45703 13.7305 5.07422 12.1602 5.07422C10.5781 5.07422 9.32422 6.45703 9.32422 8.10938C9.32422 9.87891 10.5781 11.2031 12.1602 11.2031ZM7.03906 17.1562H17.2695C17.668 17.1562 17.8555 16.8867 17.8555 16.5234C17.8555 15.3047 16.0273 12.1055 12.1602 12.1055C8.28125 12.1055 6.46484 15.3047 6.46484 16.5234C6.46484 16.8867 6.64062 17.1562 7.03906 17.1562Z" fill="white"/>
</svg>
