<svg width="13" height="11" viewBox="0 0 13 11" fill="none" xmlns="http://www.w3.org/2000/svg">
<path d="M0.647461 5.33105C0.647461 5.50195 0.722656 5.66602 0.859375 5.7959L5.14551 10.0752C5.28223 10.2051 5.43262 10.2666 5.59668 10.2666C5.94531 10.2666 6.20508 10.0137 6.20508 9.66504C6.20508 9.49414 6.14355 9.33691 6.03418 9.22754L4.58496 7.75098L2.5 5.85742L4.05176 5.95312H12.1113C12.4805 5.95312 12.7334 5.69336 12.7334 5.33105C12.7334 4.96191 12.4805 4.70215 12.1113 4.70215H4.05176L2.50684 4.79785L4.58496 2.9043L6.03418 1.42773C6.14355 1.31836 6.20508 1.16113 6.20508 0.990234C6.20508 0.641602 5.94531 0.388672 5.59668 0.388672C5.43262 0.388672 5.28223 0.450195 5.13184 0.59375L0.859375 4.85938C0.722656 4.98926 0.647461 5.15332 0.647461 5.33105Z" fill="white"/>
</svg>
