<svg width="36" height="25" viewBox="0 0 36 25" fill="none" xmlns="http://www.w3.org/2000/svg">
<path d="M1.61273 5.91436L4.83854 1.61328H17.7418L20.9676 5.91436M1.61273 5.91436V20.9681C1.61273 21.5385 1.83931 22.0855 2.24261 22.4888C2.64591 22.8921 3.19291 23.1187 3.76327 23.1187H18.817C19.3874 23.1187 19.9344 22.8921 20.3377 22.4888C20.741 22.0855 20.9676 21.5385 20.9676 20.9681V5.91436M1.61273 5.91436H20.9676M15.5909 10.2152C15.5909 11.3559 15.1377 12.4499 14.3311 13.2565C13.5245 14.0631 12.4305 14.5163 11.2898 14.5163C10.1491 14.5163 9.0551 14.0631 8.2485 13.2565C7.44189 12.4499 6.98874 11.3559 6.98874 10.2152M30.6448 8.60219V12.3639M30.6448 12.3639V16.1291M30.6448 12.3639H26.8817M30.6448 12.3639H34.4085" stroke="#333333" stroke-width="2.01613" stroke-linecap="round" stroke-linejoin="round"/>
</svg>
