<svg width="25" height="26" viewBox="0 0 25 26" fill="none" xmlns="http://www.w3.org/2000/svg">
<path d="M20.8633 4.94531H18.9648C18.9062 2.70703 16.9961 0.75 14.5 0.75C11.9922 0.75 10.082 2.70703 10.0352 4.94531H8.13672C5.91016 4.94531 4.78516 6.05859 4.78516 8.25V12.7852C5.03125 12.75 5.28906 12.7383 5.54688 12.7383C5.80469 12.7383 6.0625 12.75 6.32031 12.7852V8.33203C6.32031 7.11328 6.96484 6.46875 8.16016 6.46875H20.8281C22 6.46875 22.6797 7.11328 22.6797 8.33203V19.7227C22.6797 20.9531 22 21.5859 21.0977 21.5859H12.168C12.0391 22.125 11.8164 22.6406 11.5469 23.1094H21.1211C23.0898 23.1094 24.2031 21.9961 24.2031 19.8047V8.25C24.2031 6.07031 23.0781 4.94531 20.8633 4.94531ZM14.5 2.20312C16.1875 2.20312 17.3828 3.46875 17.4297 4.94531H11.5586C11.6055 3.46875 12.8008 2.20312 14.5 2.20312ZM5.54688 25.207C8.57031 25.207 11.1016 22.6992 11.1016 19.6641C11.1016 16.6172 8.59375 14.1094 5.54688 14.1094C2.51172 14.1094 0.00390625 16.6172 0.00390625 19.6641C0.00390625 22.7109 2.51172 25.207 5.54688 25.207ZM2.04297 19.6641C2.04297 19.2773 2.30078 19.0312 2.67578 19.0312H4.92578V16.7812C4.92578 16.418 5.17188 16.1602 5.54688 16.1602C5.93359 16.1602 6.17969 16.418 6.17969 16.7812V19.0312H8.42969C8.79297 19.0312 9.05078 19.2773 9.05078 19.6641C9.05078 20.0391 8.79297 20.2852 8.42969 20.2852H6.17969V22.5352C6.17969 22.9102 5.93359 23.168 5.54688 23.168C5.17188 23.168 4.92578 22.9102 4.92578 22.5352V20.2852H2.67578C2.30078 20.2852 2.04297 20.0391 2.04297 19.6641Z" fill="#003D73"/>
</svg>
