<svg width="23" height="23" viewBox="0 0 23 23" fill="none" xmlns="http://www.w3.org/2000/svg">
<path d="M11.4883 22.6992C17.6172 22.6992 22.668 17.6367 22.668 11.5195C22.668 5.40234 17.6055 0.339844 11.4883 0.339844C5.35938 0.339844 0.308594 5.40234 0.308594 11.5195C0.308594 17.6367 5.37109 22.6992 11.4883 22.6992ZM4.45703 7.00781C4.45703 6.69141 4.66797 6.46875 4.98438 6.46875H7.01172C7.46875 6.46875 7.83203 6.76172 7.89062 7.19531L8.00781 8.05078H17.3945C17.6992 8.05078 17.875 8.22656 17.875 8.49609C17.875 8.53125 17.8633 8.625 17.8516 8.68359L17.3711 11.8711C17.2656 12.668 16.8555 13.1484 16.0352 13.1484H8.75781L8.82812 13.7227C8.875 14.0977 9.09766 14.2852 9.48438 14.2852H15.8477C16.1523 14.2852 16.3633 14.4961 16.3633 14.8125C16.3633 15.1406 16.1523 15.3516 15.8477 15.3516H9.4375C8.46484 15.3516 7.92578 14.8945 7.79688 14.0508L6.85938 7.53516H4.98438C4.66797 7.53516 4.45703 7.32422 4.45703 7.00781ZM8.74609 17.1562C8.74609 16.5938 9.17969 16.1602 9.74219 16.1602C10.293 16.1602 10.7383 16.5938 10.7383 17.1562C10.7383 17.707 10.293 18.1406 9.74219 18.1406C9.17969 18.1406 8.74609 17.707 8.74609 17.1562ZM13.8906 17.1562C13.8906 16.5938 14.3477 16.1602 14.8984 16.1602C15.4609 16.1602 15.8945 16.5938 15.8945 17.1562C15.8945 17.707 15.4609 18.1406 14.8984 18.1406C14.3477 18.1406 13.8906 17.707 13.8906 17.1562Z" fill="white"/>
</svg>
