<svg width="14" height="14" viewBox="0 0 14 14" fill="none" xmlns="http://www.w3.org/2000/svg">
<path d="M0.408203 11.998C0.0302734 12.3848 0.0126953 13.0703 0.416992 13.4658C0.821289 13.8613 1.49805 13.8525 1.88477 13.4746L6.87695 8.48242L11.8604 13.4746C12.2559 13.8613 12.9326 13.8701 13.3281 13.4658C13.7236 13.0615 13.7324 12.3936 13.3369 11.998L8.34473 7.00586L13.3369 2.02246C13.7324 1.62695 13.7324 0.950195 13.3281 0.554688C12.9238 0.15918 12.2559 0.15918 11.8604 0.545898L6.87695 5.53809L1.88477 0.545898C1.49805 0.167969 0.8125 0.150391 0.416992 0.554688C0.0214844 0.958984 0.0302734 1.63574 0.408203 2.01367L5.40039 7.00586L0.408203 11.998Z" fill="#003D73"/>
</svg>
