<svg width="13" height="12" viewBox="0 0 13 12" fill="none" xmlns="http://www.w3.org/2000/svg">
<path d="M6.9375 11.9453C10.2012 11.9453 12.8789 9.26758 12.8789 6.00391C12.8789 2.73438 10.2012 0.0566406 6.93164 0.0566406C3.66797 0.0566406 0.990234 2.73438 0.990234 6.00391C0.990234 9.26758 3.66797 11.9453 6.9375 11.9453ZM5.21484 8.42383C4.81641 8.42383 4.50586 8.11328 4.50586 7.70898C4.50586 7.52734 4.58203 7.35156 4.72266 7.2168L5.92383 6.00977L4.72266 4.80273C4.58203 4.66797 4.50586 4.48633 4.50586 4.31055C4.50586 3.90625 4.81641 3.5957 5.21484 3.5957C5.43164 3.5957 5.60156 3.66602 5.74219 3.80664L6.93164 4.99609L8.13281 3.80664C8.2793 3.66016 8.44336 3.5957 8.66016 3.5957C9.05859 3.5957 9.36914 3.90039 9.36914 4.31055C9.36914 4.48633 9.29297 4.66211 9.15234 4.79688L7.95703 6.00977L9.15234 7.2168C9.29297 7.35156 9.36914 7.52734 9.36914 7.70898C9.36914 8.11328 9.05859 8.42383 8.6543 8.42383C8.4375 8.42383 8.26758 8.35352 8.12695 8.21289L6.93164 7.0293L5.74805 8.21289C5.60156 8.35938 5.43164 8.42383 5.21484 8.42383Z" fill="#828282"/>
</svg>
