<svg width="24" height="24" viewBox="0 0 24 24" fill="none" xmlns="http://www.w3.org/2000/svg">
<path d="M11.8945 23.7656C18.4219 23.7656 23.7773 18.4102 23.7773 11.8828C23.7773 5.34375 18.4219 0 11.8828 0C5.35547 0 0 5.34375 0 11.8828C0 18.4102 5.35547 23.7656 11.8945 23.7656ZM16.3477 9.10547L14.5312 7.30078L15.3516 6.45703C15.8203 5.97656 16.4414 5.96484 16.8984 6.42188L17.2266 6.73828C17.6719 7.18359 17.6719 7.81641 17.1914 8.29688L16.3477 9.10547ZM8.64844 16.8047L7.04297 17.4141C6.52734 17.6133 6 17.1211 6.21094 16.582L6.83203 14.9883L13.8047 7.99219L15.6445 9.83203L8.64844 16.8047Z" fill="#003D73"/>
</svg>
