<svg width="16" height="16" viewBox="0 0 16 16" fill="none" xmlns="http://www.w3.org/2000/svg">
<path d="M5.5975 15.3577H10.4025C11.4119 15.3577 11.9208 15.0323 12.4463 14.4484L15.341 11.2367C15.8665 10.6444 16 10.2607 16 9.45985V5.90615C16 5.10532 15.8665 4.72158 15.341 4.1293L12.4463 0.90928C11.9208 0.333681 11.4119 0 10.4025 0H5.5975C4.59645 0 4.08759 0.333681 3.56204 0.90928L0.667362 4.1293C0.141814 4.72158 0 5.10532 0 5.90615V9.45985C0 10.2607 0.141814 10.6444 0.667362 11.2367L3.56204 14.4484C4.08759 15.0323 4.59645 15.3577 5.5975 15.3577ZM6.00626 13.9979C5.23879 13.9979 5.00521 13.8311 4.57143 13.3556L1.93535 10.4442C1.61835 10.0938 1.55162 9.89364 1.55162 9.3097V6.04797C1.55162 5.47237 1.61835 5.27216 1.93535 4.92179L4.57143 2.00209C5.00521 1.53493 5.23879 1.35975 6.00626 1.35975H9.99374C10.7696 1.35975 11.0031 1.53493 11.4369 2.00209L14.073 4.92179C14.3816 5.27216 14.4567 5.47237 14.4567 6.04797V9.3097C14.4567 9.89364 14.3816 10.0938 14.073 10.4442L11.4369 13.3556C11.0031 13.8311 10.7696 13.9979 9.99374 13.9979H6.00626ZM5.35558 11.0115C5.5391 11.0115 5.70594 10.9364 5.83107 10.8113L8.00834 8.61731L10.194 10.8113C10.3191 10.9281 10.4776 11.0115 10.6694 11.0115C11.0365 11.0115 11.3285 10.7112 11.3285 10.3441C11.3285 10.1522 11.2617 10.0021 11.1283 9.87696L8.95099 7.69135L11.1366 5.48905C11.2784 5.35558 11.3368 5.20542 11.3368 5.03024C11.3368 4.66319 11.0448 4.37122 10.6778 4.37122C10.5026 4.37122 10.3525 4.42961 10.219 4.57143L8.00834 6.76538L5.81439 4.57977C5.68926 4.4463 5.5391 4.3879 5.35558 4.3879C4.98853 4.3879 4.68822 4.67153 4.68822 5.03858C4.68822 5.21376 4.7633 5.37226 4.88843 5.49739L7.07404 7.69135L4.88843 9.8853C4.7633 10.0021 4.68822 10.1606 4.68822 10.3441C4.68822 10.7112 4.98853 11.0115 5.35558 11.0115Z" fill="#EB5757"/>
</svg>
