<svg width="22" height="17" viewBox="0 0 22 17" fill="none" xmlns="http://www.w3.org/2000/svg">
<path d="M3.20898 16.3286H18.6924C20.374 16.3286 21.3071 15.3853 21.3071 13.5908V2.896C21.3071 1.11182 20.3638 0.168457 18.5591 0.168457H3.07568C1.4043 0.168457 0.471191 1.09131 0.471191 2.896V13.5908C0.471191 15.3955 1.4043 16.3286 3.20898 16.3286ZM9.74072 9.01758L2.02979 1.43994C2.31689 1.22461 2.7168 1.12207 3.19873 1.12207H18.5693C19.082 1.12207 19.4922 1.24512 19.7896 1.49121L12.1196 9.01758C11.7095 9.42773 11.2993 9.5918 10.9302 9.5918C10.5713 9.5918 10.1406 9.41748 9.74072 9.01758ZM1.4248 13.5806V2.90625C1.4248 2.66016 1.44531 2.44482 1.49658 2.25L7.73096 8.33057L1.52734 14.3291C1.45557 14.1138 1.4248 13.8677 1.4248 13.5806ZM20.3535 2.90625V13.5806C20.3535 13.8369 20.3228 14.0625 20.2612 14.2573L14.1396 8.33057L20.2817 2.32178C20.333 2.49609 20.3535 2.69092 20.3535 2.90625ZM3.19873 15.375C2.74756 15.375 2.37842 15.2827 2.10156 15.0981L8.39746 8.98682L9.15625 9.7251C9.76123 10.3198 10.3662 10.5454 10.9302 10.5454C11.5044 10.5454 12.0991 10.3198 12.7041 9.7251L13.4731 8.98682L19.728 15.0469C19.4307 15.2622 19.041 15.375 18.5693 15.375H3.19873Z" fill="#003D73"/>
</svg>
