<svg width="24" height="25" viewBox="0 0 24 25" fill="none" xmlns="http://www.w3.org/2000/svg">
<path d="M12.3408 22.8359C17.6113 22.8359 21.9487 18.4985 21.9487 13.228C21.9487 7.95752 17.6113 3.60986 12.3408 3.60986C7.07031 3.60986 2.73291 7.95752 2.73291 13.228C2.73291 18.4985 7.07031 22.8359 12.3408 22.8359ZM12.3408 21.8003C7.59326 21.8003 3.76855 17.9653 3.76855 13.228C3.76855 8.48047 7.59326 4.64551 12.3408 4.64551C17.0884 4.64551 20.9233 8.48047 20.9233 13.228C20.9233 17.9653 17.0884 21.8003 12.3408 21.8003ZM9.79785 15.5864C12.0127 17.8013 15.0273 19.3188 16.791 17.5654C16.8423 17.5142 16.8628 17.4731 16.8936 17.4321C17.4473 16.8579 17.5396 16.2632 17.0781 15.853C16.8115 15.6377 16.4937 15.4224 15.2119 14.5508C14.7402 14.2124 14.3301 14.2329 13.8379 14.7046L13.4277 15.1045C13.3252 15.2173 13.1509 15.2173 13.0073 15.1353C12.6792 14.9404 12.064 14.4995 11.4692 13.915C10.8848 13.3306 10.4336 12.7051 10.2593 12.3872C10.1875 12.2539 10.1772 12.1104 10.2798 11.9873L10.6899 11.5464C11.1514 11.0439 11.1616 10.644 10.8335 10.1724L9.58252 8.39844C9.1416 7.77295 8.50586 8.12158 7.9624 8.49072C7.90088 8.52148 7.85986 8.57275 7.8291 8.60352C6.06543 10.3672 7.58301 13.3716 9.79785 15.5864Z" fill="#003D73"/>
</svg>
