<svg width="24" height="23" viewBox="0 0 24 23" fill="none" xmlns="http://www.w3.org/2000/svg">
<path d="M12.1602 22.6875C18.2891 22.6875 23.3398 17.625 23.3398 11.5078C23.3398 5.37891 18.2773 0.316406 12.1602 0.316406C6.03125 0.316406 0.980469 5.37891 0.980469 11.5078C0.980469 17.625 6.04297 22.6875 12.1602 22.6875ZM12.1602 21.0703C6.86328 21.0703 2.59766 16.8047 2.59766 11.5078C2.59766 6.19922 6.85156 1.93359 12.1602 1.93359C17.457 1.93359 21.7227 6.19922 21.7344 11.5078C21.7461 16.8047 17.4688 21.0703 12.1602 21.0703ZM10.9297 14.7891C11.8672 14.7891 12.7344 14.5078 13.4492 14.0273L16.4141 16.9805C16.6133 17.2031 16.8242 17.2969 17.1172 17.2969C17.5859 17.2969 17.9141 16.9453 17.9141 16.4648C17.9141 16.2305 17.7969 16.0312 17.6445 15.8555L14.6562 12.8672C15.1836 12.1172 15.5 11.2031 15.5 10.2305C15.5 7.71094 13.4492 5.66016 10.9297 5.66016C8.43359 5.66016 6.37109 7.72266 6.37109 10.2305C6.37109 12.7383 8.43359 14.7891 10.9297 14.7891ZM10.9414 13.4766C9.16016 13.4766 7.68359 12 7.68359 10.2188C7.68359 8.44922 9.16016 6.97266 10.9414 6.97266C12.7227 6.97266 14.1875 8.4375 14.1875 10.2188C14.1875 12 12.7227 13.4766 10.9414 13.4766Z" fill="white"/>
</svg>
