<svg width="417" height="419" viewBox="0 0 417 419" fill="none" xmlns="http://www.w3.org/2000/svg">
<path d="M399.517 284.083C357.277 382.97 245.768 425.454 158.39 418.211C134.529 416.236 86.5365 412.255 49.0631 376.759C-22.9102 308.595 -11.8236 166.102 57.0718 82.2254C65.947 71.4209 127.357 -0.962988 223.057 0.00971312C293.133 0.713051 342.305 40.3544 348.282 45.3077C355.842 51.5479 372.502 66.3779 387.518 89.8873C422.81 145.137 425.918 222.294 399.517 284.083Z" fill="white"/>
<path d="M281.435 257.919C281.435 257.919 280.322 211.057 301.905 198.504C323.488 185.962 364.538 178.119 366.08 110.825C366.985 71.4266 367.952 54.1991 368.612 46.6866C368.869 43.7623 366.263 41.3886 363.376 41.9392C342.93 45.7934 276.516 61.6382 262.592 106.97C246.075 160.708 281.435 257.919 281.435 257.919Z" fill="#004A8C"/>
<path d="M347.555 60.6587C325.116 80.6758 299.164 116.097 285.338 151.519C283.564 157.355 278.364 169.774 276.113 191.835C274.094 210.237 275.097 229.666 277.544 242.538C277.703 243.346 278.487 243.884 279.294 243.737C280.689 243.468 280.505 241.963 280.493 242.012C277.703 220.025 278.866 192.667 285.253 167.975C293.414 137.656 311.632 108.267 330.475 83.3309L332.408 80.8716C347.005 62.1269 350.076 61.9923 348.706 60.6831C348.387 60.365 347.886 60.365 347.555 60.6587Z" fill="#BDD0FB"/>
<path d="M278.277 279.151C276.613 278.05 280.504 268.139 280.835 266.708C282.058 261.397 283.11 256.038 283.967 250.642C288.482 222.195 288.543 186.541 304.743 172.813C318.226 161.385 364.133 168.604 379.146 171.345C381.018 171.687 381.654 174.061 380.198 175.285C372.992 181.329 357.587 195.595 353.574 209.984C348.288 228.937 330.266 240.989 314.139 244.256C303.947 246.311 295.101 249.297 289.032 258.265C285.79 263.061 284.615 274.477 281.006 277.805C279.574 279.102 278.73 279.445 278.277 279.151Z" fill="#336EA3"/>
<path d="M358.028 179.346C338.867 180.154 318.299 188.89 307.863 205.285L306.872 206.852C304.596 210.522 291.7 236.596 284.542 258.216C284.456 258.485 284.603 258.779 284.872 258.864C285.325 259.011 285.558 258.509 285.521 258.558C290.513 246.347 297.683 230.857 303.385 219.283C309.502 206.644 313.785 198.091 327.745 189.893C343.284 181.072 358.126 180.154 358.089 180.166C358.322 180.142 358.481 179.946 358.456 179.713C358.432 179.493 358.248 179.334 358.028 179.346Z" fill="url(#paint0_linear)"/>
<path d="M180.517 212.608C180.517 212.608 169.75 171.4 147.763 165.845C125.776 160.29 87.9565 163.728 69.7625 105.341C59.1054 71.1549 53.9421 56.3622 51.495 49.9631C50.5406 47.4671 52.2169 44.7508 54.8842 44.5061C73.7023 42.7442 135.675 39.9668 159.191 76.0613C187.051 118.861 180.517 212.608 180.517 212.608Z" fill="#004A8C"/>
<path d="M73.3717 56.9047C97.9771 68.7608 129.52 93.1949 150.467 120.676C153.477 125.325 161.124 134.869 168.612 153.564C174.975 169.128 178.976 186.355 180.065 198.199C180.138 198.946 179.587 199.606 178.829 199.68C177.544 199.802 177.324 198.432 177.348 198.481C174.277 178.586 166.41 154.971 154.652 135.016C139.932 110.581 116.661 89.4753 93.9639 72.4192L91.6636 70.7551C74.2282 58.0426 71.4997 58.691 72.3684 57.2105C72.5764 56.8557 73.0169 56.7334 73.3717 56.9047Z" fill="#BDD0FB"/>
<path d="M236.043 280.409C238.955 280.923 202.628 255.008 179.148 204.684C168.087 180.972 159.106 149.857 141.512 141.916C126.866 135.309 88.5936 153.112 76.1624 159.266C74.6085 160.037 74.6452 162.264 76.2358 162.974C84.042 166.448 101.061 175.05 108.17 186.6C117.543 201.821 136.287 207.841 151.19 206.654C166.093 205.467 174.719 205.981 188.043 226.536C201.38 247.104 227.784 278.941 236.043 280.409Z" fill="#336EA3"/>
<path d="M96.619 160.966C113.553 156.867 133.705 159.351 146.931 171.06L148.179 172.186C151.079 174.817 168.881 194.369 180.542 211.449C180.689 211.657 180.627 211.951 180.419 212.098C180.052 212.343 179.734 211.963 179.783 211.988C172.368 202.567 162.225 190.845 154.346 182.158C145.842 172.651 139.957 166.252 125.703 162.593C109.919 158.776 96.7291 161.7 96.7658 161.7C96.5578 161.737 96.3621 161.602 96.3254 161.394C96.3009 161.199 96.4233 161.015 96.619 160.966Z" fill="url(#paint1_linear)"/>
<path d="M261.407 116.635C261.407 116.635 275.747 150.661 311.743 154.479L310.789 160.756C310.789 160.756 263.768 168.904 238.918 127.622L261.407 116.635Z" fill="url(#paint2_linear)"/>
<path d="M181.055 201.854C181.055 201.854 166.066 142.072 198.209 91.6256C198.943 90.4754 200.228 89.7903 201.598 89.8514C209.172 90.2185 235.172 93.4119 264.415 118.874C264.415 118.874 233.679 144.923 229.984 203.115C229.984 203.127 201.5 204.35 181.055 201.854Z" fill="#003D73"/>
<path d="M241.828 79.0234L226.62 95.8349C225.188 97.4133 225.212 99.738 226.681 101.292C229.213 103.996 233.716 107.471 239.589 106.81C241.51 106.59 243.199 105.501 244.141 103.923L253.354 88.3958L241.828 79.0234Z" fill="url(#paint3_linear)"/>
<path d="M267.522 68.2364C267.522 68.2364 265.981 96.4879 253.574 97.9929C241.167 99.4856 240.494 71.7235 240.494 71.7235C240.494 71.7235 252.399 46.8244 267.522 68.2364Z" fill="url(#paint4_linear)"/>
<path d="M245.879 80.4342C245.879 80.4342 246.307 71.6981 241.327 73.3866C234.904 75.5767 242.979 82.4775 242.979 82.4775L245.879 80.4342Z" fill="url(#paint5_linear)"/>
<path d="M244.777 74.5355C244.777 74.5355 242.856 80.3351 244.777 79.0259C246.698 77.7045 248.252 63.438 256.854 67.806C265.455 72.174 281.532 74.8169 278.009 58.2257C274.473 41.6345 264.501 55.9377 250.32 52.0957C236.139 48.2538 238.011 61.7128 239.479 64.1109C235.295 66.1542 235.613 71.3053 239.479 74.4988C240.605 73.6912 242.844 71.6112 244.777 74.5355Z" fill="#004A8C"/>
<path d="M270.948 69.8996C270.863 69.8996 270.789 69.8384 270.777 69.7528C270.765 69.6549 270.826 69.557 270.924 69.5448C270.948 69.5448 273.848 68.9819 275.5 66.2902C276.895 64.0266 277.029 60.9555 275.916 57.1503C275.891 57.0524 275.94 56.9545 276.038 56.9301C276.136 56.9056 276.234 56.9545 276.258 57.0524C277.409 60.9678 277.249 64.1367 275.793 66.4859C274.056 69.3123 271.095 69.8751 270.973 69.8996C270.973 69.8996 270.96 69.8996 270.948 69.8996Z" fill="#91B3FA"/>
<path d="M197.035 90.8814C197.035 90.8814 147.53 139.15 159.815 153.294C172.099 167.438 213.014 184.788 213.014 184.788L211.717 175.306C211.717 175.306 176.736 148.779 181.226 144.595C183.576 142.417 190.917 135.32 197.414 129.019C205.942 120.76 209.087 108.28 205.159 97.0725C203.409 92.1172 200.84 88.8014 197.035 90.8814Z" fill="#004A8C"/>
<path d="M361.553 351.625C262.054 297.447 157.735 301.313 48.9623 355.724C44.4474 357.988 39.125 354.684 39.125 349.631V263.873C39.125 257.082 42.6855 250.793 48.5096 247.294C157.013 182.079 264.134 181.835 366.349 247.808C372.393 251.711 376.064 258.392 376.149 265.586L377.165 342.216C377.263 350.292 368.637 355.492 361.553 351.625Z" fill="url(#paint6_linear)"/>
<path d="M360.035 349.634C262.298 297.634 159.826 301.341 52.9746 353.574C48.5331 355.74 43.3086 352.571 43.3086 347.725V265.43C43.3086 258.909 46.8079 252.876 52.5219 249.512C159.105 186.928 264.329 186.683 364.733 250.001C370.667 253.745 374.277 260.157 374.362 267.057L375.353 340.592C375.476 348.349 367.009 353.341 360.035 349.634Z" fill="#004A8C"/>
<path d="M240.092 246.585L229.141 257.683C228.285 258.552 227.918 259.775 228.15 260.962L231.087 276.269C231.662 279.266 228.554 281.628 225.825 280.257L211.889 273.283C210.8 272.745 209.528 272.769 208.463 273.357L194.809 280.881C192.129 282.362 188.936 280.123 189.388 277.101L191.713 261.684C191.897 260.485 191.468 259.274 190.587 258.442L179.209 247.785C176.982 245.692 178.107 241.96 181.129 241.459L196.509 238.914C197.708 238.718 198.724 237.947 199.238 236.846L205.857 222.726C207.154 219.961 211.057 219.888 212.464 222.592L219.647 236.43C220.209 237.507 221.262 238.241 222.461 238.388L237.926 240.321C240.961 240.725 242.245 244.42 240.092 246.585Z" fill="#F0AF13"/>
<path opacity="0.62" d="M209.027 269.441C208.22 269.575 207.449 269.844 206.739 270.236L197.82 275.155C196.877 275.668 195.752 275.607 194.871 274.996C193.99 274.384 193.549 273.344 193.708 272.292L195.226 262.222C195.58 259.86 194.761 257.487 193.011 255.847L185.584 248.885C184.801 248.151 184.507 247.062 184.826 246.034C185.131 245.007 185.988 244.26 187.04 244.089L192.167 243.232L192.301 244.015L187.175 244.872C186.404 244.994 185.817 245.52 185.584 246.267C185.364 247.013 185.56 247.772 186.135 248.31L193.562 255.272C195.495 257.083 196.412 259.726 196.009 262.344L194.492 272.414C194.369 273.185 194.687 273.907 195.324 274.347C195.96 274.788 196.755 274.836 197.428 274.457L206.348 269.539C207.143 269.098 207.999 268.804 208.88 268.658L209.027 269.441Z" fill="white"/>
<path opacity="0.62" d="M226.45 273.183C226.267 273.66 225.948 274.076 225.532 274.395C224.676 275.043 223.55 275.141 222.596 274.664L215.634 271.177L215.989 270.467L222.951 273.954C223.648 274.297 224.431 274.236 225.055 273.758C225.679 273.293 225.961 272.547 225.814 271.788L223.893 261.792C223.403 259.223 224.223 256.494 226.059 254.634L233.204 247.379C233.755 246.828 233.926 246.057 233.669 245.323C233.412 244.589 232.8 244.087 232.029 243.99L221.923 242.729C219.292 242.399 217.004 240.808 215.781 238.459L211.095 229.417C210.74 228.732 210.055 228.328 209.284 228.34C208.501 228.353 207.84 228.781 207.51 229.491L203.191 238.716C202.738 239.67 202.126 240.515 201.343 241.224L200.805 240.637C201.502 240.001 202.065 239.23 202.469 238.373L206.788 229.16C207.241 228.194 208.183 227.582 209.259 227.557C210.324 227.533 211.303 228.108 211.792 229.062L216.478 238.104C217.579 240.221 219.647 241.665 222.009 241.958L232.115 243.219C233.18 243.353 234.061 244.063 234.403 245.078C234.758 246.094 234.501 247.195 233.755 247.954L226.609 255.209C224.957 256.886 224.211 259.345 224.652 261.67L226.572 271.666C226.683 272.168 226.634 272.706 226.45 273.183Z" fill="white"/>
<path opacity="0.62" d="M195.237 242.758L192.195 243.262L192.325 244.046L195.367 243.543L195.237 242.758Z" fill="white"/>
<path d="M172.907 249.158L165.456 262.85C164.881 263.914 164.856 265.199 165.407 266.275L172.467 280.175C173.849 282.903 171.512 286.023 168.502 285.461L153.171 282.61C151.985 282.39 150.749 282.769 149.892 283.625L138.856 294.637C136.69 296.791 132.995 295.53 132.604 292.508L130.585 277.055C130.426 275.856 129.692 274.804 128.615 274.253L114.728 267.156C112.011 265.762 112.06 261.859 114.826 260.549L128.909 253.844C129.997 253.318 130.768 252.303 130.964 251.104L133.423 235.711C133.901 232.702 137.632 231.539 139.737 233.754L150.455 245.072C151.287 245.952 152.498 246.368 153.697 246.173L169.102 243.75C172.112 243.285 174.363 246.466 172.907 249.158Z" fill="#F0AF13"/>
<path opacity="0.62" d="M149.367 279.71C148.633 280.064 147.972 280.529 147.385 281.105L140.178 288.299C139.42 289.058 138.318 289.314 137.303 288.96C136.287 288.617 135.578 287.736 135.431 286.684L134.109 276.59C133.804 274.228 132.348 272.16 130.219 271.084L121.152 266.446C120.198 265.957 119.623 264.99 119.635 263.926C119.647 262.861 120.259 261.907 121.226 261.442L125.924 259.203L126.267 259.913L121.568 262.152C120.871 262.482 120.442 263.155 120.43 263.926C120.418 264.709 120.822 265.382 121.519 265.737L130.586 270.374C132.947 271.573 134.55 273.861 134.893 276.492L136.214 286.586C136.312 287.357 136.813 287.969 137.548 288.213C138.282 288.47 139.053 288.287 139.603 287.736L146.81 280.542C147.446 279.905 148.192 279.379 149 278.988L149.367 279.71Z" fill="white"/>
<path opacity="0.62" d="M167.133 278.489C167.084 278.99 166.9 279.48 166.582 279.908C165.946 280.765 164.894 281.181 163.841 280.985L156.182 279.565L156.329 278.782L163.988 280.202C164.759 280.349 165.493 280.055 165.958 279.431C166.423 278.807 166.496 278.024 166.142 277.326L161.529 268.248C160.342 265.923 160.379 263.06 161.639 260.772L166.509 251.828C166.876 251.143 166.839 250.36 166.386 249.723C165.934 249.087 165.212 248.781 164.441 248.903L154.383 250.482C151.765 250.898 149.122 249.992 147.299 248.071L140.288 240.681C139.75 240.118 138.991 239.91 138.245 240.143C137.499 240.375 136.985 240.975 136.862 241.734L135.259 251.791C135.088 252.831 134.733 253.81 134.183 254.715L133.51 254.299C133.999 253.492 134.33 252.599 134.476 251.669L136.079 241.611C136.25 240.559 136.985 239.702 138.012 239.384C139.04 239.066 140.129 239.36 140.863 240.131L147.862 247.521C149.501 249.258 151.887 250.066 154.249 249.699L164.306 248.12C165.359 247.949 166.399 248.39 167.023 249.271C167.634 250.151 167.708 251.277 167.194 252.207L162.324 261.151C161.199 263.219 161.162 265.788 162.226 267.893L166.839 276.972C167.084 277.449 167.182 277.975 167.133 278.489Z" fill="white"/>
<path opacity="0.62" d="M128.724 257.882L125.939 259.207L126.281 259.925L129.065 258.6L128.724 257.882Z" fill="white"/>
<path d="M106.567 269.502L99.1159 283.193C98.5408 284.258 98.5163 285.543 99.0669 286.619L106.127 300.519C107.509 303.247 105.172 306.367 102.162 305.804L86.8315 302.954C85.6447 302.733 84.4089 303.113 83.5524 303.969L72.5161 314.981C70.3504 317.134 66.6553 315.874 66.2638 312.852L64.2449 297.399C64.0859 296.2 63.3517 295.147 62.275 294.597L48.3878 287.5C45.6716 286.105 45.7205 282.202 48.4857 280.893L62.5687 274.188C63.6576 273.662 64.4285 272.646 64.6242 271.447L67.0835 256.055C67.5607 253.045 71.2925 251.883 73.397 254.098L84.1152 265.415C84.9473 266.296 86.1586 266.712 87.3576 266.516L102.762 264.094C105.772 263.629 108.023 266.81 106.567 269.502Z" fill="#F0AF13"/>
<path opacity="0.62" d="M83.0272 300.053C82.293 300.408 81.6323 300.873 81.045 301.448L73.8384 308.643C73.0798 309.401 71.9786 309.658 70.963 309.303C69.9475 308.961 69.2379 308.08 69.091 307.028L67.7696 296.933C67.4637 294.572 66.0077 292.504 63.8787 291.427L54.8123 286.79C53.8579 286.301 53.2829 285.334 53.2951 284.27C53.3073 283.205 53.9191 282.251 54.8857 281.786L59.5841 279.547L59.9267 280.257L55.2283 282.496C54.5309 282.826 54.1027 283.499 54.0904 284.27C54.0782 285.053 54.4819 285.726 55.1794 286.081L64.2458 290.718C66.6072 291.917 68.2101 294.205 68.5527 296.836L69.8741 306.93C69.972 307.701 70.4736 308.312 71.2078 308.557C71.9419 308.814 72.7127 308.63 73.2633 308.08L80.47 300.885C81.1062 300.249 81.8526 299.723 82.6601 299.332L83.0272 300.053Z" fill="white"/>
<path opacity="0.62" d="M100.793 298.832C100.744 299.334 100.56 299.824 100.242 300.252C99.606 301.108 98.5538 301.524 97.5015 301.329L89.8421 299.909L89.989 299.126L97.6483 300.545C98.4192 300.692 99.1533 300.399 99.6182 299.775C100.083 299.151 100.157 298.368 99.8018 297.67L95.189 288.591C94.0022 286.267 94.0389 283.404 95.2991 281.116L100.169 272.172C100.536 271.486 100.499 270.703 100.046 270.067C99.5938 269.431 98.8719 269.125 98.101 269.247L88.0435 270.826C85.4252 271.242 82.7823 270.336 80.9592 268.415L73.9483 261.025C73.41 260.462 72.6514 260.254 71.905 260.487C71.1587 260.719 70.6448 261.319 70.5224 262.077L68.9196 272.135C68.7483 273.175 68.3935 274.154 67.8429 275.059L67.1699 274.643C67.6593 273.836 67.9897 272.942 68.1365 272.012L69.7394 261.955C69.9107 260.903 70.6448 260.046 71.6726 259.728C72.7003 259.41 73.7893 259.704 74.5234 260.474L81.5221 267.865C83.1616 269.602 85.5475 270.41 87.909 270.043L97.9665 268.464C99.0187 268.293 100.059 268.733 100.683 269.614C101.294 270.495 101.368 271.621 100.854 272.551L95.9843 281.495C94.8587 283.563 94.822 286.132 95.8864 288.237L100.499 297.315C100.744 297.792 100.842 298.319 100.793 298.832Z" fill="white"/>
<path opacity="0.62" d="M62.3702 278.226L59.5859 279.551L59.9277 280.269L62.7119 278.944L62.3702 278.226Z" fill="white"/>
<path opacity="0.2" d="M370.167 291.662L355.619 297.265C354.494 297.706 353.637 298.66 353.356 299.847L349.722 315.007C349.012 317.98 345.207 318.836 343.274 316.475L333.449 304.374C332.69 303.432 331.503 302.93 330.292 303.028L314.753 304.252C311.707 304.497 309.712 301.144 311.376 298.575L319.855 285.495C320.516 284.479 320.626 283.195 320.161 282.081L314.19 267.68C313.016 264.854 315.597 261.917 318.546 262.713L333.608 266.738C334.783 267.056 336.031 266.763 336.948 265.98L348.804 255.849C351.129 253.866 354.714 255.408 354.873 258.455L355.705 274.018C355.766 275.229 356.427 276.331 357.455 276.967L370.755 285.103C373.373 286.682 373.018 290.56 370.167 291.662Z" fill="white"/>
<path d="M306.568 263.905L292.962 271.515C291.898 272.102 291.2 273.179 291.09 274.39L289.646 289.917C289.365 292.951 285.719 294.346 283.48 292.278L272.04 281.683C271.147 280.863 269.911 280.52 268.724 280.789L253.515 284.203C250.542 284.876 248.083 281.829 249.367 279.064L255.913 264.908C256.427 263.807 256.354 262.522 255.742 261.482L247.789 248.072C246.235 245.441 248.364 242.174 251.399 242.529L266.876 244.377C268.075 244.524 269.274 244.059 270.082 243.153L280.384 231.444C282.403 229.156 286.172 230.172 286.759 233.157L289.781 248.451C290.014 249.638 290.821 250.641 291.934 251.119L306.25 257.297C309.04 258.509 309.235 262.412 306.568 263.905Z" fill="#F0AF13"/>
<path opacity="0.62" d="M270.351 277.18C269.543 277.082 268.723 277.131 267.928 277.314L257.993 279.541C256.953 279.774 255.888 279.407 255.215 278.575C254.543 277.743 254.408 276.617 254.848 275.65L259.119 266.413C260.122 264.247 259.987 261.727 258.776 259.683L253.588 250.923C253.038 250.005 253.062 248.879 253.649 247.974C254.237 247.081 255.252 246.604 256.317 246.726L261.48 247.338L261.382 248.121L256.219 247.509C255.448 247.411 254.726 247.754 254.31 248.402C253.882 249.051 253.87 249.846 254.261 250.507L259.449 259.267C260.795 261.543 260.942 264.333 259.828 266.743L255.558 275.981C255.228 276.69 255.326 277.474 255.815 278.073C256.304 278.673 257.051 278.942 257.809 278.771L267.745 276.544C268.625 276.348 269.531 276.299 270.424 276.397L270.351 277.18Z" fill="white"/>
<path opacity="0.62" d="M286.038 285.623C285.732 286.027 285.316 286.345 284.814 286.528C283.811 286.908 282.71 286.7 281.926 285.966L276.213 280.668L276.751 280.093L282.465 285.391C283.04 285.917 283.811 286.063 284.533 285.794C285.254 285.513 285.732 284.889 285.805 284.118L286.747 273.987C286.992 271.381 288.546 268.995 290.834 267.723L299.717 262.755C300.39 262.376 300.781 261.678 300.732 260.907C300.696 260.124 300.243 259.488 299.533 259.17L290.185 255.132C287.75 254.08 286.001 251.914 285.487 249.308L283.505 239.324C283.358 238.566 282.82 237.978 282.061 237.783C281.315 237.575 280.556 237.807 280.042 238.394L273.313 246.041C272.615 246.837 271.783 247.473 270.841 247.938L270.486 247.228C271.343 246.812 272.089 246.237 272.713 245.515L279.443 237.868C280.152 237.061 281.229 236.743 282.269 237.012C283.297 237.293 284.068 238.113 284.276 239.165L286.258 249.149C286.723 251.486 288.301 253.456 290.491 254.398L299.839 258.436C300.818 258.864 301.466 259.782 301.515 260.859C301.564 261.923 301.026 262.914 300.084 263.44L291.201 268.408C289.145 269.558 287.738 271.711 287.518 274.061L286.576 284.204C286.551 284.73 286.343 285.219 286.038 285.623Z" fill="white"/>
<path opacity="0.62" d="M261.491 247.296L261.396 248.086L264.458 248.451L264.552 247.662L261.491 247.296Z" fill="white"/>
<path d="M316.784 173.477L290.05 186.643C287.97 187.67 286.526 189.653 286.195 191.941L281.889 221.428C281.044 227.203 273.948 229.503 269.873 225.319L249.085 203.956C247.47 202.292 245.133 201.533 242.858 201.925L213.48 206.941C207.73 207.92 203.349 201.888 206.066 196.712L219.953 170.345C221.03 168.29 221.03 165.842 219.953 163.787L206.102 137.395C203.386 132.232 207.779 126.187 213.529 127.179L242.906 132.244C245.195 132.636 247.519 131.877 249.147 130.225L269.971 108.899C274.046 104.727 281.142 107.039 281.974 112.814L286.232 142.314C286.562 144.602 288.006 146.596 290.086 147.624L316.808 160.838C322.033 163.432 322.021 170.896 316.784 173.477Z" fill="#F0AF13"/>
<path opacity="0.62" d="M246.333 195.22C244.792 194.963 243.238 194.963 241.696 195.22L222.511 198.499C220.492 198.841 218.498 198.034 217.299 196.37C216.1 194.718 215.94 192.565 216.895 190.754L225.961 173.526C228.09 169.489 228.09 164.668 225.973 160.63L216.932 143.39C215.977 141.58 216.136 139.426 217.348 137.774C218.559 136.123 220.553 135.315 222.572 135.658L232.373 137.346L232.116 138.839L222.315 137.15C220.847 136.893 219.452 137.481 218.571 138.668C217.702 139.867 217.592 141.372 218.277 142.693L227.319 159.933C229.669 164.411 229.669 169.758 227.307 174.236L218.241 191.463C217.543 192.785 217.653 194.278 218.522 195.489C219.391 196.688 220.786 197.263 222.254 197.006L241.439 193.727C243.14 193.433 244.877 193.433 246.578 193.715L246.333 195.22Z" fill="white"/>
<path opacity="0.62" d="M275.429 212.914C274.805 213.648 273.973 214.211 273.006 214.529C271.061 215.165 268.968 214.639 267.537 213.171L257.149 202.501L258.238 201.449L268.626 212.118C269.666 213.183 271.122 213.55 272.541 213.085C273.96 212.632 274.927 211.47 275.147 210.002L277.961 190.743C278.683 185.8 281.889 181.383 286.379 179.181L303.839 170.579C305.173 169.918 305.968 168.634 305.968 167.153C305.968 165.66 305.173 164.388 303.839 163.727L286.391 155.101C281.852 152.862 278.72 148.531 277.998 143.527L275.208 124.256C275 122.788 274.021 121.625 272.614 121.172C271.195 120.708 269.739 121.075 268.699 122.139L255.106 136.075C253.698 137.519 252.047 138.645 250.199 139.452L249.6 138.057C251.264 137.335 252.756 136.32 254.017 135.011L267.61 121.087C269.042 119.619 271.134 119.105 273.079 119.741C275.025 120.377 276.42 122.029 276.701 124.048L279.491 143.319C280.139 147.833 282.978 151.737 287.064 153.755L304.512 162.381C306.347 163.287 307.485 165.122 307.485 167.165C307.485 169.209 306.347 171.044 304.512 171.949L287.052 180.551C283.002 182.545 280.115 186.522 279.466 190.975L276.652 210.234C276.493 211.237 276.065 212.167 275.429 212.914Z" fill="white"/>
<path opacity="0.62" d="M232.367 137.345L232.109 138.84L237.921 139.842L238.179 138.347L232.367 137.345Z" fill="white"/>
<path d="M208.758 174.762C208.758 174.762 208.55 170.688 207.498 168.791C206.446 166.907 208.905 166.467 210.104 168.241C211.303 170.015 212.184 174.933 212.184 174.933C212.184 174.933 210.08 176.194 208.758 174.762Z" fill="url(#paint7_linear)"/>
<path d="M216.87 185.273C216.43 185.995 215.647 186.423 214.802 186.423C213.958 186.423 213.187 185.982 212.747 185.261C211.34 182.96 209.223 179.277 208.831 177.344C208.244 174.42 207.84 170.517 211.719 169.783C215.598 169.049 220.639 169.281 220.639 169.281C220.639 169.281 221.911 172.866 218.742 172.89L221.152 173.931C221.152 173.931 222.107 176.83 219.195 176.304L221.74 177.968C221.74 177.968 221.74 180.684 219.44 179.926C217.751 179.363 218.351 182.875 216.87 185.273Z" fill="url(#paint8_linear)"/>
<path d="M310.654 151.769C303.019 148.049 300.094 148.123 296.889 150.925L302.309 155.158C304.059 156.749 303.728 158.4 303.068 159.783C302.248 161.496 303.74 163.919 306.237 164.714C308.06 165.301 309.809 164.861 311.424 162.573L312.856 159.771C312.403 157.715 312.917 153.421 310.654 151.769Z" fill="url(#paint9_linear)"/>
<defs>
<linearGradient id="paint0_linear" x1="350.477" y1="188.405" x2="110.845" y2="374.677" gradientUnits="userSpaceOnUse">
<stop stop-color="#DAE3FE"/>
<stop offset="1" stop-color="#E9EFFD"/>
</linearGradient>
<linearGradient id="paint1_linear" x1="111.014" y1="110.363" x2="221.3" y2="416.157" gradientUnits="userSpaceOnUse">
<stop stop-color="#DAE3FE"/>
<stop offset="1" stop-color="#E9EFFD"/>
</linearGradient>
<linearGradient id="paint2_linear" x1="319.043" y1="221.913" x2="218.792" y2="36.4497" gradientUnits="userSpaceOnUse">
<stop stop-color="#53D8FF"/>
<stop offset="1" stop-color="#3840F7"/>
</linearGradient>
<linearGradient id="paint3_linear" x1="213.161" y1="119.077" x2="254.918" y2="80.6608" gradientUnits="userSpaceOnUse">
<stop stop-color="#FEBBBA"/>
<stop offset="1" stop-color="#FF928E"/>
</linearGradient>
<linearGradient id="paint4_linear" x1="261.092" y1="88.2955" x2="241.288" y2="55.8497" gradientUnits="userSpaceOnUse">
<stop stop-color="#FEBBBA"/>
<stop offset="1" stop-color="#FF928E"/>
</linearGradient>
<linearGradient id="paint5_linear" x1="252.552" y1="93.5079" x2="232.747" y2="61.0619" gradientUnits="userSpaceOnUse">
<stop stop-color="#FEBBBA"/>
<stop offset="1" stop-color="#FF928E"/>
</linearGradient>
<linearGradient id="paint6_linear" x1="518.956" y1="385.025" x2="92.8917" y2="262.219" gradientUnits="userSpaceOnUse">
<stop stop-color="#4F52FF"/>
<stop offset="1" stop-color="#4042E2"/>
</linearGradient>
<linearGradient id="paint7_linear" x1="221.457" y1="152.739" x2="246.156" y2="113.658" gradientUnits="userSpaceOnUse">
<stop stop-color="#FEBBBA"/>
<stop offset="1" stop-color="#FF928E"/>
</linearGradient>
<linearGradient id="paint8_linear" x1="227.244" y1="156.397" x2="251.944" y2="117.316" gradientUnits="userSpaceOnUse">
<stop stop-color="#FEBBBA"/>
<stop offset="1" stop-color="#FF928E"/>
</linearGradient>
<linearGradient id="paint9_linear" x1="302.461" y1="158.618" x2="319.953" y2="134.113" gradientUnits="userSpaceOnUse">
<stop stop-color="#FEBBBA"/>
<stop offset="1" stop-color="#FF928E"/>
</linearGradient>
</defs>
</svg>
