<svg xmlns="http://www.w3.org/2000/svg" width="288" height="289" viewBox="0 0 288 289" fill="none"> <g clip-path="url(#clip0)"> <path d="M177.5 152.101C179.9 149.101 182 145.801 183.5 142.201C184.5 139.901 185.4 137.501 186 135.101C186.5 132.701 186.8 130.201 187.2 127.801C187.9 124.001 187.3 120.201 186.8 116.401C186.3 113.301 185.4 110.201 184.2 107.301C182.2 102.001 179.1 97.2011 175.2 93.1011C171.6 89.2011 167.3 86.1011 162.6 83.7011C158.2 81.5011 153.5 80.0011 148.7 79.3011C143.3 78.6011 137.8 78.8011 132.5 80.0011C128.2 81.1011 124 82.7011 120.1 84.9011C115.6 87.4011 111.7 90.7011 108.4 94.7011C107.3 96.0011 106.3 97.4011 105.3 98.8011C103.5 101.301 102 104.101 100.9 107.001C100.4 108.401 100 110.001 99.5 111.401C98.6 114.001 98 116.801 97.9 119.601C97.7 124.201 97.6 128.801 98.7 133.301C99.6 137.101 100.9 140.801 102.5 144.401C105 149.301 108.3 153.801 112.4 157.601L102.9 174.401L112.7 180.801L142.5 128.101C144.3 131.301 146 134.101 147.5 136.901C150.6 142.501 153.7 148.101 156.9 153.701C159.5 158.301 161.7 162.301 164.5 167.201C167.7 173.001 170.4 177.601 172.2 180.801L181.4 174.601L172.4 157.701C174.3 155.801 176 154.001 177.5 152.101ZM171.9 140.801C170.5 143.101 168.8 145.301 166.9 147.201L142.5 104.401C134.4 118.801 126.4 133.001 118.4 147.201C113.7 142.501 110.5 136.501 109.2 130.001C107.7 121.501 109.5 112.601 114.2 105.401C123.4 91.4011 139.4 90.2011 140.7 90.1011C156.7 89.2011 171.1 99.5011 175.4 114.901C176.6 119.301 176.9 123.901 176.3 128.401C175.7 132.801 174.2 137.001 171.9 140.801Z" fill="#003D73"/> <path d="M260.9 198.7C257.4 197.8 254 196.8 251.1 194.6C250.2 194 249.4 193.3 248.7 192.8C247.4 193.8 246.1 194.8 244.7 195.6C239.5 198.6 233.7 199.6 227.9 200C223.3 200.4 218.7 200.3 214.1 199.6C210.8 199.2 207.6 198.4 204.5 197.3C201.6 196.4 199 194.8 196.8 192.7C195.3 193.7 193.8 194.8 192.2 195.7C187.2 198.5 181.6 199.5 176 199.9C169.5 200.5 162.9 200 156.6 198.5C153.3 197.6 149.9 196.7 147.1 194.5C146.2 193.9 145.4 193.2 144.5 192.6C142.2 194.9 139.2 196.6 136 197.5C133.4 198.3 130.8 198.9 128.2 199.4C126.5 199.8 124.8 200 123.1 200C118.9 200 114.6 200.3 110.4 199.6C107 199.2 103.6 198.4 100.3 197.3C97.4997 196.2 94.6997 195 92.5997 192.6C92.0997 193 91.6997 193.4 91.2997 193.7C88.3997 195.9 85.0997 197.4 81.4997 198.3C78.1997 199.2 74.6997 199.8 71.2997 200C67.0997 200.2 62.7997 200.5 58.5997 199.6C56.5997 199.2 54.5997 199 52.5997 198.6C48.0997 197.5 43.7997 195.9 40.4997 192.6C39.0997 193.6 37.7997 194.6 36.3997 195.5C33.2997 197.3 29.7997 198.5 26.1997 199.1C22.3997 199.9 18.4997 200.2 14.5997 200.1C13.8997 200.1 13.1997 200.1 12.3997 200.1C11.9997 200.1 11.5997 200.2 11.1997 200.2C12.8997 205.6 23.1997 224.1 25.9997 226.7C27.1997 226.3 28.5997 226 29.7997 225.6C31.0997 225.1 32.3997 224.6 33.5997 224C35.3997 223.2 36.7997 222 37.7997 220.3C38.0997 219.8 38.4997 219.4 38.9997 219C40.4997 221.6 42.7997 223.6 45.4997 224.7C49.1997 226.3 53.0997 227.4 57.0997 227.8C62.4997 228.3 67.8997 228.3 73.1997 227.8C74.1997 227.7 75.1997 227.5 76.1997 227.3C77.7997 226.9 79.3997 226.5 80.9997 226C84.6997 224.8 88.2997 223.3 90.3997 219.7C90.5997 219.5 90.7997 219.3 90.9997 219.1C91.2997 219.4 91.5997 219.8 91.8997 220.2C93.0997 222 94.6997 223.4 96.5997 224.3C99.7997 225.9 103.1 226.9 106.6 227.4C109.6 227.9 112.7 228.1 115.7 228.2C120.2 228.4 124.8 228 129.3 227.1C132.5 226.4 135.6 225.3 138.6 223.8C140.1 223.1 141.3 221.9 142.2 220.5C142.5 220 142.9 219.6 143.3 219.3C143.5 219.4 143.6 219.5 143.7 219.7C145.5 222.4 148.1 224.4 151.2 225.4C152.3 225.8 153.4 226.3 154.5 226.6C156.2 227 157.9 227.4 159.6 227.7C161.3 228 162.9 228 164.5 228.2C168.7 228.6 173 228.5 177.2 228C180.5 227.7 183.7 226.9 186.8 225.8C189.5 225 191.9 223.5 193.8 221.4C194.4 220.8 194.8 220.1 195.5 219.1C196 219.8 196.3 220.3 196.7 220.8C197 221.4 197.5 221.9 198 222.3C199.5 223.3 201.1 224.3 202.8 225.1C204 225.7 205.3 226.2 206.6 226.5C209 227.2 211.4 227.7 213.9 228C217.6 228.3 221.2 228.4 224.9 228.3C230.3 228.3 235.7 227.2 240.7 225.1C243.3 224.2 245.5 222.5 247 220.3C247.3 219.9 247.5 219.6 247.9 219.3C249.4 221.9 251.8 223.9 254.6 225C256.4 225.8 258.4 226.3 260.3 227C261 227.3 261.8 227 262.1 226.3C265 222.2 267.6 217.9 269.9 213.5C271.9 209.8 273.6 206 275.4 202.3C275.6 201.7 275.8 201.1 276 200.5C275.3 200.5 274.8 200.5 274.4 200.5C269.9 200.3 265.3 199.8 260.9 198.7Z" fill="#003D73"/> <path d="M286.6 125.6C285.8 119.7 284.4 113.6 284.4 113.6C281.9 102.4 278.1 91.6004 273 81.3004C270.2 75.7004 267.6 71.4004 266.1 69.0004C261.6 61.7004 256.4 54.9004 250.6 48.5004C246.1 43.6004 241.3 38.9004 236.2 34.6004C233 31.9004 229.7 29.3004 226.2 27.0004C225.7 26.7004 225.2 26.3004 224.6 25.9004C223.7 27.2004 222.8 28.4004 221.9 29.8004C243.5 44.8004 259.9 64.1004 270.7 88.0004C281.5 111.9 285 137 281.8 163.1L286.5 163.6C287.3 157.4 288.8 141.2 286.6 125.6Z" fill="#003D73"/> <path d="M18.9999 83.6C22.0999 77.6 24.8999 72.8 26.9999 69.5C30.0999 64.8 33.3999 60.4 36.9999 56.1C38.7999 53.9 41.3999 50.8 45.0999 47C47.9999 44.1 50.2999 42 52.2999 40.2C55.4999 37.4 59.7999 33.7 65.2999 29.7L62.9999 26C55.2999 31.2 48.0999 37.1 41.4999 43.7C37.6999 47.6 34.7999 51 33.3999 52.6C29.3999 57.2 25.7999 62.2 22.5999 67.3C21.6999 68.8 20.5999 70.2 19.7999 71.7C18.9999 73.2 16.1999 77.8 12.9999 84.6C10.1999 90.6 7.8999 96.9 5.8999 103.2C3.9999 109.4 2.4999 115.7 1.4999 122.1C1.4999 122.3 0.899902 126.1 0.499902 130.1C-0.800098 143.2 0.299902 156.4 1.0999 163.7L5.3999 163.1C4.7999 158.3 4.5999 154.3 4.4999 151.5C3.8999 135.8 6.1999 123.8 7.7999 115.2C8.1999 112.6 8.7999 110 9.5999 107.5C10.5999 104 11.7999 100.6 13.0999 97.3C14.8999 92.7 16.7999 88.1 18.9999 83.6Z" fill="#003D73"/> <path d="M178.2 60.6012L194 68.4012C193.2 70.0012 192.5 71.5012 191.7 73.1012L195.5 74.8012C196.8 72.1012 198.1 69.3012 199.4 66.6012L197 65.1012C200.4 58.2012 203.9 51.5012 206.9 44.5012L191.9 37.2012C191.5 37.9012 191.3 38.4012 191 39.0012C190.2 40.6012 189.5 42.2012 188.7 43.8012C187.1 47.0012 185.1 49.9012 182.7 52.6012C182 53.4012 181.1 54.1012 180.3 54.8012C179.8 55.5012 178.9 55.9012 178.1 55.9012C177.3 55.9012 176.6 55.7012 176 55.2012C174.7 58.0012 173.3 60.8012 172 63.6012L175.8 65.2012C176.6 63.6012 177.4 62.1012 178.2 60.6012ZM186.7 55.0012C187.8 53.8012 188.8 52.6012 189.7 51.2012C190.6 49.9012 191.3 48.6012 192.1 47.2012C192.9 45.8012 193.5 44.5012 194.3 43.0012C196.7 43.6012 198.6 45.1012 200.9 46.0012L192.7 63.0012L183.1 58.2012C184.3 57.2012 185.5 56.1012 186.7 55.0012Z" fill="#003D73"/> <path d="M181.5 18.2996C185.2 18.3996 188.4 15.4996 188.5 11.7996C188.6 8.09956 185.7 4.89956 182 4.79956C181.8 4.79956 181.7 4.79956 181.5 4.79956C177.9 4.69956 174.9 7.39956 174.8 10.9996C174.8 11.0996 174.8 11.2996 174.8 11.3996C174.7 15.2996 177.2 18.1996 181.5 18.2996ZM181.6 6.99956C183.9 7.09956 185.7 9.09956 185.8 11.3996C185.9 13.7996 183.9 16.1996 181.4 16.1996C179.1 16.1996 177.2 14.2996 177 12.1996C176.8 9.49956 179 6.89956 181.6 6.99956Z" fill="#003D73"/> <path d="M51.7999 117.701C50.9999 121.601 50.1999 125.301 49.2999 129.201L42.8999 127.901C42.1999 127.801 42.0999 127.301 42.2999 126.701C42.5999 125.301 42.8999 123.801 43.2999 122.301C43.4999 121.201 43.7999 120.001 44.0999 118.701L39.8999 117.901L37.8999 126.601L30.9999 125.201C31.3999 123.301 31.6999 121.501 31.9999 119.801C32.2999 118.101 32.7999 116.201 33.2999 114.201L29.5999 113.301C28.8999 114.601 26.0999 127.801 26.1999 129.201L52.2999 134.701C53.4999 129.201 54.7999 123.901 55.7999 118.401L51.7999 117.701Z" fill="#003D73"/> <path d="M80.6 27.1012C83 27.8012 85.2 26.8012 85.8 26.5012C88.2 25.2012 89.1 23.0012 89.3 22.5012C89 22.4012 88.6 22.2012 88.3 22.0012C88 21.8012 87.7 21.7012 87.4 21.5012C87.3 21.8012 87 22.4012 86.5 22.9012C85.1 24.5012 82.3 25.5012 80.4 24.3012C79.8 23.9012 79.2 23.3012 78.9 22.6012C77.1 19.3012 79 15.7012 82.7 15.7012C83.3 15.7012 83.8 15.7012 84.4 15.7012V14.0012C80.8 13.0012 77.1 14.9012 75.9 18.2012C74.5 22.1012 77.4 26.2012 80.6 27.1012Z" fill="#003D73"/> <path d="M202.8 64.7012C201.1 68.4012 201.3 72.7012 203.3 76.2012C205 79.3012 207.7 81.8012 211 83.1012C213 83.9012 215.1 84.2012 217.2 84.1012L217.3 79.7012C216.4 79.7012 215.6 79.7013 214.7 79.5013C213.1 79.2013 211.5 78.5013 210.2 77.4013C208.1 75.7013 206.8 73.2013 206.6 70.5013C206.6 69.4013 206.8 68.3013 207.2 67.3013C208.3 64.3013 211.5 60.3012 216.2 60.3012C221.3 60.3012 224.1 65.2013 224.6 66.0013C225.3 67.2013 225.8 68.6013 226 70.0013L230.1 68.8013C228.8 62.6013 225.1 57.7013 220.5 56.3013C218.5 55.8013 216.5 55.6013 214.5 55.8013C212.5 56.0013 210.5 56.7013 208.7 57.7013C206.1 59.3013 204 61.8012 202.8 64.7012Z" fill="#003D73"/> <path d="M51.2001 139.9L24.6001 140.9C24.8001 146.6 25.0001 152 25.1001 157.6C25.8001 157.6 26.3001 157.6 26.9001 157.6C29.1001 157.5 31.3001 157.4 33.6001 157.4C36.8001 157.2 40.0001 157.5 43.1001 158.2C45.1001 158.7 46.9001 159.5 47.9001 161.5C48.1001 161.9 48.2001 162.2 48.3001 162.5H52.4001C52.6001 160.5 51.9001 158.5 50.5001 157C48.1001 154.2 44.8001 153.3 41.4001 153C37.8001 152.7 34.2001 152.8 30.5001 152.7C30.1001 152.7 29.7001 152.7 29.2001 152.6C29.2001 150.3 28.7001 148 28.9001 145.7L51.4001 144.8C51.8001 143.2 51.7001 141.5 51.2001 139.9Z" fill="#003D73"/> <path d="M269.7 145.701V142.701C268.4 142.601 267.1 143.001 266 143.801C263.4 146.001 263 149.801 265 152.501C266.2 153.801 267.8 154.601 269.6 154.601L269.7 151.701C268.2 151.701 266.9 150.701 266.6 149.201C266.5 147.401 267.8 145.901 269.5 145.701C269.6 145.701 269.7 145.701 269.7 145.701Z" fill="#003D73"/> <path d="M262.8 142V137.4L235.8 136.9L235.9 141.4L254.5 154.5L235.4 154.2V158.9L262.3 159.3V154.8L243.4 141.6L262.8 142Z" fill="#003D73"/> <path d="M245 102.4C237 102.6 230.8 108.2 230.9 116.3C231 125.1 237.6 130.4 244.7 130.4C253.4 130.4 259 123.7 258.9 116.6C258.9 108.4 252.4 102.3 245 102.4ZM246.7 125.2C244.6 125.7 242.3 125.5 240.3 124.6C235.9 122.5 234.1 117.3 236.2 112.9C236.6 112 237.2 111.3 237.8 110.6C239.7 108.5 242.5 107.3 245.4 107.4C250.2 107.3 254.2 111.1 254.3 115.9C254.3 116.6 254.3 117.2 254.1 117.9C253.2 121.9 251.1 124.3 246.7 125.2Z" fill="#003D73"/> <path d="M208.4 26.8012C209 26.1012 209.6 24.4012 209.3 22.6012C209.2 22.3012 209.2 22.1012 209.1 21.9012C209.5 21.8012 209.8 21.6012 210.2 21.4012C211.8 20.3012 212.1 18.1012 211 16.5012C210.8 16.2012 210.4 15.9012 210.1 15.6012C208.5 14.7012 206.9 14.0012 205.1 13.2012C203.1 17.1012 201.2 20.9012 199.2 24.8012C202.9 28.2012 207.1 28.3012 208.4 26.8012ZM206.3 16.0012C208.1 16.5012 209.3 17.5012 209.2 18.5012C209.2 18.7012 209.2 19.1012 208.8 19.5012C208.4 19.9012 207.8 19.9012 207.4 19.9012C206.2 19.9012 205.2 19.3012 204.7 19.0012C205.3 18.0012 205.8 17.0012 206.3 16.0012ZM204 20.9012C204.7 21.2012 205.5 21.6012 206.2 21.9012C207.1 22.3012 207.6 23.2012 207.4 23.9012C207.3 24.6012 206.7 25.0012 206.6 25.0012C205.8 25.5012 204.9 25.3012 204.4 25.2012C203.4 25.0012 202.6 24.4012 202.3 24.0012L204 20.9012Z" fill="#003D73"/> <path d="M64.5998 99.6008C65.3998 98.1008 65.9998 96.8008 66.7998 95.3008L42.7998 83.3008C41.3998 85.3008 40.8998 86.4008 40.6998 87.7008C43.8998 89.3008 47.1998 90.9008 50.5998 92.7008C49.0998 96.6008 46.7998 100.001 45.0998 103.901C43.2998 103.001 41.6998 102.101 39.9998 101.301C38.2998 100.501 36.7998 99.3008 34.8998 98.8008C33.9998 100.101 33.3998 101.601 32.7998 103.001C36.8998 105.101 40.7998 107.201 44.7998 109.201C48.7998 111.201 52.7998 113.101 56.9998 115.201L58.9998 110.901L48.9998 105.701C51.1998 102.001 52.3998 98.1008 54.6998 94.8008L64.5998 99.6008Z" fill="#003D73"/> <path d="M119.4 15.1996C119.3 14.4996 119.1 13.8996 119 13.1996C117.2 13.5996 115.4 13.9996 113.6 14.3996C113.4 13.1996 113.2 12.0996 112.9 10.8996C114.2 10.5996 115.5 10.1996 116.8 9.89961C116.6 9.19961 116.4 8.39961 116.2 7.69961C114.9 7.99961 113.5 8.29961 112.2 8.59961L111.6 5.59961C113.3 5.19961 115 4.79961 116.8 4.39961C116.6 3.59961 116.4 2.89961 116.3 2.09961C113.8 2.69961 111.2 3.29961 108.7 3.99961C109.7 8.29961 110.6 12.3996 111.5 16.6996L119.4 15.1996Z" fill="#003D73"/> <path d="M112.9 59.8996L117.4 58.4996L111.6 36.5996L121.3 33.4996C121 32.1996 120.7 30.8996 120.4 29.5996L105.6 33.7996C107.8 42.6996 110.4 51.2996 112.9 59.8996Z" fill="#003D73"/> <path d="M94.5997 18.2004C94.5997 18.7004 94.6997 19.5004 94.1997 20.2004C93.9997 20.5004 93.6997 20.7004 93.1997 20.8004C93.7997 22.2004 94.2997 23.6004 94.7997 24.9004C95.4997 24.6004 96.1997 24.4004 96.8997 24.1004C96.5997 23.3004 96.3997 22.6004 96.0997 21.8004C98.6997 20.8004 101.3 19.9004 104 19.0004C104.4 19.9004 104.7 20.5004 105.1 21.4004C105.8 21.1004 106.5 20.8004 107.2 20.6004C106.6 19.1004 106 17.6004 105.4 16.0004C104.9 16.2004 104.4 16.4004 103.9 16.5004L100.3 6.40039L92.6997 9.00039C92.9997 10.2004 93.2997 11.2004 93.4997 12.0004C93.5997 12.0004 94.2997 14.9004 94.5997 18.2004ZM98.6997 9.00039C99.6997 11.8004 100.6 14.6004 101.6 17.4004C100.1 18.0004 98.5997 18.6004 97.0997 19.2004C97.0997 17.9004 96.8997 16.3004 96.5997 14.6004C96.2997 12.9004 95.8997 11.4004 95.4997 10.2004C95.8997 10.0004 96.2997 9.90039 96.6997 9.70039C97.3997 9.50039 97.9997 9.20039 98.6997 9.00039Z" fill="#003D73"/> <path d="M88.6998 72.3L92.8998 70C90.9998 66.7 89.0998 63.4 87.0998 60.1L97.9998 54L103.8 63.6L107.8 61.5L94.0998 38L90.2998 40.3C90.3998 40.4 92.9998 45.1 93.0998 45.3L95.7998 50.2L90.4998 53.3L85.1998 56.4C83.2998 53.1 81.2998 49.9 79.3998 46.6L75.2998 49C77.4998 53 79.5998 56.9 81.8998 60.7C84.1998 64.5 86.1998 68.6 88.6998 72.3Z" fill="#003D73"/> <path d="M127.7 11.0012C127.9 10.3012 128 9.80117 128 5.70117C128 5.10117 128 4.00117 128 2.70117C129.1 2.60117 130.2 2.40117 131.3 2.30117C131.5 3.90117 131.8 6.40117 131.9 8.00117C132.1 9.40117 132.3 11.9012 132.5 13.3012C133.2 13.3012 133.8 13.2012 134.5 13.2012C134 8.90117 133.6 4.50117 133.1 0.201172L125.5 1.00117C125.8 2.90117 125.9 4.50117 125.9 5.80117C126 10.1012 125.3 11.2012 124.7 11.8012C124.4 12.1012 124 12.3012 123.8 12.4012C123.9 13.2012 123.9 13.9012 124 14.7012C126.6 13.4012 127.4 11.9012 127.7 11.0012Z" fill="#003D73"/> <path d="M238.8 74.7012L216.3 89.5012C217.1 90.8012 218 92.1012 218.8 93.4012L228.7 87.0012C229.3 87.8012 229.8 88.6012 230.3 89.4012C230.5 89.8012 230.5 90.3012 230.3 90.7012C229.4 92.4012 228.4 94.1012 227.5 95.9012C226.6 97.7012 225.8 99.2012 224.9 100.801C224.5 101.401 224.5 102.101 224.8 102.701C225.5 104.001 226.3 105.201 227.3 106.301C231 99.2012 233.6 94.1012 234.1 93.2012C234.3 92.8012 234.5 92.5012 234.9 92.3012C235.3 92.1012 235.7 91.9012 236.2 92.0012C240.3 91.9012 244.5 91.7012 248.6 91.5012C248.9 91.5012 249.2 91.4012 249.6 91.3012C248.8 90.0012 248 88.8012 247.3 87.6012C247.2 87.5012 247.1 87.4012 247 87.3012C246.7 87.1012 246.3 87.0012 245.9 87.1012C245.2 87.2012 240.7 87.2012 234.2 87.3012L232.4 84.7012C235.4 82.6012 238.5 80.8012 241.4 78.5012L238.8 74.7012Z" fill="#003D73"/> <path d="M62.3 60.0008C63.9 67.5008 65.5 75.0008 67 82.5008C62.5 77.8008 58 73.6008 53.3 69.3008L50 72.8008C53.4 76.1008 56.5 79.2008 59.9 82.2008C63.3 85.2008 66.2 88.5008 69.7 91.4008L72.9 87.3008C71.2 80.1008 69.5 72.9008 67.8 65.7008L81.5 78.7008L84.7 75.3008C81.4 72.1008 78.2 68.9008 74.9 65.9008C71.6 62.9008 68.6 59.7008 65.2 56.8008L62.3 60.0008Z" fill="#003D73"/> <path d="M159.9 8.50039C161.8 8.80039 163.8 9.00039 165.7 9.30039C165.5 11.1004 165.2 12.8004 165 14.6004C165.8 14.7004 166.7 14.8004 167.5 15.0004C168.1 10.7004 168.7 6.40039 169.3 2.10039C168.5 2.00039 167.6 1.90039 166.8 1.80039C166.5 3.50039 166.3 5.30039 166 7.00039C164.1 6.70039 162.2 6.50039 160.3 6.20039C160.5 4.50039 160.7 2.80039 160.9 1.10039C160.1 1.00039 159.4 0.900391 158.6 0.900391C158 5.20039 157.5 9.40039 156.9 13.7004C157.6 13.8004 158.4 13.9004 159.1 14.0004C159.4 12.1004 159.6 10.3004 159.9 8.50039Z" fill="#003D73"/> <path d="M167.7 31.5004L162.7 30.4004L147.6 54.5004L152.2 55.5004C153.6 53.5004 154.9 51.5004 156.3 49.5004L165.3 51.5004L166.1 58.6004L170.8 59.8004C169.8 50.3004 168.7 40.9004 167.7 31.5004ZM158.3 45.7004L163.9 36.0004L165 47.2004L158.3 45.7004Z" fill="#003D73"/> <path d="M142.6 13.0004C143 11.9004 143.4 10.8004 143.8 9.70039C145.2 9.70039 146.6 9.80039 148 9.80039C148.4 10.8004 148.7 11.9004 149.1 12.9004C149.9 12.9004 150.8 12.9004 151.6 12.9004C150.2 8.60039 148.7 4.20039 147.3 -0.0996094H144.7C143.1 4.20039 141.6 8.40039 140 12.7004C140.9 12.9004 141.8 13.0004 142.6 13.0004ZM146 2.80039C146.6 4.40039 147.1 6.10039 147.7 7.70039C146.6 7.70039 145.5 7.70039 144.3 7.60039C144.9 6.00039 145.4 4.40039 146 2.80039Z" fill="#003D73"/> <path d="M128.6 28.5006C129.1 37.5006 129.6 46.5006 130.2 55.4006C131.8 55.5006 133.4 55.3006 135 54.9006C134.8 51.8006 134.6 48.9006 134.4 45.8006C136.7 45.6006 138.6 45.5006 140.6 45.3006C143.2 45.2006 145.5 43.8006 146.9 41.6006C148.7 38.8006 148.8 35.2006 147.3 32.3006C145.7 28.9006 142.6 27.7006 139 27.8006C136.1 27.8006 133.3 28.1006 130.5 28.3006C129.9 28.3006 129.4 28.4006 128.6 28.5006ZM140.3 32.0006C141.2 32.1006 142.1 32.5006 142.8 33.1006C144.5 34.8006 144.7 37.4006 143.3 39.3006C142.4 40.5006 140.9 41.2006 139.4 41.3006H134.4C134.3 40.2006 134.2 38.0006 134.2 36.9006C134.1 35.4006 134 33.9006 133.9 32.2006L140.3 32.0006Z" fill="#003D73"/> <path d="M140.7 253.701H145.2C144.4 251.401 143.8 249.301 143.1 247.201C142.1 249.201 141.3 251.401 140.7 253.701Z" fill="#003D73"/> <path d="M247.2 227C245 228.7 242.5 230 239.8 230.8C237.4 231.7 234.8 232.3 232.3 232.6C229.8 232.9 227.3 233.3 224.7 233.4C219.1 233.7 213.5 233.2 208 232C205.1 231.4 202.3 230.4 199.7 229.1C198.3 228.3 196.9 227.5 195.6 226.7C192.9 228.5 190 230 186.9 231C184.5 231.8 182 232.3 179.5 232.8C178 233.1 176.6 233.3 175.1 233.4C170.5 233.3 165.9 233.9 161.3 233C159.3 232.6 157.2 232.4 155.2 232C152.1 231.4 149 230.2 146.3 228.6C145.3 228 144.3 227.4 143.3 226.8C142.5 227.3 141.8 227.8 141.1 228.3C135.6 231.7 129.4 233 123.1 233.4C116.4 234 109.7 233.6 103.1 232.1C99.9 231.4 96.8 230.2 93.9 228.5C93 227.9 92.1 227.3 91.2 226.8C87.9 229.2 84.2 230.9 80.2 231.8C78.6 232.2 77 232.5 75.3 232.7C72.8 233 70.3 233.4 67.8 233.5C63.2 233.7 58.7 233.4 54.2 232.7C51 232.2 47.8 231.3 44.8 230.1C42.7 229.2 40.8 228 38.7 226.8C35.9 229 32.5 230.3 29 231.7C29.6 232.7 30.1 233.5 30.7 234.3C31 234.7 31.4 235 31.7 235.3C38.2 243.3 45.5 250.6 53.5 257C57.5 260.2 61.7 263.3 66.1 266C70.7 268.8 75.3 271.5 80.1 274C83.2 275.6 86.5 276.9 89.8 278.2C93.5 279.7 97.2 281.2 101 282.3C104.8 283.4 108.8 284.5 112.8 285.4C116.5 286.2 120.2 286.9 123.9 287.4C127.6 287.9 131.2 288.4 134.8 288.5C139.2 288.7 143.6 288.6 148 288.6C152.9 288.5 157.8 288.2 162.7 287.5C163.9 287.4 165.1 287.3 166.2 287C169.9 286.3 173.6 285.5 177.2 284.7C179.5 284.2 181.8 283.7 184.1 283C189.4 281.4 194.7 279.5 199.8 277.3C201.3 276.6 202.9 276.1 204.4 275.4C209.7 272.9 214.8 270.1 219.8 267C222.6 265.2 225.4 263.5 228 261.5C232.4 258.4 236.6 254.9 240.6 251.2C242.1 249.7 243.8 248.4 245.3 246.9C249.2 242.9 252.9 238.8 256.4 234.4C257.2 233.6 257.8 232.7 258.2 231.6C254.5 230.5 251 228.8 247.8 226.6C247.6 226.7 247.4 226.8 247.2 227ZM93.5 251.9C93.4 257.9 89.3 262.1 83.4 262.1C77.6 262.5 73 257.2 73 251.7C73.2 246.1 77.7 241.7 83.3 241.6C87.8 241.7 93.6 245.3 93.5 251.9ZM151.5 261.9C150.5 262 149.5 262 148.5 261.9C148.2 261.9 147.8 261.4 147.6 261C147.2 260 146.9 259 146.6 257.9C146.5 257.3 146 256.9 145.4 257C143.8 257 142.2 257 140.6 257C140 256.9 139.4 257.4 139.3 258C139 259 138.7 260 138.4 260.9C138.3 261.5 137.7 262 137.1 262C136.2 262 135.4 262.2 134.4 261.7C134.5 261.2 134.6 260.6 134.7 260.1C136.7 254.6 138.7 249 140.7 243.5C141.2 242.1 141.3 242 142.8 242C143.2 242 143.5 242 143.9 242C144.6 241.9 145.2 242.4 145.4 243.1C145.7 244.1 146.1 245.2 146.5 246.2C148.3 251.2 150 256.2 151.7 261.2C151.6 261.4 151.6 261.6 151.5 261.9ZM177.8 242C181.4 242 185 242 188.7 242C189.3 242 189.8 242 190.4 242C191.3 242.1 191.6 242.4 191.6 243.3C191.6 243.5 191.6 243.6 191.6 243.8C191.6 245.3 191.4 245.5 189.9 245.6C188.8 245.6 187.6 245.6 186.5 245.6C186.1 245.6 185.8 245.6 185.3 245.7C185.3 246.3 185.2 246.8 185.2 247.4C185.2 251.6 185.2 255.8 185.2 260C185.2 262.1 185.1 262.2 183.1 262.2C181.7 262.2 181.5 262 181.5 260.6C181.5 256.4 181.5 252.2 181.5 248C181.5 245.7 181.5 245.7 179.2 245.7C178.2 245.7 177.1 245.7 176.1 245.6C175.9 245.6 175.7 245.5 175.5 245.4C174.7 242.1 174.9 241.9 177.8 242ZM163.7 241.8C166 241.6 168.4 242.2 170.3 243.5C171.4 244.3 171.4 244.6 170.7 245.8C170.4 246.3 170.1 246.7 169.8 247.1C168.5 246.5 167.1 246 165.7 245.5C162.3 244.7 158.9 246.8 158.1 250.2C158 250.7 157.9 251.1 157.9 251.6C157.7 253.7 158.6 255.8 160.2 257.1C162.8 259.2 165.1 259.1 168.1 257.6C168.7 257.2 169.4 256.8 170 256.3C170.3 256.6 170.5 256.8 170.8 257C172.1 258.6 172.1 259.1 170.4 260.3C166.8 263 159.1 262.9 156 258.2C153.8 255 153.4 250.9 155 247.4C156.6 243.7 159.6 241.9 163.7 241.8ZM117.7 253C117.9 249.9 118.1 246.7 118.2 243.6C118.3 242.1 118.3 242.1 119.8 242.1C122.8 242.1 125.7 242.1 128.6 242.1C130.1 242.1 130.3 242.3 130.3 243.8C130.3 249.3 130.3 254.8 130.3 260.3C130.3 260.9 130.2 261.4 130.1 262C129.2 262 128.5 262.1 127.8 262.1C126.8 262.1 126.5 261.8 126.5 260.8C126.5 259.8 126.5 258.7 126.5 257.7C126.5 254.2 126.5 250.8 126.5 247.3C126.5 245.7 126.4 245.6 124.8 245.6C124.1 245.6 123.5 245.6 122.8 245.6C122.1 245.6 121.7 245.9 121.7 246.7C121.7 248.4 121.6 250 121.5 251.6C121.3 253.4 121 255.3 120.6 257.1C120 259.6 118 261.6 115.4 262.1C114.9 262.2 114.4 262.2 114 262.2C114 261.2 113.9 260.2 114 259.3C114.1 259 114.3 258.7 114.6 258.5C116.9 257.3 117.6 255.2 117.7 253ZM109.6 243.4C109.6 243.7 109.6 244 109.6 244.3C109.6 245.1 109.2 245.4 108.5 245.4H104.9C104 245.4 103.1 245.4 102.3 245.4C101.3 245.4 101.1 245.6 101.1 246.6C101.1 247.6 101.1 248.4 101.1 249.6C102.5 249.6 103.8 249.5 105 249.6C110.6 249.8 112.3 254.7 110.4 258.9C109.7 260.5 108.2 261.6 106.5 261.7C103.8 261.9 101.1 261.9 98.4 261.9C97.4 261.9 97.2 261.7 97.2 260.4C97.2 256 97.2 251.7 97.2 247.3C97.2 245.9 97.2 244.6 97.2 243.3C97.2 242.3 97.4 242 98.5 242C101.7 242 104.9 242 108.1 242C109.3 242 109.6 242.3 109.6 243.4ZM211.6 260C211.6 260.4 211.6 260.8 211.5 261.2C211.4 261.5 211.2 261.8 211 261.9C210.1 262 209.3 262 208.4 261.9C208.2 261.9 208 261.5 207.9 261.2C207.8 260.8 207.8 260.4 207.8 260V250.2V249.3L207.5 249.2L204.5 253.8C202.9 256.3 201.3 258.7 199.7 261.2C199.1 262 196.6 262.4 195.9 261.8C195.7 261.5 195.5 261.2 195.5 260.8C195.5 260.2 195.5 259.6 195.5 258.9C195.5 253.9 195.5 248.9 195.5 243.8C195.5 243.2 195.3 242.3 196 242.2C196.9 242 197.9 242.1 198.9 242.3C199.1 242.3 199.3 243.1 199.3 243.5C199.3 247 199.3 250.4 199.3 253.9C199.3 254.3 199.4 254.7 199.6 255C200.2 254 200.9 253 201.6 252C203.5 249.1 205.3 246.2 207.2 243.3C207.5 242.8 207.9 242.2 208.3 242.1C209.2 242 210.1 242 210.9 242.1C211.1 242.1 211.4 242.6 211.5 242.9C211.6 243.4 211.6 243.8 211.6 244.3C211.6 249.5 211.6 254.7 211.6 260Z" fill="#003D73"/> <path d="M107.2 256C107.4 254.7 106.6 253.5 105.3 253.2C103.9 253 102.5 253 101.2 253.3V258.4C102.5 258.7 103.9 258.7 105.2 258.5C106.4 258.3 107.3 257.2 107.2 256Z" fill="#003D73"/> <path d="M77.2998 250.201C76.6998 252.501 77.2998 255.001 78.9998 256.801C80.3998 258.501 84.0998 259.301 86.1998 257.801C88.2998 256.301 89.5998 254.501 89.3998 252.101C89.5998 249.901 88.5998 247.801 86.7998 246.501C84.1998 244.501 80.3998 245.001 78.3998 247.701C77.8998 248.501 77.4998 249.301 77.2998 250.201Z" fill="#003D73"/> </g> <defs> <clipPath id="clip0"> <rect width="287.7" height="288.5" fill="white"/> </clipPath> </defs> </svg>