<svg width="16" height="16" viewBox="0 0 16 16" fill="none" xmlns="http://www.w3.org/2000/svg">
<path d="M7.67676 15.8594C11.252 15.8594 14.1982 12.9062 14.1982 9.33789C14.1982 5.7627 11.2451 2.80957 7.67676 2.80957C4.10156 2.80957 1.15527 5.7627 1.15527 9.33789C1.15527 12.9062 4.1084 15.8594 7.67676 15.8594ZM7.67676 14.916C4.58691 14.916 2.09863 12.4277 2.09863 9.33789C2.09863 6.24121 4.58008 3.75293 7.67676 3.75293C10.7666 3.75293 13.2549 6.24121 13.2617 9.33789C13.2686 12.4277 10.7734 14.916 7.67676 14.916ZM7.54688 10.6641C7.82715 10.6641 7.99805 10.4863 7.99805 10.2607V10.1514C7.99805 9.77539 8.19629 9.54297 8.66797 9.23535C9.30371 8.81152 9.70703 8.42871 9.70703 7.69727C9.70703 6.69238 8.80469 6.11133 7.73145 6.11133C6.65137 6.11133 5.94043 6.65137 5.7832 7.2666C5.75586 7.36914 5.74219 7.46484 5.74219 7.56738C5.74219 7.82031 5.93359 7.95703 6.125 7.95703C6.43945 7.95703 6.50098 7.78613 6.66504 7.57422C6.84277 7.15723 7.19141 6.87695 7.69727 6.87695C8.33301 6.87695 8.74316 7.23242 8.74316 7.74512C8.74316 8.18262 8.4834 8.41504 7.90234 8.81836C7.42383 9.16016 7.10254 9.49512 7.10254 10.1035V10.2197C7.10254 10.5137 7.2666 10.6641 7.54688 10.6641ZM7.5332 12.5439C7.88184 12.5439 8.17578 12.2705 8.17578 11.9219C8.17578 11.5801 7.88184 11.3066 7.5332 11.3066C7.18457 11.3066 6.89746 11.5869 6.89746 11.9219C6.89746 12.2637 7.19141 12.5439 7.5332 12.5439Z" fill="black"/>
</svg>
