<?xml version="1.0" encoding="UTF-8"?><!DOCTYPE svg PUBLIC "-//W3C//DTD SVG 1.1//EN" "http://www.w3.org/Graphics/SVG/1.1/DTD/svg11.dtd"><svg xmlns="http://www.w3.org/2000/svg" xmlns:xlink="http://www.w3.org/1999/xlink"><defs/><symbol id="account" viewBox="0 0 24 23"><path d="M12.16 22.688c6.13 0 11.18-5.063 11.18-11.18 0-6.13-5.063-11.192-11.18-11.192C6.031.316.98 5.38.98 11.508c0 6.117 5.063 11.18 11.18 11.18zm0-1.618a9.543 9.543 0 01-9.562-9.562 9.538 9.538 0 019.562-9.574 9.563 9.563 0 019.574 9.574c.012 5.297-4.265 9.562-9.574 9.562zm0-9.867c1.57.012 2.824-1.324 2.824-3.094 0-1.652-1.254-3.035-2.824-3.035-1.582 0-2.836 1.383-2.836 3.035 0 1.77 1.254 3.094 2.836 3.094zm-5.12 5.953h10.23c.398 0 .585-.27.585-.633 0-1.218-1.828-4.418-5.695-4.418-3.879 0-5.695 3.2-5.695 4.418 0 .364.176.633.574.633z"/></symbol><symbol id="arrow-path" viewBox="0 0 13 11"><path d="M.647 5.331c0 .17.076.335.212.465l4.287 4.28c.136.13.287.19.45.19a.587.587 0 00.61-.601.615.615 0 00-.172-.437L4.585 7.75 2.5 5.857l1.552.096h8.06c.368 0 .621-.26.621-.622 0-.37-.253-.629-.622-.629h-8.06l-1.544.096 2.078-1.894 1.45-1.476a.618.618 0 00.17-.438.587.587 0 00-.608-.6.652.652 0 00-.465.205L.859 4.859a.644.644 0 00-.212.472z"/></symbol><symbol id="arrow" viewBox="0 0 18 19"><path d="M13.09 6.25H4.91c-.175 0-.33.188-.387.468-.057.28-.005.593.13.779l4.092 5.6c.149.204.361.204.51 0l4.091-5.6c.136-.186.188-.498.13-.779-.057-.28-.211-.468-.385-.468z"/></symbol><symbol id="camera" viewBox="0 0 24 24"><path d="M12 16a3 3 0 100-6 3 3 0 000 6z"/><path d="M12 4h-2a1 1 0 00-1 1 2 2 0 01-2 2H5a2 2 0 00-2 2v9a2 2 0 002 2h14a2 2 0 002-2v-7m-6-5h6m-3-3v6"/></symbol><symbol id="cart-full" viewBox="0 0 23 23"><path d="M11.488 22.7c6.13 0 11.18-5.063 11.18-11.18 0-6.118-5.063-11.18-11.18-11.18C5.36.34.308 5.402.308 11.52c0 6.117 5.063 11.18 11.18 11.18zM4.457 7.007c0-.317.211-.54.527-.54h2.028c.457 0 .82.294.879.727l.117.856h9.387c.304 0 .48.176.48.445 0 .035-.012.129-.023.188l-.48 3.187c-.106.797-.517 1.277-1.337 1.277H8.758l.07.575c.047.375.27.562.656.562h6.364c.304 0 .515.211.515.527 0 .329-.21.54-.515.54h-6.41c-.973 0-1.512-.457-1.641-1.301l-.938-6.516H4.984c-.316 0-.527-.21-.527-.527zm4.29 10.148a.98.98 0 01.995-.996c.551 0 .996.434.996.996a.986.986 0 01-.996.985.978.978 0 01-.996-.985zm5.144 0a.998.998 0 011.007-.996.98.98 0 01.997.996.979.979 0 01-.997.985.995.995 0 01-1.007-.985z"/></symbol><symbol id="cart" viewBox="0 0 25 26"><path d="M20.863 4.945h-1.898C18.906 2.707 16.996.75 14.5.75c-2.508 0-4.418 1.957-4.465 4.195H8.137c-2.227 0-3.352 1.114-3.352 3.305v4.535a5.42 5.42 0 01.762-.047c.258 0 .516.012.773.047V8.332c0-1.219.645-1.863 1.84-1.863h12.668c1.172 0 1.852.644 1.852 1.863v11.39c0 1.231-.68 1.864-1.582 1.864h-8.93a5.786 5.786 0 01-.621 1.523h9.574c1.969 0 3.082-1.113 3.082-3.304V8.25c0-2.18-1.125-3.305-3.34-3.305zM14.5 2.203c1.688 0 2.883 1.266 2.93 2.742h-5.871C11.605 3.47 12.8 2.203 14.5 2.203zM5.547 25.207c3.023 0 5.555-2.508 5.555-5.543 0-3.047-2.508-5.555-5.555-5.555-3.035 0-5.543 2.508-5.543 5.555 0 3.047 2.508 5.543 5.543 5.543zm-3.504-5.543c0-.387.258-.633.633-.633h2.25v-2.25c0-.363.246-.62.62-.62.388 0 .634.257.634.62v2.25h2.25c.363 0 .62.246.62.633 0 .375-.257.621-.62.621H6.18v2.25c0 .375-.246.633-.633.633-.375 0-.621-.258-.621-.633v-2.25h-2.25c-.375 0-.633-.246-.633-.62z"/></symbol><symbol id="cart_add" viewBox="0 0 36 25"><path d="M1.613 5.914l3.226-4.3h12.903l3.226 4.3m-19.355 0v15.054a2.15 2.15 0 002.15 2.15h15.054a2.15 2.15 0 002.15-2.15V5.914m-19.354 0h19.355m-5.377 4.301a4.301 4.301 0 01-8.602 0m23.656-1.613v3.762m0 0v3.765m0-3.765h-3.763m3.763 0h3.763"/></symbol><symbol id="cart_new" viewBox="0 0 23 23"><path d="M11.488 22.7c6.13 0 11.18-5.063 11.18-11.18 0-6.118-5.063-11.18-11.18-11.18C5.36.34.308 5.402.308 11.52c0 6.117 5.063 11.18 11.18 11.18zM4.457 7.007c0-.317.211-.54.527-.54h2.028c.457 0 .82.294.879.727l.117.856h9.387c.304 0 .48.176.48.445 0 .035-.012.129-.023.188l-.48 3.187c-.106.797-.517 1.277-1.337 1.277H8.758l.07.575c.047.375.27.562.656.562h6.364c.304 0 .515.211.515.527 0 .329-.21.54-.515.54h-6.41c-.973 0-1.512-.457-1.641-1.301l-.938-6.516H4.984c-.316 0-.527-.21-.527-.527zm4.29 10.148a.98.98 0 01.995-.996c.551 0 .996.434.996.996a.986.986 0 01-.996.985.978.978 0 01-.996-.985zm5.144 0a.998.998 0 011.007-.996.98.98 0 01.997.996.979.979 0 01-.997.985.995.995 0 01-1.007-.985z"/></symbol><symbol id="chevron" viewBox="0 0 16 11"><path d="M1.6.5L8 7.167 14.4.5 16 2.167 8 10.5 0 2.167 1.6.5z"/></symbol><symbol id="close-circle" viewBox="0 0 13 12"><path d="M6.938 11.945c3.263 0 5.94-2.677 5.94-5.941 0-3.27-2.677-5.947-5.946-5.947C3.668.057.99 2.734.99 6.004c0 3.264 2.678 5.941 5.947 5.941zM5.215 8.424a.702.702 0 01-.492-1.207l1.2-1.207-1.2-1.207a.702.702 0 01.492-1.207c.217 0 .387.07.527.21l1.19 1.19 1.2-1.19a.694.694 0 01.528-.21.698.698 0 01.492 1.2L7.957 6.01l1.195 1.207a.68.68 0 01.217.492c0 .404-.31.715-.715.715a.706.706 0 01-.527-.211L6.932 7.029 5.748 8.213a.706.706 0 01-.533.21z"/></symbol><symbol id="close" viewBox="0 0 14 14"><path d="M.408 11.998c-.378.387-.395 1.072.009 1.468.404.395 1.081.386 1.468.009l4.992-4.993 4.983 4.993c.396.386 1.073.395 1.468-.01.396-.403.404-1.071.009-1.467L8.345 7.006l4.992-4.984a1.048 1.048 0 00-.009-1.467 1.065 1.065 0 00-1.468-.01L6.877 5.539 1.885.546C1.498.168.812.15.417.555.021.959.03 1.635.408 2.014L5.4 7.006.408 11.998z"/></symbol><symbol id="copy" viewBox="0 0 210.107 210.107"><path d="M168.506 0H80.235C67.413 0 56.981 10.432 56.981 23.254v2.854h-15.38c-12.822 0-23.254 10.432-23.254 23.254v137.492c0 12.822 10.432 23.254 23.254 23.254h88.271c12.822 0 23.253-10.432 23.253-23.254V184h15.38c12.822 0 23.254-10.432 23.254-23.254V23.254C191.76 10.432 181.328 0 168.506 0zm-30.38 186.854c0 4.551-3.703 8.254-8.253 8.254H41.601c-4.551 0-8.254-3.703-8.254-8.254V49.361c0-4.551 3.703-8.254 8.254-8.254h88.271c4.551 0 8.253 3.703 8.253 8.254v137.493zm38.634-26.108c0 4.551-3.703 8.254-8.254 8.254h-15.38V49.361c0-12.822-10.432-23.254-23.253-23.254H71.981v-2.854c0-4.551 3.703-8.254 8.254-8.254h88.271c4.551 0 8.254 3.703 8.254 8.254v137.493z"/></symbol><symbol id="delete-icon" viewBox="0 0 512 512"><path d="M437.02 74.98C388.668 26.63 324.379 0 256 0S123.332 26.629 74.98 74.98C26.63 123.332 0 187.621 0 256c0 68.383 26.629 132.668 74.98 181.02C123.332 485.37 187.621 512 256 512s132.668-26.629 181.02-74.98C485.37 388.668 512 324.383 512 256c0-68.379-26.629-132.668-74.98-181.02zm-70.293 256.387c9.761 9.766 9.761 25.594 0 35.356-4.883 4.882-11.282 7.324-17.68 7.324s-12.797-2.442-17.68-7.324L256 291.355l-75.367 75.372c-4.883 4.878-11.281 7.32-17.68 7.32s-12.797-2.442-17.68-7.32c-9.761-9.766-9.761-25.594 0-35.356L220.645 256l-75.372-75.367c-9.761-9.766-9.761-25.594 0-35.356 9.766-9.765 25.594-9.765 35.356 0L256 220.645l75.367-75.368c9.766-9.761 25.594-9.765 35.356 0 9.765 9.762 9.765 25.59 0 35.356L291.355 256zm0 0"/></symbol><symbol id="edit-icon" viewBox="0 0 24 24"><path d="M11.895 23.766c6.527 0 11.882-5.356 11.882-11.883C23.777 5.343 18.422 0 11.883 0 5.355 0 0 5.344 0 11.883c0 6.527 5.355 11.883 11.895 11.883zm4.453-14.66L14.53 7.3l.82-.844c.47-.48 1.09-.492 1.547-.035l.329.316c.445.446.445 1.078-.036 1.559l-.843.808zm-7.7 7.699l-1.605.61c-.516.198-1.043-.294-.832-.833l.621-1.594 6.973-6.996 1.84 1.84-6.997 6.973z"/></symbol><symbol id="error" viewBox="0 0 16 16"><path d="M5.598 15.358h4.804c1.01 0 1.519-.326 2.044-.91l2.895-3.211c.526-.593.659-.976.659-1.777V5.906c0-.8-.133-1.184-.659-1.777L12.446.91C11.921.334 11.412 0 10.403 0H5.596c-1 0-1.51.334-2.035.91L.667 4.13C.142 4.721 0 5.104 0 5.905V9.46c0 .8.142 1.184.667 1.777l2.895 3.211c.526.584 1.034.91 2.036.91zm.408-1.36c-.767 0-1-.167-1.435-.642l-2.636-2.912c-.317-.35-.383-.55-.383-1.134V6.048c0-.576.066-.776.383-1.126l2.636-2.92c.434-.467.668-.642 1.435-.642h3.988c.776 0 1.01.175 1.443.642l2.636 2.92c.309.35.384.55.384 1.126V9.31c0 .584-.075.784-.384 1.134l-2.636 2.912c-.434.475-.667.642-1.443.642H6.006zm-.65-2.986c.183 0 .35-.076.475-.2l2.177-2.195 2.186 2.194c.125.117.284.2.475.2.367 0 .66-.3.66-.667a.606.606 0 00-.2-.467L8.95 7.691l2.186-2.202a.597.597 0 00.2-.459.655.655 0 00-.66-.659.597.597 0 00-.458.2l-2.21 2.194L5.813 4.58a.593.593 0 00-.458-.192.655.655 0 00-.668.65c0 .176.075.334.2.46L7.074 7.69 4.888 9.885a.617.617 0 00-.2.46c0 .366.3.666.668.666z"/></symbol><symbol id="mail" viewBox="0 0 22 17"><path d="M3.209 16.329h15.483c1.682 0 2.615-.944 2.615-2.738V2.896c0-1.784-.943-2.728-2.748-2.728H3.076C1.404.168.47 1.091.47 2.896v10.695c0 1.805.933 2.738 2.738 2.738zm6.532-7.311L2.03 1.44c.287-.215.687-.318 1.169-.318h15.37c.513 0 .923.123 1.22.37l-7.67 7.526c-.41.41-.82.574-1.189.574-.359 0-.79-.175-1.19-.574zM1.425 13.58V2.906c0-.246.02-.461.072-.656L7.73 8.33l-6.204 6a2.36 2.36 0 01-.102-.75zM20.353 2.906v10.675c0 .256-.03.482-.092.676L14.14 8.331l6.142-6.01c.051.175.072.37.072.585zM3.2 15.375c-.451 0-.82-.092-1.097-.277l6.295-6.111.76.738c.604.595 1.21.82 1.773.82.574 0 1.17-.225 1.774-.82l.77-.738 6.254 6.06c-.297.215-.687.328-1.159.328H3.2z"/></symbol><symbol id="phone" viewBox="0 0 24 25"><path d="M12.34 22.836c5.271 0 9.609-4.337 9.609-9.608 0-5.27-4.338-9.618-9.608-9.618-5.27 0-9.608 4.348-9.608 9.618 0 5.27 4.337 9.608 9.608 9.608zm0-1.036a8.562 8.562 0 01-8.571-8.572 8.564 8.564 0 018.572-8.582 8.573 8.573 0 018.582 8.582 8.57 8.57 0 01-8.582 8.572zm-2.542-6.214c2.215 2.215 5.23 3.733 6.993 1.98.051-.052.072-.093.103-.134.553-.574.646-1.169.184-1.579-.267-.215-.584-.43-1.866-1.302-.472-.339-.882-.318-1.374.154l-.41.4c-.103.112-.277.112-.42.03a8.969 8.969 0 01-1.539-1.22c-.584-.584-1.035-1.21-1.21-1.528-.072-.133-.082-.277.02-.4l.41-.44c.462-.503.473-.903.145-1.375L9.583 8.398c-.441-.625-1.077-.276-1.62.093-.062.03-.103.082-.134.113-1.764 1.763-.246 4.768 1.969 6.982z"/></symbol><symbol id="reset" viewBox="0 0 13 12"><path d="M6.938 11.945c3.263 0 5.94-2.677 5.94-5.941 0-3.27-2.677-5.947-5.946-5.947C3.668.057.99 2.734.99 6.004c0 3.264 2.678 5.941 5.947 5.941zM5.215 8.424a.702.702 0 01-.492-1.207l1.2-1.207-1.2-1.207a.702.702 0 01.492-1.207c.217 0 .387.07.527.21l1.19 1.19 1.2-1.19a.694.694 0 01.528-.21.698.698 0 01.492 1.2L7.957 6.01l1.195 1.207a.68.68 0 01.217.492c0 .404-.31.715-.715.715a.706.706 0 01-.527-.211L6.932 7.029 5.748 8.213a.706.706 0 01-.533.21z"/></symbol><symbol id="round-plus" viewBox="0 0 56 56"><circle cx="28" cy="28" r="27"/><path d="M28 18.133V37.85M38 28l-19.859-.008"/></symbol><symbol id="search" viewBox="0 0 24 23"><path d="M12.16 22.688c6.13 0 11.18-5.063 11.18-11.18 0-6.13-5.063-11.192-11.18-11.192C6.031.316.98 5.38.98 11.508c0 6.117 5.063 11.18 11.18 11.18zm0-1.618a9.543 9.543 0 01-9.562-9.562 9.538 9.538 0 019.562-9.574 9.563 9.563 0 019.574 9.574c.012 5.297-4.265 9.562-9.574 9.562zm-1.23-6.28a4.5 4.5 0 002.52-.763l2.964 2.954c.2.222.41.316.703.316.469 0 .797-.352.797-.832 0-.235-.117-.434-.27-.61l-2.988-2.988c.528-.75.844-1.664.844-2.637 0-2.52-2.05-4.57-4.57-4.57-2.496 0-4.559 2.063-4.559 4.57 0 2.508 2.063 4.56 4.559 4.56zm.011-1.313c-1.78 0-3.257-1.477-3.257-3.258 0-1.77 1.476-3.246 3.257-3.246a3.26 3.26 0 013.246 3.246c0 1.781-1.464 3.258-3.246 3.258z"/></symbol></svg>