<svg width="351" height="667" viewBox="0 0 351 667" fill="none" xmlns="http://www.w3.org/2000/svg">
<path opacity="0.1" d="M729.168 808.329C728.858 804.728 728.672 801.066 728.672 797.404C728.669 792.965 728.918 788.53 729.417 784.12C732.01 758.832 742.154 734.911 758.529 715.467C760.081 713.543 770.013 703.052 773.551 700.259C822.59 651.269 852.009 586.029 856.26 516.842C860.51 447.656 839.297 379.305 796.623 324.681C753.949 270.057 692.762 232.936 624.603 220.318C556.444 207.701 486.023 220.459 426.623 256.187L462.44 405.784C486.905 395.63 513.282 390.906 539.751 391.936C566.219 392.967 592.149 399.727 615.751 411.751C639.354 423.775 660.066 440.777 676.46 461.583C692.854 482.389 704.539 506.504 710.708 532.264C716.878 558.024 717.385 584.816 712.195 610.791C707.005 636.766 696.242 661.307 680.648 682.718C665.053 704.13 644.999 721.904 621.869 734.813C598.739 747.722 573.084 755.459 546.673 757.491L552.88 782.693L567.095 841.972V842.655C567.577 844.274 567.889 845.938 568.026 847.621C556.667 848.676 545.121 849.297 533.451 849.297C437.343 849.318 345.114 811.385 276.831 743.753C208.547 676.12 169.733 584.259 168.833 488.155C172.987 487.99 177.131 487.618 181.248 487.037C245.742 475.864 308.932 424.033 322.588 354.697C328.877 329.381 329.12 302.94 323.297 277.512C317.474 252.085 305.749 228.385 289.069 208.328V139.613H463.991C476.067 139.671 488.035 137.339 499.206 132.751C510.376 128.164 520.529 121.412 529.08 112.885C537.63 104.358 544.409 94.223 549.027 83.0647C553.644 71.9064 556.009 59.9449 555.984 47.869C555.454 24.8852 546.142 2.97699 529.963 -13.3557C513.783 -29.6884 491.963 -39.2056 468.986 -39.9525C446.008 -40.6993 423.616 -32.6192 406.41 -17.3716C389.204 -2.12404 378.49 19.1333 376.468 42.0342C363.528 25.1515 344.412 14.1006 323.324 11.3126C302.236 8.52459 280.905 14.2278 264.022 27.1676C247.14 40.1074 236.089 59.2238 233.301 80.3115C230.513 101.399 236.216 122.731 249.156 139.613H153.625L263.743 220.309L212.346 265.746C211.497 266.422 210.689 267.147 209.925 267.919L208.994 268.664C202.107 275.373 197.377 283.982 195.407 293.393C193.437 302.804 194.317 312.588 197.935 321.496C201.553 330.404 207.744 338.031 215.718 343.403C223.691 348.775 233.086 351.648 242.7 351.656C249.435 351.632 256.092 350.216 262.253 347.497C261.388 372.079 251.704 395.53 234.973 413.561C218.241 431.592 195.579 442.999 171.13 445.697C167.832 446.07 164.516 446.257 161.198 446.255H159.956C146.52 446.263 133.214 443.623 120.8 438.485C108.385 433.347 97.1043 425.812 87.6035 416.311C78.1028 406.811 70.5679 395.53 65.4299 383.116C60.2919 370.701 57.6515 357.395 57.6597 343.959C57.6359 337.483 58.2178 331.02 59.3977 324.654C41.9873 347.277 28.0726 372.386 18.119 399.142L15.8844 405.349C1.40818 446.985 -3.26185 491.401 2.23794 535.138C7.73772 578.875 23.2589 620.752 47.5927 657.508C71.9266 694.264 104.416 724.907 142.532 747.051C180.647 769.194 223.36 782.241 267.343 785.175C300.263 812.819 337.426 834.974 377.399 850.787L338.727 970.092C337.425 973.089 335.438 975.74 332.927 977.831C330.415 979.922 327.448 981.396 324.264 982.134L243.569 996.969C240.544 997.496 237.801 999.073 235.825 1001.42C233.849 1003.77 232.767 1006.75 232.768 1009.82V1022.85H447.107L444.687 1006.84C444.32 1004.42 443.291 1002.15 441.714 1000.27C440.136 998.399 438.072 996.998 435.748 996.224L395.4 983.189C392.769 982.347 390.473 980.691 388.845 978.46C387.216 976.228 386.338 973.537 386.338 970.774L416.878 864.133C448.978 873.107 482.067 878.07 515.388 878.906H525.32C529.913 878.906 534.507 878.906 538.914 878.906L547.977 969.223C548.085 973.033 546.924 976.771 544.677 979.849C542.43 982.928 539.224 985.173 535.562 986.231L492.111 996.721C482.365 999.577 479.075 1010.13 479.075 1023.16H693.662C693.662 1011.06 694.283 999.08 683.793 997.404L608.188 986.045C602.463 985.708 597.096 983.153 593.224 978.923C589.353 974.692 587.284 969.12 587.455 963.388L579.51 877.913C588.269 891.17 601.475 900.862 616.748 905.244C632.021 909.626 648.357 908.408 662.812 901.811C680.582 915.123 702.073 922.538 724.271 923.017C746.468 923.495 768.259 917.014 786.586 904.48C770.411 893.889 756.858 879.755 746.953 863.15C737.048 846.545 731.051 827.904 729.417 808.639L729.168 808.329ZM45.5554 499.266C45.8493 484.247 47.0516 469.26 49.1556 454.387C70.9652 470.718 96.3872 481.555 123.271 485.982C124.39 585.994 163.463 681.846 232.582 754.139C178.385 737.138 131.024 703.291 97.3873 657.519C63.751 611.748 45.5934 556.44 45.5554 499.638" fill="white"/>
</svg>
