<svg width="1440" height="900" preserveAspectRatio='none' viewBox="0 0 1440 900" fill="none" xmlns="http://www.w3.org/2000/svg">
<mask id="mask0" mask-type="alpha" maskUnits="userSpaceOnUse" x="0" y="0" width="1440" height="900">
<rect width="1440" height="900" fill="#003D73"/>
</mask>
<g mask="url(#mask0)">
<g opacity="0.1">
<path d="M228.462 652.329C228.151 648.728 227.965 645.066 227.965 641.404C227.962 636.965 228.211 632.53 228.71 628.12C231.303 602.832 241.448 578.911 257.823 559.467C259.374 557.543 269.306 547.052 272.844 544.259C321.884 495.269 351.303 430.029 355.553 360.842C359.803 291.656 338.591 223.305 295.916 168.681C253.242 114.057 192.055 76.936 123.896 64.3184C55.7372 51.7009 -14.6831 64.4591 -74.0833 100.187L-38.267 249.784C-13.8015 239.63 12.5755 234.906 39.044 235.936C65.5126 236.967 91.4425 243.727 115.045 255.751C138.647 267.775 159.36 284.777 175.753 305.583C192.147 326.389 203.832 350.504 210.002 376.264C216.171 402.024 216.678 428.816 211.489 454.791C206.299 480.766 195.535 505.307 179.941 526.718C164.347 548.13 144.293 565.904 121.162 578.813C98.0324 591.722 72.377 599.459 45.9664 601.491L52.1738 626.693L66.3885 685.972V686.655C66.8704 688.274 67.1824 689.938 67.3196 691.621C55.9602 692.676 44.4146 693.297 32.7448 693.297C-63.3637 693.318 -155.592 655.385 -223.876 587.753C-292.16 520.12 -330.974 428.259 -331.874 332.155C-327.719 331.99 -323.576 331.618 -319.459 331.037C-254.965 319.864 -191.774 268.033 -178.118 198.697C-171.829 173.381 -171.586 146.94 -177.409 121.512C-183.232 96.0849 -194.958 72.3847 -211.638 52.3284V-16.3867H-36.7152C-24.6394 -16.3293 -12.6716 -18.6614 -1.50084 -23.2486C9.66989 -27.8358 19.8228 -34.5875 28.3733 -43.1149C36.9238 -51.6424 43.7029 -61.777 48.3203 -72.9353C52.9377 -84.0936 55.3021 -96.0551 55.2774 -108.131C54.747 -131.115 45.4357 -153.023 29.2561 -169.356C13.0765 -185.688 -8.74309 -195.206 -31.7209 -195.952C-54.6987 -196.699 -77.0902 -188.619 -94.2963 -173.372C-111.502 -158.124 -122.217 -136.867 -124.238 -113.966C-137.178 -130.849 -156.295 -141.899 -177.382 -144.687C-198.47 -147.475 -219.802 -141.772 -236.684 -128.832C-253.567 -115.893 -264.618 -96.7762 -267.406 -75.6885C-270.194 -54.6008 -264.491 -33.2693 -251.551 -16.3867H-347.082L-236.964 64.3086L-288.36 109.746C-289.21 110.422 -290.018 111.147 -290.781 111.919L-291.712 112.664C-298.599 119.373 -303.33 127.982 -305.3 137.393C-307.27 146.804 -306.39 156.588 -302.772 165.496C-299.154 174.404 -292.963 182.031 -284.989 187.403C-277.015 192.775 -267.621 195.649 -258.006 195.656C-251.272 195.632 -244.615 194.216 -238.453 191.497C-239.319 216.079 -249.002 239.53 -265.734 257.561C-282.465 275.592 -305.127 286.999 -329.577 289.697C-332.874 290.07 -336.19 290.257 -339.509 290.255H-340.75C-354.186 290.264 -367.492 287.623 -379.907 282.485C-392.322 277.347 -403.602 269.812 -413.103 260.311C-422.604 250.811 -430.139 239.53 -435.277 227.116C-440.415 214.701 -443.055 201.395 -443.047 187.959C-443.071 181.483 -442.489 175.02 -441.309 168.654C-458.719 191.277 -472.634 216.386 -482.588 243.142L-484.822 249.349C-499.298 290.985 -503.968 335.401 -498.469 379.138C-492.969 422.875 -477.448 464.752 -453.114 501.508C-428.78 538.264 -396.29 568.907 -358.175 591.051C-320.059 613.194 -277.347 626.241 -233.363 629.175V629.175C-200.443 656.819 -163.281 678.974 -123.307 694.787L-161.979 814.092C-163.282 817.089 -165.268 819.74 -167.78 821.831C-170.292 823.922 -173.258 825.396 -176.442 826.134L-257.137 840.969C-260.163 841.496 -262.905 843.073 -264.881 845.424C-266.857 847.775 -267.94 850.748 -267.938 853.819V866.854H-53.5991L-56.02 850.839C-56.3867 848.418 -57.4156 846.145 -58.993 844.272C-60.5704 842.399 -62.635 840.998 -64.9585 840.225L-105.306 827.189C-107.937 826.347 -110.233 824.691 -111.862 822.46C-113.491 820.228 -114.369 817.537 -114.369 814.774L-83.8288 708.133C-51.7283 717.107 -18.6394 722.07 14.6815 722.906H24.6132C29.2066 722.906 33.8001 722.906 38.2073 722.906L47.27 813.223C47.3785 817.033 46.2179 820.771 43.9707 823.849C41.7235 826.928 38.5171 829.173 34.8553 830.231L-8.59599 840.721C-18.3415 843.577 -21.6314 854.129 -21.6314 867.164H192.956C192.956 855.06 193.577 843.08 183.086 841.404L107.481 830.045C101.757 829.708 96.389 827.153 92.5179 822.923C88.6468 818.692 86.5771 813.12 86.7486 807.388L78.8032 721.913C87.5623 735.17 100.768 744.862 116.041 749.244C131.315 753.626 147.651 752.408 162.106 745.811C179.875 759.123 201.366 766.538 223.564 767.017C245.762 767.495 267.552 761.014 285.88 748.48C269.704 737.889 256.151 723.755 246.246 707.15C236.341 690.545 230.345 671.904 228.71 652.639L228.462 652.329ZM-455.151 343.266C-454.857 328.247 -453.655 313.26 -451.551 298.387C-429.741 314.718 -404.319 325.555 -377.435 329.982C-376.317 429.994 -337.244 525.847 -268.124 598.139C-322.322 581.138 -369.683 547.291 -403.319 501.519C-436.956 455.748 -455.113 400.44 -455.151 343.638" fill="white"/>
</g>
<g opacity="0.1">
<path d="M1267.63 459.329C1267.94 455.728 1268.12 452.066 1268.12 448.404C1268.13 443.965 1267.88 439.53 1267.38 435.12C1264.78 409.832 1254.64 385.911 1238.27 366.467C1236.71 364.543 1226.78 354.052 1223.24 351.259C1174.2 302.269 1144.79 237.029 1140.53 167.842C1136.28 98.6556 1157.5 30.3049 1200.17 -24.3189C1242.85 -78.9428 1304.03 -116.064 1372.19 -128.682C1440.35 -141.299 1510.77 -128.541 1570.17 -92.8131L1534.35 56.7835C1509.89 46.6304 1483.51 41.9061 1457.04 42.9364C1430.58 43.9667 1404.65 50.7272 1381.04 62.7513C1357.44 74.7755 1336.73 91.7771 1320.33 112.583C1303.94 133.389 1292.26 157.504 1286.09 183.264C1279.92 209.024 1279.41 235.816 1284.6 261.791C1289.79 287.766 1300.55 312.307 1316.15 333.718C1331.74 355.13 1351.8 372.904 1374.93 385.813C1398.06 398.722 1423.71 406.459 1450.12 408.491L1443.91 433.693L1429.7 492.972V493.655C1429.22 495.274 1428.91 496.938 1428.77 498.621C1440.13 499.676 1451.67 500.297 1463.34 500.297C1559.45 500.318 1651.68 462.385 1719.96 394.753C1788.25 327.12 1827.06 235.259 1827.96 139.155C1823.81 138.99 1819.66 138.618 1815.55 138.037C1751.05 126.864 1687.86 75.0331 1674.21 5.69724C1667.92 -19.619 1667.67 -46.0601 1673.5 -71.4876C1679.32 -96.9151 1691.05 -120.615 1707.73 -140.672V-209.387H1532.8C1520.73 -209.329 1508.76 -211.661 1497.59 -216.249C1486.42 -220.836 1476.27 -227.588 1467.71 -236.115C1459.16 -244.642 1452.38 -254.777 1447.77 -265.935C1443.15 -277.094 1440.79 -289.055 1440.81 -301.131C1441.34 -324.115 1450.65 -346.023 1466.83 -362.356C1483.01 -378.688 1504.83 -388.206 1527.81 -388.952C1550.79 -389.699 1573.18 -381.619 1590.38 -366.372C1607.59 -351.124 1618.3 -329.867 1620.33 -306.966C1633.27 -323.849 1652.38 -334.899 1673.47 -337.687C1694.56 -340.475 1715.89 -334.772 1732.77 -321.832C1749.65 -308.893 1760.71 -289.776 1763.49 -268.688C1766.28 -247.601 1760.58 -226.269 1747.64 -209.387H1843.17L1733.05 -128.691L1784.45 -83.2538C1785.3 -82.5783 1786.11 -81.8529 1786.87 -81.0812L1787.8 -80.3363C1794.69 -73.6274 1799.42 -65.0176 1801.39 -55.607C1803.36 -46.1964 1802.48 -36.4122 1798.86 -27.5042C1795.24 -18.5962 1789.05 -10.969 1781.08 -5.5968C1773.1 -0.224648 1763.71 2.64851 1754.09 2.65564C1747.36 2.63196 1740.7 1.21602 1734.54 -1.50326C1735.41 23.0795 1745.09 46.5297 1761.82 64.5606C1778.55 82.5916 1801.22 93.9987 1825.66 96.6967C1828.96 97.0701 1832.28 97.2566 1835.6 97.2553H1836.84C1850.27 97.2635 1863.58 94.6231 1875.99 89.4851C1888.41 84.347 1899.69 76.8122 1909.19 67.3115C1918.69 57.8107 1926.23 46.5304 1931.36 34.1155C1936.5 21.7006 1939.14 8.39464 1939.13 -5.04146C1939.16 -11.5165 1938.58 -17.9796 1937.4 -24.3462C1954.81 -1.72303 1968.72 23.3862 1978.68 50.1417L1980.91 56.349C1995.39 97.9854 2000.06 142.401 1994.56 186.138C1989.06 229.875 1973.54 271.752 1949.2 308.508C1924.87 345.264 1892.38 375.907 1854.26 398.051C1816.15 420.194 1773.43 433.241 1729.45 436.175V436.175C1696.53 463.819 1659.37 485.974 1619.4 501.787L1658.07 621.092C1659.37 624.089 1661.36 626.74 1663.87 628.831C1666.38 630.922 1669.35 632.396 1672.53 633.134L1753.23 647.969C1756.25 648.496 1758.99 650.073 1760.97 652.424C1762.95 654.775 1764.03 657.748 1764.03 660.819V673.854H1549.69L1552.11 657.839C1552.47 655.418 1553.5 653.145 1555.08 651.272C1556.66 649.399 1558.72 647.998 1561.05 647.225L1601.39 634.189C1604.03 633.347 1606.32 631.691 1607.95 629.46C1609.58 627.228 1610.46 624.537 1610.46 621.774L1579.92 515.133C1547.82 524.107 1514.73 529.07 1481.41 529.906H1471.47C1466.88 529.906 1462.29 529.906 1457.88 529.906L1448.82 620.223C1448.71 624.033 1449.87 627.771 1452.12 630.849C1454.36 633.928 1457.57 636.173 1461.23 637.231L1504.68 647.721C1514.43 650.577 1517.72 661.129 1517.72 674.164H1303.13C1303.13 662.06 1302.51 650.08 1313 648.404L1388.61 637.045C1394.33 636.708 1399.7 634.153 1403.57 629.923C1407.44 625.692 1409.51 620.12 1409.34 614.388L1417.28 528.913C1408.53 542.17 1395.32 551.862 1380.05 556.244C1364.77 560.626 1348.44 559.408 1333.98 552.811C1316.21 566.123 1294.72 573.538 1272.52 574.017C1250.33 574.495 1228.54 568.014 1210.21 555.48C1226.38 544.889 1239.94 530.755 1249.84 514.15C1259.75 497.545 1265.74 478.904 1267.38 459.639L1267.63 459.329ZM1951.24 150.266C1950.95 135.247 1949.74 120.26 1947.64 105.387C1925.83 121.718 1900.41 132.555 1873.52 136.982C1872.4 236.994 1833.33 332.847 1764.21 405.139C1818.41 388.138 1865.77 354.291 1899.41 308.519C1933.04 262.748 1951.2 207.44 1951.24 150.638" fill="white"/>
</g>
</g>
</svg>
