<svg width="30" height="30" viewBox="0 0 30 30" fill="none" xmlns="http://www.w3.org/2000/svg">
<path d="M0 15C0 6.71573 6.71573 0 15 0C23.2843 0 30 6.71573 30 15C30 23.2843 23.2843 30 15 30C6.71573 30 0 23.2843 0 15Z" fill="white"/>
<path d="M15 0C6.72414 0 0 6.72414 0 15C0 23.2759 6.72414 30 15 30C23.2759 30 30 23.2759 30 15C30 6.72414 23.2759 0 15 0ZM19.4118 8.61055C18.712 8.61055 17.9817 8.61055 17.2819 8.61055C16.8256 8.58012 16.3692 8.91481 16.2779 9.3712C16.2779 10.1623 16.2779 10.9229 16.2779 11.714C17.3124 11.714 18.3773 11.714 19.4118 11.714C19.3205 12.8398 19.1988 13.9655 19.0162 15.0913C18.1034 15.0913 17.1602 15.0913 16.2475 15.0913C16.2475 18.4381 16.2475 21.7546 16.2475 25.071C14.8783 25.071 13.5091 25.071 12.1095 25.071C12.0791 21.7241 12.1095 18.4077 12.1095 15.0609C11.4402 15.0609 10.7708 15.0609 10.1014 15.0609C10.1014 13.9351 10.1014 12.8093 10.1014 11.714C10.7708 11.714 11.4402 11.714 12.1095 11.714C12.14 10.6187 12.0791 9.52333 12.14 8.45842C12.2008 7.57606 12.5355 6.72414 13.1744 6.11562C13.9655 5.3854 15.0609 5.11156 16.0953 5.08114C17.1907 5.08114 18.3164 5.08114 19.4118 5.08114C19.4118 6.26775 19.4118 7.42393 19.4118 8.61055Z" fill="#003C71"/>
</svg>
