<svg width="30" height="30" viewBox="0 0 30 30" fill="none" xmlns="http://www.w3.org/2000/svg">
<path d="M0 15C0 6.71573 6.71573 0 15 0C23.2843 0 30 6.71573 30 15C30 23.2843 23.2843 30 15 30C6.71573 30 0 23.2843 0 15Z" fill="white"/>
<path d="M15.1816 11.9272C16.5763 11.9272 17.707 10.7966 17.707 9.40188C17.707 8.00717 16.5763 6.87653 15.1816 6.87653C13.7869 6.87653 12.6562 8.00717 12.6562 9.40188C12.6562 10.7966 13.7869 11.9272 15.1816 11.9272Z" fill="#003C71"/>
<path d="M15 0C6.72414 0 0 6.72414 0 15C0 23.2759 6.72414 30 15 30C23.2759 30 30 23.2759 30 15C30 6.72414 23.2759 0 15 0ZM15.1826 4.25963C18.0122 4.25963 20.3245 6.57201 20.3245 9.40162C20.3245 12.2312 18.0122 14.5436 15.1826 14.5436C12.3529 14.5436 10.0406 12.2312 10.0406 9.40162C10.0406 6.57201 12.3225 4.25963 15.1826 4.25963ZM19.7465 17.5254C18.6511 18.2252 17.1602 18.499 16.1562 18.5903L16.9777 19.4118L20.0203 22.4544C20.4767 22.9108 20.4767 23.6714 20.0203 24.1278L19.8682 24.2799C19.4118 24.7363 18.6511 24.7363 18.1947 24.2799C17.4341 23.5193 16.3083 22.3935 15.1521 21.2373L12.1095 24.2799C11.6531 24.7363 10.8925 24.7363 10.4361 24.2799L10.3448 24.1278C9.88844 23.6714 9.88844 22.9108 10.3448 22.4544C11.1055 21.6937 12.2312 20.568 13.3874 19.4118L14.2089 18.5903C13.2353 18.499 11.714 18.2252 10.6187 17.5254C9.34077 16.7039 8.76268 16.217 9.24949 15.1826C9.55375 14.6045 10.3448 14.1176 11.4097 14.9696C12.8702 16.0953 15.1826 16.0953 15.1826 16.0953C15.1826 16.0953 17.4949 16.0953 18.9554 14.9696C20.0203 14.1176 20.8418 14.6045 21.1156 15.1826C21.6024 16.1866 21.0548 16.7039 19.7465 17.5254Z" fill="#003C71"/>
</svg>
