<svg width="30" height="30" viewBox="0 0 30 30" fill="none" xmlns="http://www.w3.org/2000/svg">
<path d="M0 15C0 6.71573 6.71573 0 15 0C23.2843 0 30 6.71573 30 15C30 23.2843 23.2843 30 15 30C6.71573 30 0 23.2843 0 15Z" fill="white"/>
<path d="M15 0C6.72414 0 0 6.72414 0 15C0 23.2759 6.72414 30 15 30C23.2759 30 30 23.2759 30 15C30 6.72414 23.2759 0 15 0ZM23.4584 6.96755L20.0811 22.7586C20.0203 23.0629 19.6552 23.215 19.4118 23.0629L14.2394 19.6247L11.5314 22.1501C11.288 22.3631 10.9229 22.2414 10.8012 21.9675L9.03651 16.3996L4.29006 14.4523C3.92495 14.3002 3.92495 13.6917 4.29006 13.57L22.8499 6.51116C23.1846 6.3286 23.5193 6.63286 23.4584 6.96755Z" fill="#003C71"/>
<path d="M11.3784 20.2938L11.6522 17.4338L20.0498 9.24921L9.91797 15.8821L11.3784 20.2938Z" fill="#003C71"/>
</svg>
