<svg width="30" height="30" viewBox="0 0 30 30" fill="none" xmlns="http://www.w3.org/2000/svg">
<path d="M0 15C0 6.71573 6.71573 0 15 0C23.2843 0 30 6.71573 30 15C30 23.2843 23.2843 30 15 30C6.71573 30 0 23.2843 0 15Z" fill="white"/>
<path d="M15 0C6.72414 0 0 6.72414 0 15C0 23.2759 6.72414 30 15 30C23.2759 30 30 23.2759 30 15C30 6.72414 23.2759 0 15 0ZM21.5112 16.9777C21.6329 17.1298 21.9067 17.4037 22.3631 17.8296L22.3935 17.86C23.3671 18.7728 24.0365 19.5335 24.3712 20.1724C24.4016 20.2028 24.4016 20.2637 24.432 20.2941C24.4625 20.355 24.4929 20.4462 24.4929 20.568C24.5233 20.6897 24.5233 20.8114 24.4929 20.9331C24.4625 21.0243 24.3712 21.146 24.2191 21.2069C24.0669 21.2982 23.854 21.3286 23.6105 21.3286L20.9939 21.3895C20.8418 21.4199 20.6288 21.4199 20.4158 21.3286C20.2028 21.2677 20.0203 21.1765 19.8682 21.0852L19.6552 20.9939C19.4422 20.8418 19.1988 20.6288 18.9249 20.3245C18.6511 20.0203 18.4077 19.7464 18.2252 19.503C18.0426 19.2596 17.8296 19.0771 17.5862 18.8945C17.3732 18.7424 17.1602 18.6815 17.0081 18.7424C16.9777 18.7424 16.9473 18.7728 16.9168 18.7728C16.8864 18.8032 16.8256 18.8337 16.7343 18.9249C16.643 19.0162 16.5821 19.1075 16.5213 19.2292C16.4604 19.3509 16.3996 19.5335 16.3387 19.7769C16.2779 20.0203 16.2779 20.2941 16.2779 20.5984C16.2779 20.6897 16.2779 20.8114 16.2475 20.8722C16.217 20.9635 16.1866 21.0243 16.1562 21.0548L16.1258 21.1156C16.0041 21.2373 15.8215 21.3286 15.5781 21.359H14.3915C13.9047 21.3895 13.3874 21.3286 12.8702 21.1765C12.3529 21.0243 11.8966 20.8418 11.501 20.6288C11.1055 20.4158 10.7404 20.1724 10.4361 19.929C10.1014 19.6856 9.85801 19.503 9.70588 19.3205L9.43205 19.0771C9.3712 19.0162 9.27992 18.8945 9.15821 18.7728C9.03651 18.6207 8.7931 18.3164 8.42799 17.8296C8.06288 17.3428 7.69777 16.8256 7.33266 16.2475C6.96755 15.6998 6.54158 14.9696 6.05477 14.0568C5.56795 13.144 5.11156 12.2008 4.6856 11.2272C4.59432 11.1359 4.56389 11.0446 4.56389 10.9533C4.56389 10.8925 4.56389 10.8316 4.59432 10.8012L4.62475 10.7404C4.71602 10.6187 4.92901 10.5274 5.20284 10.5274L8.06288 10.497C8.15416 10.497 8.21501 10.5274 8.30629 10.5578C8.39757 10.5882 8.42799 10.6187 8.45842 10.6491L8.51927 10.6795C8.64097 10.7708 8.70183 10.8621 8.76268 11.0142C8.91481 11.3489 9.06694 11.714 9.24949 12.0791C9.43205 12.4442 9.58418 12.7485 9.67546 12.931L9.82759 13.2353C10.0406 13.6613 10.2231 14.0264 10.4057 14.3306C10.5882 14.6349 10.7708 14.8783 10.9229 15.0304C11.0751 15.213 11.2272 15.3347 11.3489 15.426C11.501 15.5172 11.5923 15.5781 11.714 15.5781C11.8053 15.5781 11.8966 15.5477 11.9878 15.5172C11.9878 15.5172 12.0183 15.4868 12.0487 15.4564C12.0791 15.426 12.1095 15.3651 12.1704 15.213C12.2312 15.0913 12.2921 14.9391 12.3225 14.7262C12.3529 14.5132 12.3834 14.2394 12.4138 13.8742C12.4442 13.5091 12.4442 13.0832 12.4138 12.5659C12.4138 12.2921 12.3834 12.0487 12.3225 11.8053C12.2617 11.5619 12.2312 11.4097 12.1704 11.3185L12.14 11.2576C11.9574 11.0142 11.6836 10.8621 11.2576 10.8012C11.1663 10.8012 11.1968 10.7099 11.3185 10.5578C11.4402 10.4361 11.5619 10.3144 11.714 10.2535C12.0791 10.071 12.9006 9.97972 14.2089 10.0101C14.787 10.0101 15.2434 10.071 15.6085 10.1318C15.7606 10.1623 15.8519 10.2231 15.9432 10.284C16.0345 10.3448 16.0953 10.4361 16.1562 10.5274C16.217 10.6491 16.2475 10.7404 16.2779 10.8621C16.3083 10.9838 16.3083 11.1359 16.3083 11.3489C16.3083 11.5619 16.3083 11.7444 16.3083 11.927C16.3083 12.1095 16.2779 12.3529 16.2779 12.6572C16.2779 12.9615 16.2475 13.2657 16.2475 13.5091C16.2475 13.6004 16.2475 13.7221 16.2475 13.9351C16.2475 14.1481 16.2475 14.3306 16.2475 14.4219C16.2475 14.5436 16.2779 14.6957 16.2779 14.8479C16.3083 15 16.3387 15.1521 16.3996 15.2434C16.4604 15.3651 16.5517 15.426 16.643 15.4868C16.7039 15.4868 16.7647 15.5172 16.8256 15.5172C16.8864 15.5172 16.9777 15.4868 17.0994 15.3955C17.2211 15.3043 17.3428 15.1826 17.4949 15.0304C17.6471 14.8783 17.8296 14.6349 18.0426 14.3306C18.2556 14.0264 18.499 13.6308 18.7424 13.2049C19.1684 12.4746 19.5335 11.714 19.8682 10.8621C19.8986 10.8012 19.929 10.7404 19.9594 10.6795C19.9899 10.6187 20.0507 10.5882 20.0811 10.5578L20.1116 10.5274C20.1116 10.5274 20.142 10.497 20.1724 10.497C20.2028 10.497 20.2333 10.4665 20.2941 10.4665C20.355 10.4665 20.4462 10.4665 20.5071 10.4665L23.5193 10.4361C23.7931 10.4057 24.0061 10.4057 24.1886 10.4665C24.3712 10.5274 24.4625 10.5882 24.5233 10.6491L24.5842 10.7404C24.7363 11.1968 24.2191 12.2008 23.0325 13.8134C22.8803 14.0264 22.6369 14.3306 22.3631 14.6957C21.8154 15.3955 21.5112 15.8519 21.4199 16.0649C21.2373 16.43 21.2982 16.7039 21.5112 16.9777Z" fill="#003C71"/>
</svg>
