<svg width="27" height="17" viewBox="0 0 27 17" fill="none" xmlns="http://www.w3.org/2000/svg">
<path d="M16.6919 1.72852H9.66699V14.3542H16.6919V1.72852Z" fill="#FF5F00"/>
<path d="M10.1131 8.04191C10.1118 6.82579 10.3872 5.62531 10.9184 4.53139C11.4497 3.43747 12.2229 2.47879 13.1795 1.72794C11.9951 0.797059 10.5727 0.218202 9.07492 0.0575224C7.57714 -0.103157 6.06436 0.160824 4.70949 0.819296C3.35463 1.47777 2.21233 2.50416 1.41316 3.78117C0.61399 5.05819 0.190186 6.53429 0.190186 8.04079C0.190186 9.54729 0.61399 11.0234 1.41316 12.3004C2.21233 13.5774 3.35463 14.6038 4.70949 15.2623C6.06436 15.9208 7.57714 16.1847 9.07492 16.0241C10.5727 15.8634 11.9951 15.2845 13.1795 14.3536C12.2232 13.603 11.4502 12.6447 10.9189 11.5512C10.3877 10.4577 10.1121 9.25765 10.1131 8.04191Z" fill="#EB001B"/>
<path d="M26.1699 8.04283C26.1699 9.54944 25.746 11.0256 24.9467 12.3027C24.1474 13.5798 23.0049 14.6061 21.6498 15.2645C20.2948 15.9229 18.7819 16.1867 17.284 16.0258C15.7861 15.8649 14.3637 15.2857 13.1794 14.3546C14.1353 13.6033 14.9081 12.6447 15.4395 11.5511C15.9709 10.4576 16.247 9.25758 16.247 8.04172C16.247 6.82586 15.9709 5.62588 15.4395 4.53231C14.9081 3.43874 14.1353 2.48015 13.1794 1.72886C14.3637 0.797696 15.7861 0.218558 17.284 0.0576476C18.7819 -0.103262 20.2948 0.160549 21.6498 0.818927C23.0049 1.4773 24.1474 2.50368 24.9467 3.78074C25.746 5.05779 26.1699 6.534 26.1699 8.0406V8.04283Z" fill="#F79E1B"/>
<path d="M15.268 7.78829V7.63357H15.3307V7.60156H15.172V7.63357H15.24V7.78829H15.268ZM15.5761 7.78829V7.60156H15.5281L15.472 7.73494L15.416 7.60156H15.3733V7.78829H15.408V7.64825L15.46 7.76962H15.496L15.5481 7.64825V7.78963L15.5761 7.78829Z" fill="#F79E1B"/>
</svg>
