<svg width="123" height="51" viewBox="0 0 41 17" fill="none" xmlns="http://www.w3.org/2000/svg">
<g clip-path="url(#clip0)">
<path d="M19.6743 8.317V13.0071H18.1864V1.42461H22.1326C22.6036 1.41477 23.0719 1.49831 23.5105 1.67041C23.9491 1.84251 24.3493 2.09976 24.6879 2.42732C25.0299 2.73499 25.3022 3.11232 25.4863 3.53394C25.6704 3.95556 25.7621 4.41171 25.7553 4.87173C25.7651 5.3342 25.6748 5.79333 25.4905 6.21764C25.3063 6.64195 25.0325 7.0214 24.6879 7.33C23.9978 7.988 23.1461 8.31669 22.1326 8.31608H19.6743V8.317ZM19.6743 2.85059V6.89379H22.1695C22.4431 6.9019 22.7153 6.85283 22.9688 6.74971C23.2223 6.64659 23.4515 6.49169 23.6417 6.29494C23.831 6.11097 23.9814 5.89093 24.0841 5.64783C24.1868 5.40472 24.2397 5.14349 24.2397 4.87958C24.2397 4.61567 24.1868 4.35444 24.0841 4.11134C23.9814 3.86824 23.831 3.6482 23.6417 3.46423C23.4539 3.26332 23.2255 3.10464 22.9717 2.99868C22.7179 2.89273 22.4445 2.84194 22.1695 2.84966H19.6743V2.85059Z" fill="#5F6368"/>
<path d="M29.1839 4.82227C30.2837 4.82227 31.1518 5.11615 31.7882 5.70391C32.4246 6.29168 32.7425 7.09755 32.7419 8.12152V13.0057H31.3187V11.906H31.254C30.6379 12.8116 29.8185 13.2645 28.7958 13.2645C27.9227 13.2645 27.1923 13.0057 26.6046 12.4882C26.3225 12.2506 26.097 11.9532 25.9445 11.6174C25.7919 11.2817 25.7163 10.9161 25.7229 10.5474C25.7229 9.7274 26.0328 9.07525 26.6526 8.59099C27.2724 8.10673 28.0999 7.86399 29.1349 7.86275C30.0184 7.86275 30.7461 8.02448 31.3178 8.34794V8.00785C31.3195 7.75649 31.2652 7.50791 31.1589 7.28013C31.0526 7.05235 30.897 6.85108 30.7032 6.69092C30.3098 6.33593 29.797 6.14223 29.2671 6.14844C28.436 6.14844 27.7783 6.499 27.294 7.20013L25.9835 6.37486C26.7044 5.3398 27.7712 4.82227 29.1839 4.82227ZM27.2589 10.5798C27.2579 10.7691 27.3021 10.956 27.388 11.1248C27.4738 11.2936 27.5988 11.4394 27.7524 11.5502C28.0815 11.809 28.4899 11.9461 28.9085 11.9383C29.5364 11.9373 30.1382 11.6873 30.5822 11.2433C31.0751 10.7794 31.3215 10.2351 31.3215 9.61034C30.8576 9.24068 30.2107 9.05584 29.3808 9.05584C28.7764 9.05584 28.2724 9.20155 27.8688 9.49297C27.4613 9.7887 27.2589 10.1482 27.2589 10.5798Z" fill="#5F6368"/>
<path d="M40.9115 5.08203L35.9432 16.5H34.4073L36.251 12.5049L32.9841 5.08203H34.6013L36.9626 10.7749H36.9949L39.2915 5.08203H40.9115Z" fill="#5F6368"/>
<path d="M13.6617 7.3061C13.6623 6.85266 13.6239 6.40001 13.5471 5.95312H7.27205V8.51582H10.8661C10.7926 8.92512 10.6369 9.31529 10.4085 9.66281C10.1801 10.0103 9.8837 10.308 9.53717 10.5379V12.2014H11.6821C12.9381 11.0434 13.6617 9.33093 13.6617 7.3061Z" fill="#4285F4"/>
<path d="M7.27206 13.8082C9.06771 13.8082 10.5796 13.2186 11.6822 12.202L9.53718 10.5385C8.94017 10.9433 8.17127 11.1743 7.27206 11.1743C5.53649 11.1743 4.06338 10.0044 3.5366 8.42773H1.32693V10.1421C1.88075 11.2441 2.72998 12.1705 3.77979 12.8179C4.8296 13.4653 6.03869 13.8081 7.27206 13.8082Z" fill="#34A853"/>
<path d="M3.53658 8.42732C3.25809 7.60116 3.25809 6.70649 3.53658 5.88033V4.16602H1.32691C0.861014 5.09309 0.618378 6.11627 0.618378 7.15383C0.618378 8.19138 0.861014 9.21457 1.32691 10.1416L3.53658 8.42732Z" fill="#FBBC04"/>
<path d="M7.27206 3.1343C8.22098 3.11879 9.13789 3.47732 9.8246 4.13239L11.7237 2.23324C10.5195 1.10214 8.92411 0.481141 7.27206 0.500437C6.03869 0.500493 4.8296 0.843351 3.77979 1.49073C2.72998 2.13812 1.88075 3.06454 1.32693 4.16658L3.5366 5.8809C4.06338 4.30428 5.53649 3.1343 7.27206 3.1343Z" fill="#EA4335"/>
</g>
<defs>
<clipPath id="clip0">
<rect width="40.2906" height="16" fill="white" transform="translate(0.618088 0.5)"/>
</clipPath>
</defs>
</svg>
