<svg width="174" height="51" viewBox="0 0 58 17" fill="none" xmlns="http://www.w3.org/2000/svg">
<g clip-path="url(#clip0)">
<path d="M41.5734 8.09766V16.4997H46.6934V11.7736H51.8462C54.5375 11.7736 56.8349 10.2474 57.7211 8.09766H41.5734Z" fill="#006848"/>
<path d="M41.3436 0.5C41.36 0.926667 41.4257 1.35333 41.5241 1.74718C41.5406 1.82923 41.5734 1.92769 41.5898 2.00974C41.6062 2.04256 41.6062 2.07538 41.6226 2.12462C42.5416 5.02923 45.2493 7.12974 48.4493 7.12974H57.9016C57.9672 6.80154 58 6.47333 58 6.12872C58 4.48769 57.2944 3.01077 56.1621 1.97692C55.1611 1.05795 53.8318 0.5 52.3549 0.5H41.3436V0.5Z" fill="url(#paint0_linear)"/>
<path d="M32.4985 2.19026L28.9211 9.95231H28.56V0.5H23.4729V16.5H27.7888C28.9211 16.5 29.9549 15.8436 30.4308 14.8097L34.0083 7.04769H34.3693V16.5H39.4565V0.5H35.1406C34.0083 0.5 32.9744 1.15641 32.4985 2.19026Z" fill="#006848"/>
<path d="M8.78567 2.60051L10.919 9.95231H11.28L13.397 2.60051C13.758 1.35333 14.8903 0.5 16.1867 0.5H21.2739V16.5H16.1867V7.04769H15.8257L12.9046 16.5H9.27798L6.35696 7.04769H5.99593V16.5H0.908752V0.5H5.99593C7.29234 0.5 8.42465 1.35333 8.78567 2.60051Z" fill="#006848"/>
</g>
<defs>
<linearGradient id="paint0_linear" x1="41.3408" y1="3.81689" x2="57.995" y2="3.81689" gradientUnits="userSpaceOnUse">
<stop stop-color="#02AFFF"/>
<stop offset="1" stop-color="#1F5BDE"/>
</linearGradient>
<clipPath id="clip0">
<rect width="57.0913" height="16" fill="white" transform="translate(0.908752 0.5)"/>
</clipPath>
</defs>
</svg>
