<svg width="50" height="17" viewBox="0 0 50 17" fill="none" xmlns="http://www.w3.org/2000/svg">
<g clip-path="url(#clip0)">
<mask id="mask0" mask-type="alpha" maskUnits="userSpaceOnUse" x="0" y="0" width="50" height="17">
<path d="M0 0.621094H49.0625V16.4797H0" fill="white"/>
</mask>
<g mask="url(#mask0)">
<path fill-rule="evenodd" clip-rule="evenodd" d="M17.2862 16.2695L19.7721 0.898438H23.7463L21.2604 16.2695H17.2862Z" fill="#005CA3"/>
<path fill-rule="evenodd" clip-rule="evenodd" d="M35.6682 1.27513C34.8833 0.964604 33.6405 0.621094 32.1032 0.621094C28.1783 0.621094 25.4142 2.71415 25.3979 5.70648C25.3652 7.91416 27.3766 9.1406 28.8813 9.8766C30.4186 10.6286 30.942 11.1191 30.942 11.7897C30.9257 12.82 29.6993 13.2944 28.5544 13.2944C26.9682 13.2944 26.1175 13.0492 24.8255 12.4764L24.302 12.2312L23.7463 15.6817C24.6785 16.1068 26.3954 16.483 28.1783 16.4993C32.3484 16.4993 35.0632 14.4389 35.0958 11.2503C35.1122 9.50011 34.0493 8.15938 31.7597 7.06387C30.3696 6.36085 29.5193 5.8864 29.5193 5.16705C29.5357 4.51301 30.2387 3.84264 31.8086 3.84264C33.1007 3.80999 34.0493 4.12052 34.769 4.43138L35.1288 4.59464L35.6682 1.27513Z" fill="#005CA3"/>
</g>
<path fill-rule="evenodd" clip-rule="evenodd" d="M45.857 0.898438H42.7824C41.8338 0.898438 41.1141 1.17632 40.7053 2.17354L34.8016 16.2695H38.9718C38.9718 16.2695 39.6588 14.3724 39.806 13.9636H44.9084C45.023 14.5033 45.3829 16.2695 45.3829 16.2695H49.0625L45.857 0.898438ZM40.9505 10.824C41.2777 9.94105 42.5371 6.52325 42.5371 6.52325C42.5208 6.55623 42.8643 5.62399 43.0606 5.05158L43.3385 6.37599C43.3385 6.37599 44.0908 10.0557 44.2544 10.824H40.9505Z" fill="#005CA3"/>
<path fill-rule="evenodd" clip-rule="evenodd" d="M13.9664 0.898438L10.0741 11.3801L9.64897 9.25403C8.9293 6.80146 6.67264 4.13631 4.15411 2.81158L7.71917 16.2532H11.9223L18.1695 0.898438H13.9664Z" fill="#005CA3"/>
<path fill-rule="evenodd" clip-rule="evenodd" d="M6.46008 0.898438H0.0653061L0 1.20897C4.98808 2.4844 8.29159 5.55868 9.64898 9.25403L8.25894 2.18987C8.03004 1.20897 7.32669 0.930764 6.46008 0.898438Z" fill="#FFAD30"/>
</g>
<defs>
<clipPath id="clip0">
<rect width="50" height="16" fill="white" transform="translate(0 0.5)"/>
</clipPath>
</defs>
</svg>
