<svg width="120" height="51" viewBox="0 0 40 17" fill="none" xmlns="http://www.w3.org/2000/svg">
<path d="M7.77032 2.5628C7.31362 3.10324 6.58288 3.5295 5.85215 3.4686C5.76081 2.73787 6.11856 1.96147 6.53721 1.48192C6.99392 0.926261 7.79316 0.530447 8.44016 0.5C8.51628 1.26118 8.21942 2.00714 7.77032 2.5628ZM8.43255 3.61323C7.37451 3.55233 6.46871 4.21456 5.96633 4.21456C5.45634 4.21456 4.68755 3.64367 3.85025 3.6589C2.76176 3.67412 1.74939 4.29068 1.19373 5.2726C0.0519617 7.23644 0.896871 10.1441 2.00058 11.7426C2.54102 12.5343 3.18802 13.402 4.04054 13.3716C4.84739 13.3411 5.16709 12.8463 6.1414 12.8463C7.12332 12.8463 7.40496 13.3716 8.25748 13.3563C9.14045 13.3411 9.69611 12.5647 10.2365 11.7731C10.8531 10.8749 11.1043 9.99952 11.1195 9.95385C11.1043 9.93863 9.41447 9.29163 9.39925 7.34301C9.38403 5.71408 10.7313 4.93768 10.7922 4.89201C10.031 3.76546 8.84359 3.64367 8.43255 3.61323ZM14.5448 1.4058V13.2726H16.3869V9.21551H18.9368C21.266 9.21551 22.9026 7.61703 22.9026 5.30304C22.9026 2.98906 21.2965 1.4058 18.9977 1.4058H14.5448ZM16.3869 2.95861H18.5106C20.109 2.95861 21.0225 3.81113 21.0225 5.31066C21.0225 6.81018 20.109 7.67031 18.503 7.67031H16.3869V2.95861ZM26.267 13.3639C27.424 13.3639 28.4972 12.7778 28.9844 11.8492H29.0225V13.2726H30.7275V7.36584C30.7275 5.65319 29.3574 4.54948 27.2489 4.54948C25.2927 4.54948 23.8464 5.66841 23.7932 7.20599H25.4525C25.5895 6.47526 26.267 5.99572 27.1956 5.99572C28.3222 5.99572 28.954 6.52093 28.954 7.48763V8.14225L26.6552 8.27926C24.5163 8.40866 23.3593 9.28401 23.3593 10.8064C23.3593 12.344 24.5543 13.3639 26.267 13.3639ZM26.7618 11.9558C25.7798 11.9558 25.1557 11.4838 25.1557 10.7607C25.1557 10.0147 25.757 9.58088 26.9064 9.51237L28.954 9.38297V10.0528C28.954 11.1641 28.0101 11.9558 26.7618 11.9558ZM33.0034 16.5C34.7998 16.5 35.6447 15.8149 36.3831 13.7369L39.6181 4.66365H37.7456L35.5762 11.6741H35.5382L33.3688 4.66365H31.443L34.5639 13.303L34.3964 13.8283C34.1148 14.7188 33.658 15.0614 32.8436 15.0614C32.699 15.0614 32.4173 15.0461 32.3031 15.0309V16.4543C32.4097 16.4848 32.8664 16.5 33.0034 16.5Z" fill="black"/>
</svg>
