<svg width="1440" height="343" preserveAspectRatio='none' viewBox="0 0 1440 343" fill="none" xmlns="http://www.w3.org/2000/svg">
<mask id="mask0" mask-type="alpha" maskUnits="userSpaceOnUse" x="0" y="0" width="1440" height="343">
<rect width="1440" height="343" fill="#003D73"/>
</mask>
<g mask="url(#mask0)">
<g opacity="0.1">
<path d="M228.462 652.329C228.152 648.728 227.966 645.066 227.966 641.404C227.963 636.965 228.212 632.53 228.711 628.12C231.304 602.832 241.448 578.911 257.823 559.467C259.375 557.543 269.307 547.052 272.845 544.259C321.884 495.269 351.303 430.029 355.554 360.842C359.804 291.656 338.591 223.305 295.917 168.681C253.243 114.057 192.056 76.936 123.897 64.3185C55.7377 51.7009 -14.6826 64.4591 -74.0828 100.187L-38.2665 249.784C-13.801 239.63 12.576 234.906 39.0445 235.936C65.5131 236.967 91.443 243.727 115.045 255.751C138.647 267.775 159.36 284.777 175.754 305.583C192.148 326.389 203.833 350.504 210.002 376.264C216.172 402.024 216.679 428.816 211.489 454.791C206.299 480.766 195.536 505.307 179.942 526.718C164.347 548.13 144.293 565.904 121.163 578.813C98.0329 591.722 72.3775 599.459 45.9669 601.491L52.1743 626.693L66.389 685.972V686.655C66.8708 688.274 67.1829 689.938 67.3201 691.621C55.9608 692.676 44.4151 693.297 32.7453 693.297C-63.3632 693.318 -155.592 655.385 -223.875 587.753C-292.159 520.12 -330.973 428.259 -331.873 332.155C-327.719 331.99 -323.575 331.618 -319.458 331.037C-254.964 319.864 -191.774 268.033 -178.118 198.697C-171.829 173.381 -171.586 146.94 -177.409 121.512C-183.232 96.0849 -194.958 72.3847 -211.637 52.3284V-16.3867H-36.7147C-24.6389 -16.3293 -12.6711 -18.6614 -1.50037 -23.2486C9.67038 -27.8358 19.8233 -34.5875 28.3738 -43.1149C36.9243 -51.6423 43.7034 -61.777 48.3208 -72.9353C52.9382 -84.0936 55.3026 -96.0551 55.2779 -108.131C54.7475 -131.115 45.4362 -153.023 29.2566 -169.356C13.077 -185.688 -8.74258 -195.206 -31.7204 -195.952C-54.6982 -196.699 -77.0898 -188.619 -94.2958 -173.372C-111.502 -158.124 -122.216 -136.867 -124.238 -113.966C-137.178 -130.849 -156.294 -141.899 -177.382 -144.687C-198.47 -147.475 -219.801 -141.772 -236.684 -128.832C-253.566 -115.893 -264.617 -96.7762 -267.405 -75.6885C-270.193 -54.6008 -264.49 -33.2693 -251.55 -16.3867H-347.081L-236.963 64.3086L-288.36 109.746C-289.209 110.422 -290.018 111.147 -290.781 111.919L-291.712 112.664C-298.599 119.373 -303.329 127.982 -305.299 137.393C-307.269 146.804 -306.389 156.588 -302.771 165.496C-299.153 174.404 -292.962 182.031 -284.988 187.403C-277.015 192.775 -267.621 195.648 -258.006 195.656C-251.271 195.632 -244.614 194.216 -238.453 191.497C-239.318 216.079 -249.002 239.53 -265.733 257.561C-282.465 275.592 -305.127 286.999 -329.576 289.697C-332.874 290.07 -336.19 290.257 -339.508 290.255H-340.75C-354.186 290.263 -367.492 287.623 -379.907 282.485C-392.321 277.347 -403.602 269.812 -413.103 260.311C-422.603 250.811 -430.138 239.53 -435.276 227.116C-440.414 214.701 -443.055 201.395 -443.046 187.959C-443.07 181.483 -442.488 175.02 -441.308 168.654C-458.719 191.277 -472.633 216.386 -482.587 243.142L-484.822 249.349C-499.298 290.985 -503.968 335.401 -498.468 379.138C-492.968 422.875 -477.447 464.752 -453.113 501.508C-428.779 538.264 -396.29 568.907 -358.174 591.051C-320.059 613.194 -277.346 626.241 -233.363 629.175C-200.443 656.819 -163.28 678.974 -123.307 694.787L-161.979 814.092C-163.281 817.089 -165.268 819.74 -167.779 821.831C-170.291 823.922 -173.258 825.396 -176.442 826.134L-257.137 840.969C-260.162 841.496 -262.905 843.073 -264.881 845.424C-266.857 847.775 -267.939 850.748 -267.938 853.819V866.854H-53.5986L-56.0195 850.839C-56.3862 848.418 -57.4151 846.145 -58.9925 844.272C-60.5699 842.399 -62.6345 840.998 -64.958 840.224L-105.306 827.189C-107.937 826.347 -110.233 824.691 -111.861 822.46C-113.49 820.228 -114.368 817.537 -114.368 814.774L-83.8283 708.133C-51.7278 717.107 -18.6389 722.07 14.6819 722.906H24.6137C29.2071 722.906 33.8005 722.906 38.2078 722.906L47.2704 813.223C47.379 817.033 46.2184 820.771 43.9712 823.849C41.724 826.928 38.5176 829.173 34.8558 830.231L-8.59549 840.721C-18.341 843.577 -21.6309 854.129 -21.6309 867.164H192.956C192.956 855.06 193.577 843.08 183.087 841.404L107.482 830.045C101.757 829.708 96.3895 827.153 92.5184 822.923C88.6473 818.692 86.5776 813.12 86.7491 807.388L78.8037 721.913C87.5627 735.17 100.769 744.862 116.042 749.244C131.315 753.626 147.651 752.408 162.106 745.811C179.876 759.123 201.367 766.538 223.565 767.017C245.762 767.495 267.553 761.014 285.88 748.48C269.705 737.889 256.151 723.755 246.247 707.15C236.342 690.545 230.345 671.904 228.711 652.639L228.462 652.329ZM-455.151 343.266C-454.857 328.247 -453.654 313.26 -451.55 298.387C-429.741 314.718 -404.319 325.555 -377.435 329.982C-376.317 429.994 -337.243 525.846 -268.124 598.139C-322.322 581.138 -369.682 547.291 -403.319 501.519C-436.955 455.748 -455.113 400.44 -455.151 343.638" fill="white"/>
</g>
<g opacity="0.1">
<path d="M1267.63 459.329C1267.94 455.728 1268.12 452.066 1268.12 448.404C1268.12 443.965 1267.88 439.53 1267.38 435.12C1264.78 409.832 1254.64 385.911 1238.26 366.467C1236.71 364.543 1226.78 354.052 1223.24 351.259C1174.2 302.269 1144.78 237.029 1140.53 167.842C1136.28 98.6556 1157.5 30.3049 1200.17 -24.3189C1242.85 -78.9427 1304.03 -116.064 1372.19 -128.682C1440.35 -141.299 1510.77 -128.541 1570.17 -92.813L1534.35 56.7835C1509.89 46.6305 1483.51 41.9061 1457.04 42.9364C1430.57 43.9667 1404.64 50.7272 1381.04 62.7513C1357.44 74.7755 1336.73 91.7771 1320.33 112.583C1303.94 133.389 1292.26 157.504 1286.09 183.264C1279.92 209.024 1279.41 235.816 1284.6 261.791C1289.79 287.766 1300.55 312.307 1316.15 333.718C1331.74 355.13 1351.79 372.904 1374.92 385.813C1398.05 398.722 1423.71 406.459 1450.12 408.491L1443.91 433.693L1429.7 492.972V493.655C1429.22 495.274 1428.9 496.938 1428.77 498.621C1440.13 499.676 1451.67 500.297 1463.34 500.297C1559.45 500.318 1651.68 462.385 1719.96 394.753C1788.25 327.12 1827.06 235.259 1827.96 139.155C1823.81 138.99 1819.66 138.618 1815.55 138.037C1751.05 126.864 1687.86 75.0331 1674.21 5.69724C1667.92 -19.619 1667.67 -46.0601 1673.5 -71.4876C1679.32 -96.9151 1691.05 -120.615 1707.73 -140.672V-209.387H1532.8C1520.73 -209.329 1508.76 -211.661 1497.59 -216.249C1486.42 -220.836 1476.26 -227.588 1467.71 -236.115C1459.16 -244.642 1452.38 -254.777 1447.77 -265.935C1443.15 -277.094 1440.79 -289.055 1440.81 -301.131C1441.34 -324.115 1450.65 -346.023 1466.83 -362.356C1483.01 -378.688 1504.83 -388.206 1527.81 -388.952C1550.79 -389.699 1573.18 -381.619 1590.38 -366.372C1607.59 -351.124 1618.3 -329.867 1620.33 -306.966C1633.27 -323.849 1652.38 -334.899 1673.47 -337.687C1694.56 -340.475 1715.89 -334.772 1732.77 -321.832C1749.65 -308.893 1760.71 -289.776 1763.49 -268.688C1766.28 -247.601 1760.58 -226.269 1747.64 -209.387H1843.17L1733.05 -128.691L1784.45 -83.2538C1785.3 -82.5783 1786.11 -81.8528 1786.87 -81.0812L1787.8 -80.3363C1794.69 -73.6273 1799.42 -65.0176 1801.39 -55.607C1803.36 -46.1964 1802.48 -36.4121 1798.86 -27.5042C1795.24 -18.5962 1789.05 -10.969 1781.08 -5.5968C1773.1 -0.22464 1763.71 2.6485 1754.09 2.65564C1747.36 2.63196 1740.7 1.21603 1734.54 -1.50327C1735.41 23.0795 1745.09 46.5297 1761.82 64.5606C1778.55 82.5916 1801.21 93.9987 1825.66 96.6967C1828.96 97.0701 1832.28 97.2566 1835.6 97.2553H1836.84C1850.27 97.2635 1863.58 94.623 1875.99 89.485C1888.41 84.347 1899.69 76.8123 1909.19 67.3115C1918.69 57.8107 1926.23 46.5304 1931.36 34.1155C1936.5 21.7006 1939.14 8.39462 1939.13 -5.04147C1939.16 -11.5165 1938.58 -17.9796 1937.4 -24.3462C1954.81 -1.72302 1968.72 23.3862 1978.67 50.1417L1980.91 56.349C1995.39 97.9854 2000.06 142.401 1994.56 186.138C1989.06 229.875 1973.54 271.752 1949.2 308.508C1924.87 345.264 1892.38 375.907 1854.26 398.051C1816.15 420.194 1773.43 433.241 1729.45 436.175C1696.53 463.819 1659.37 485.974 1619.39 501.787L1658.07 621.092C1659.37 624.089 1661.36 626.74 1663.87 628.831C1666.38 630.922 1669.35 632.396 1672.53 633.134L1753.22 647.969C1756.25 648.496 1758.99 650.073 1760.97 652.424C1762.94 654.775 1764.03 657.748 1764.03 660.819V673.854H1549.69L1552.11 657.839C1552.47 655.418 1553.5 653.145 1555.08 651.272C1556.66 649.399 1558.72 647.998 1561.05 647.224L1601.39 634.189C1604.02 633.347 1606.32 631.691 1607.95 629.46C1609.58 627.228 1610.46 624.537 1610.46 621.774L1579.92 515.133C1547.82 524.107 1514.73 529.07 1481.41 529.906H1471.47C1466.88 529.906 1462.29 529.906 1457.88 529.906L1448.82 620.223C1448.71 624.033 1449.87 627.771 1452.12 630.849C1454.36 633.928 1457.57 636.173 1461.23 637.231L1504.68 647.721C1514.43 650.577 1517.72 661.129 1517.72 674.164H1303.13C1303.13 662.06 1302.51 650.08 1313 648.404L1388.61 637.045C1394.33 636.708 1399.7 634.153 1403.57 629.923C1407.44 625.692 1409.51 620.12 1409.34 614.388L1417.28 528.913C1408.53 542.17 1395.32 551.862 1380.05 556.244C1364.77 560.626 1348.44 559.408 1333.98 552.811C1316.21 566.123 1294.72 573.538 1272.52 574.017C1250.33 574.495 1228.53 568.014 1210.21 555.48C1226.38 544.889 1239.94 530.755 1249.84 514.15C1259.75 497.545 1265.74 478.904 1267.38 459.639L1267.63 459.329ZM1951.24 150.266C1950.94 135.247 1949.74 120.26 1947.64 105.387C1925.83 121.718 1900.41 132.555 1873.52 136.982C1872.4 236.994 1833.33 332.846 1764.21 405.139C1818.41 388.138 1865.77 354.291 1899.41 308.519C1933.04 262.748 1951.2 207.44 1951.24 150.638" fill="white"/>
</g>
</g>
</svg>
