<svg width="375" height="401" preserveAspectRatio='none' viewBox="0 0 375 401" fill="none" xmlns="http://www.w3.org/2000/svg">
<mask id="mask0" mask-type="alpha" maskUnits="userSpaceOnUse" x="0" y="0" width="375" height="401">
<rect width="375" height="401" fill="#003D73"/>
</mask>
<g mask="url(#mask0)">
<g opacity="0.1">
<path d="M20.4623 684.329C20.152 680.728 19.9658 677.066 19.9658 673.404C19.9629 668.965 20.2115 664.53 20.7106 660.12C23.3039 634.832 33.448 610.911 49.8231 591.467C51.3749 589.543 61.3066 579.052 64.8448 576.259C113.884 527.269 143.303 462.029 147.554 392.842C151.804 323.656 130.591 255.305 87.9169 200.681C45.2426 146.057 -15.9442 108.936 -84.1032 96.3185C-152.262 83.7009 -222.683 96.4591 -282.083 132.187L-246.267 281.784C-221.801 271.63 -195.424 266.906 -168.956 267.936C-142.487 268.967 -116.557 275.727 -92.9548 287.751C-69.3525 299.775 -48.64 316.777 -32.2461 337.583C-15.8522 358.389 -4.16742 382.504 2.00214 408.264C8.17163 434.024 8.67896 460.816 3.48914 486.791C-1.70068 512.766 -12.4641 537.307 -28.0585 558.718C-43.6529 580.13 -63.707 597.904 -86.837 610.813C-109.967 623.722 -135.622 631.459 -162.033 633.491L-155.826 658.693L-141.611 717.972V718.655C-141.129 720.274 -140.817 721.938 -140.68 723.621C-152.039 724.676 -163.585 725.297 -175.255 725.297C-271.363 725.318 -363.592 687.385 -431.875 619.753C-500.159 552.12 -538.973 460.259 -539.873 364.155C-535.719 363.99 -531.575 363.618 -527.458 363.037C-462.964 351.864 -399.774 300.033 -386.118 230.697C-379.829 205.381 -379.586 178.94 -385.409 153.512C-391.232 128.085 -402.958 104.385 -419.637 84.3284V15.6133H-244.715C-232.639 15.6707 -220.671 13.3386 -209.5 8.75137C-198.33 4.16417 -188.177 -2.58752 -179.626 -11.1149C-171.076 -19.6423 -164.297 -29.777 -159.679 -40.9353C-155.062 -52.0936 -152.697 -64.0551 -152.722 -76.131C-153.253 -99.1148 -162.564 -121.023 -178.743 -137.356C-194.923 -153.688 -216.743 -163.206 -239.72 -163.952C-262.698 -164.699 -285.09 -156.619 -302.296 -141.372C-319.502 -126.124 -330.216 -104.867 -332.238 -81.9658C-345.178 -98.8485 -364.294 -109.899 -385.382 -112.687C-406.47 -115.475 -427.801 -109.772 -444.684 -96.8324C-461.566 -83.8926 -472.617 -64.7762 -475.405 -43.6885C-478.193 -22.6008 -472.49 -1.26932 -459.55 15.6133H-555.081L-444.963 96.3086L-496.36 141.746C-497.209 142.422 -498.018 143.147 -498.781 143.919L-499.712 144.664C-506.599 151.373 -511.329 159.982 -513.299 169.393C-515.269 178.804 -514.389 188.588 -510.771 197.496C-507.153 206.404 -500.962 214.031 -492.988 219.403C-485.015 224.775 -475.621 227.648 -466.006 227.656C-459.271 227.632 -452.614 226.216 -446.453 223.497C-447.318 248.079 -457.002 271.53 -473.733 289.561C-490.465 307.592 -513.127 318.999 -537.576 321.697C-540.874 322.07 -544.19 322.257 -547.508 322.255H-548.75C-562.186 322.263 -575.492 319.623 -587.907 314.485C-600.321 309.347 -611.602 301.812 -621.103 292.311C-630.603 282.811 -638.138 271.53 -643.276 259.116C-648.414 246.701 -651.055 233.395 -651.046 219.959C-651.07 213.483 -650.488 207.02 -649.308 200.654C-666.719 223.277 -680.633 248.386 -690.587 275.142L-692.822 281.349C-707.298 322.985 -711.968 367.401 -706.468 411.138C-700.968 454.875 -685.447 496.752 -661.113 533.508C-636.779 570.264 -604.29 600.907 -566.174 623.051C-528.059 645.194 -485.346 658.241 -441.363 661.175C-408.443 688.819 -371.28 710.974 -331.307 726.787L-369.979 846.092C-371.281 849.089 -373.268 851.74 -375.779 853.831C-378.291 855.922 -381.258 857.396 -384.442 858.134L-465.137 872.969C-468.162 873.496 -470.905 875.073 -472.881 877.424C-474.857 879.775 -475.939 882.748 -475.938 885.819V898.854H-261.599L-264.019 882.839C-264.386 880.418 -265.415 878.145 -266.993 876.272C-268.57 874.399 -270.634 872.998 -272.958 872.224L-313.306 859.189C-315.937 858.347 -318.233 856.691 -319.861 854.46C-321.49 852.228 -322.368 849.537 -322.368 846.774L-291.828 740.133C-259.728 749.107 -226.639 754.07 -193.318 754.906H-183.386C-178.793 754.906 -174.199 754.906 -169.792 754.906L-160.73 845.223C-160.621 849.033 -161.782 852.771 -164.029 855.849C-166.276 858.928 -169.482 861.173 -173.144 862.231L-216.595 872.721C-226.341 875.577 -229.631 886.129 -229.631 899.164H-15.0436C-15.0436 887.06 -14.4229 875.08 -24.9132 873.404L-100.518 862.045C-106.243 861.708 -111.611 859.153 -115.482 854.923C-119.353 850.692 -121.422 845.12 -121.251 839.388L-129.196 753.913C-120.437 767.17 -107.231 776.862 -91.9581 781.244C-76.6849 785.626 -60.3489 784.408 -45.894 777.811C-28.1242 791.123 -6.63318 798.538 15.5645 799.017C37.7623 799.495 59.553 793.014 77.8801 780.48C61.7047 769.889 48.1515 755.755 38.2466 739.15C28.3418 722.545 22.3451 703.904 20.7106 684.639L20.4623 684.329ZM-663.151 375.266C-662.857 360.247 -661.654 345.26 -659.55 330.387C-637.741 346.718 -612.319 357.555 -585.435 361.982C-584.317 461.994 -545.243 557.846 -476.124 630.139C-530.322 613.138 -577.682 579.291 -611.319 533.519C-644.955 487.748 -663.113 432.44 -663.151 375.638" fill="white"/>
</g>
<g opacity="0.1">
<path d="M403.626 427.329C403.936 423.728 404.122 420.066 404.122 416.404C404.125 411.965 403.876 407.53 403.377 403.12C400.784 377.832 390.64 353.911 374.265 334.467C372.713 332.543 362.781 322.052 359.243 319.259C310.204 270.269 280.785 205.029 276.534 135.842C272.284 66.6556 293.497 -1.69513 336.171 -56.3189C378.845 -110.943 440.032 -148.064 508.191 -160.682C576.35 -173.299 646.77 -160.541 706.171 -124.813L670.354 24.7835C645.889 14.6305 619.512 9.9061 593.043 10.9364C566.575 11.9667 540.645 18.7272 517.043 30.7513C493.44 42.7755 472.728 59.7771 456.334 80.583C439.94 101.389 428.255 125.504 422.086 151.264C415.916 177.024 415.409 203.816 420.599 229.791C425.789 255.766 436.552 280.307 452.146 301.718C467.741 323.13 487.795 340.904 510.925 353.813C534.055 366.722 559.71 374.459 586.121 376.491L579.914 401.693L565.699 460.972V461.655C565.217 463.274 564.905 464.938 564.768 466.621C576.127 467.676 587.673 468.297 599.343 468.297C695.451 468.318 787.68 430.385 855.963 362.753C924.247 295.12 963.061 203.259 963.961 107.155C959.807 106.99 955.663 106.618 951.546 106.037C887.052 94.8643 823.862 43.0331 810.206 -26.3028C803.916 -51.619 803.674 -78.0601 809.497 -103.488C815.32 -128.915 827.045 -152.615 843.725 -172.672V-241.387H668.803C656.727 -241.329 644.759 -243.661 633.588 -248.249C622.418 -252.836 612.265 -259.588 603.714 -268.115C595.164 -276.642 588.384 -286.777 583.767 -297.935C579.15 -309.094 576.785 -321.055 576.81 -333.131C577.34 -356.115 586.652 -378.023 602.831 -394.356C619.011 -410.688 640.83 -420.206 663.808 -420.952C686.786 -421.699 709.178 -413.619 726.384 -398.372C743.59 -383.124 754.304 -361.867 756.326 -338.966C769.266 -355.849 788.382 -366.899 809.47 -369.687C830.557 -372.475 851.889 -366.772 868.772 -353.832C885.654 -340.893 896.705 -321.776 899.493 -300.688C902.281 -279.601 896.578 -258.269 883.638 -241.387H979.169L869.051 -160.691L920.448 -115.254C921.297 -114.578 922.105 -113.853 922.869 -113.081L923.8 -112.336C930.687 -105.627 935.417 -97.0176 937.387 -87.607C939.357 -78.1964 938.477 -68.4121 934.859 -59.5042C931.241 -50.5962 925.05 -42.969 917.076 -37.5968C909.103 -32.2246 899.708 -29.3515 890.094 -29.3444C883.359 -29.368 876.702 -30.784 870.541 -33.5033C871.406 -8.92053 881.09 14.5297 897.821 32.5606C914.553 50.5916 937.215 61.9987 961.664 64.6967C964.962 65.0701 968.278 65.2566 971.596 65.2553H972.838C986.274 65.2635 999.58 62.623 1011.99 57.485C1024.41 52.347 1035.69 44.8123 1045.19 35.3115C1054.69 25.8107 1062.23 14.5304 1067.36 2.11551C1072.5 -10.2994 1075.14 -23.6054 1075.13 -37.0415C1075.16 -43.5165 1074.58 -49.9796 1073.4 -56.3462C1090.81 -33.723 1104.72 -8.6138 1114.67 18.1417L1116.91 24.349C1131.39 65.9854 1136.06 110.401 1130.56 154.138C1125.06 197.875 1109.54 239.752 1085.2 276.508C1060.87 313.264 1028.38 343.907 990.262 366.051C952.147 388.194 909.434 401.241 865.451 404.175C832.531 431.819 795.368 453.974 755.395 469.787L794.066 589.092C795.369 592.089 797.356 594.74 799.867 596.831C802.379 598.922 805.346 600.396 808.53 601.134L889.225 615.969C892.25 616.496 894.993 618.073 896.969 620.424C898.945 622.775 900.027 625.748 900.026 628.819V641.854H685.687L688.107 625.839C688.474 623.418 689.503 621.145 691.08 619.272C692.658 617.399 694.722 615.998 697.046 615.224L737.394 602.189C740.025 601.347 742.32 599.691 743.949 597.46C745.578 595.228 746.456 592.537 746.456 589.774L715.916 483.133C683.816 492.107 650.727 497.07 617.406 497.906H607.474C602.881 497.906 598.287 497.906 593.88 497.906L584.817 588.223C584.709 592.033 585.87 595.771 588.117 598.849C590.364 601.928 593.57 604.173 597.232 605.231L640.683 615.721C650.429 618.577 653.719 629.129 653.719 642.164H439.131C439.131 630.06 438.511 618.08 449.001 616.404L524.606 605.045C530.331 604.708 535.698 602.153 539.57 597.923C543.441 593.692 545.51 588.12 545.339 582.388L553.284 496.913C544.525 510.17 531.319 519.862 516.046 524.244C500.773 528.626 484.437 527.408 469.982 520.811C452.212 534.123 430.721 541.538 408.523 542.017C386.326 542.495 364.535 536.014 346.208 523.48C362.383 512.889 375.936 498.755 385.841 482.15C395.746 465.545 401.743 446.904 403.377 427.639L403.626 427.329ZM1087.24 118.266C1086.94 103.247 1085.74 88.2603 1083.64 73.3869C1061.83 89.7175 1036.41 100.555 1009.52 104.982C1008.4 204.994 969.331 300.846 900.212 373.139C954.409 356.138 1001.77 322.291 1035.41 276.519C1069.04 230.748 1087.2 175.44 1087.24 118.638" fill="white"/>
</g>
</g>
</svg>
