<svg width="768" height="315" preserveAspectRatio='none' viewBox="0 0 768 315" fill="none" xmlns="http://www.w3.org/2000/svg">
<mask id="mask0" mask-type="alpha" maskUnits="userSpaceOnUse" x="0" y="0" width="768" height="315">
<rect width="768" height="315" fill="#003D73"/>
</mask>
<g mask="url(#mask0)">
<g opacity="0.1">
<path d="M76.4623 620.329C76.152 616.728 75.9658 613.066 75.9658 609.404C75.9629 604.965 76.2115 600.53 76.7106 596.12C79.3039 570.832 89.448 546.911 105.823 527.467C107.375 525.543 117.307 515.052 120.845 512.259C169.884 463.269 199.303 398.029 203.554 328.842C207.804 259.656 186.591 191.305 143.917 136.681C101.243 82.0573 40.0558 44.936 -28.1032 32.3185C-96.2623 19.7009 -166.683 32.4591 -226.083 68.187L-190.267 217.784C-165.801 207.63 -139.424 202.906 -112.956 203.936C-86.4869 204.967 -60.557 211.727 -36.9548 223.751C-13.3525 235.775 7.36005 252.777 23.7539 273.583C40.1478 294.389 51.8326 318.504 58.0021 344.264C64.1716 370.024 64.679 396.816 59.4891 422.791C54.2993 448.766 43.5359 473.307 27.9415 494.718C12.3471 516.13 -7.70697 533.904 -30.837 546.813C-53.9671 559.722 -79.6225 567.459 -106.033 569.491L-99.8257 594.693L-85.611 653.972V654.655C-85.1292 656.274 -84.8171 657.938 -84.6799 659.621C-96.0392 660.676 -107.585 661.297 -119.255 661.297C-215.363 661.318 -307.592 623.385 -375.875 555.753C-444.159 488.12 -482.973 396.259 -483.873 300.155C-479.719 299.99 -475.575 299.618 -471.458 299.037C-406.964 287.864 -343.774 236.033 -330.118 166.697C-323.829 141.381 -323.586 114.94 -329.409 89.5124C-335.232 64.0849 -346.958 40.3847 -363.637 20.3284V-48.3867H-188.715C-176.639 -48.3293 -164.671 -50.6614 -153.5 -55.2486C-142.33 -59.8358 -132.177 -66.5875 -123.626 -75.1149C-115.076 -83.6423 -108.297 -93.777 -103.679 -104.935C-99.0618 -116.094 -96.6974 -128.055 -96.7221 -140.131C-97.2525 -163.115 -106.564 -185.023 -122.743 -201.356C-138.923 -217.688 -160.743 -227.206 -183.72 -227.952C-206.698 -228.699 -229.09 -220.619 -246.296 -205.372C-263.502 -190.124 -274.216 -168.867 -276.238 -145.966C-289.178 -162.849 -308.294 -173.899 -329.382 -176.687C-350.47 -179.475 -371.801 -173.772 -388.684 -160.832C-405.566 -147.893 -416.617 -128.776 -419.405 -107.688C-422.193 -86.6008 -416.49 -65.2693 -403.55 -48.3867H-499.081L-388.963 32.3086L-440.36 77.7462C-441.209 78.4217 -442.018 79.1472 -442.781 79.9188L-443.712 80.6637C-450.599 87.3727 -455.329 95.9824 -457.299 105.393C-459.269 114.804 -458.389 124.588 -454.771 133.496C-451.153 142.404 -444.962 150.031 -436.988 155.403C-429.015 160.775 -419.621 163.648 -410.006 163.656C-403.271 163.632 -396.614 162.216 -390.453 159.497C-391.318 184.079 -401.002 207.53 -417.733 225.561C-434.465 243.592 -457.127 254.999 -481.576 257.697C-484.874 258.07 -488.19 258.257 -491.508 258.255H-492.75C-506.186 258.263 -519.492 255.623 -531.907 250.485C-544.321 245.347 -555.602 237.812 -565.103 228.311C-574.603 218.811 -582.138 207.53 -587.276 195.116C-592.414 182.701 -595.055 169.395 -595.046 155.959C-595.07 149.483 -594.488 143.02 -593.308 136.654C-610.719 159.277 -624.633 184.386 -634.587 211.142L-636.822 217.349C-651.298 258.985 -655.968 303.401 -650.468 347.138C-644.968 390.875 -629.447 432.752 -605.113 469.508C-580.779 506.264 -548.29 536.907 -510.174 559.051C-472.059 581.194 -429.346 594.241 -385.363 597.175C-352.443 624.819 -315.28 646.974 -275.307 662.787L-313.979 782.092C-315.281 785.089 -317.268 787.74 -319.779 789.831C-322.291 791.922 -325.258 793.396 -328.442 794.134L-409.137 808.969C-412.162 809.496 -414.905 811.073 -416.881 813.424C-418.857 815.775 -419.939 818.748 -419.938 821.819V834.854H-205.599L-208.019 818.839C-208.386 816.418 -209.415 814.145 -210.993 812.272C-212.57 810.399 -214.634 808.998 -216.958 808.224L-257.306 795.189C-259.937 794.347 -262.233 792.691 -263.861 790.46C-265.49 788.228 -266.368 785.537 -266.368 782.774L-235.828 676.133C-203.728 685.107 -170.639 690.07 -137.318 690.906H-127.386C-122.793 690.906 -118.199 690.906 -113.792 690.906L-104.73 781.223C-104.621 785.033 -105.782 788.771 -108.029 791.849C-110.276 794.928 -113.482 797.173 -117.144 798.231L-160.595 808.721C-170.341 811.577 -173.631 822.129 -173.631 835.164H40.9564C40.9564 823.06 41.5771 811.08 31.0868 809.404L-44.5184 798.045C-50.2428 797.708 -55.6105 795.153 -59.4816 790.923C-63.3527 786.692 -65.4224 781.12 -65.2509 775.388L-73.1963 689.913C-64.4373 703.17 -51.2313 712.862 -35.9581 717.244C-20.6849 721.626 -4.34894 720.408 10.106 713.811C27.8758 727.123 49.3668 734.538 71.5645 735.017C93.7623 735.495 115.553 729.014 133.88 716.48C117.705 705.889 104.151 691.755 94.2466 675.15C84.3418 658.545 78.3451 639.904 76.7106 620.639L76.4623 620.329ZM-607.151 311.266C-606.857 296.247 -605.654 281.26 -603.55 266.387C-581.741 282.718 -556.319 293.555 -529.435 297.982C-528.317 397.994 -489.243 493.846 -420.124 566.139C-474.322 549.138 -521.682 515.291 -555.319 469.519C-588.955 423.748 -607.113 368.44 -607.151 311.638" fill="white"/>
</g>
<g opacity="0.1">
<path d="M707.626 467.329C707.936 463.728 708.122 460.066 708.122 456.404C708.125 451.965 707.876 447.53 707.377 443.12C704.784 417.832 694.64 393.911 678.265 374.467C676.713 372.543 666.781 362.052 663.243 359.259C614.204 310.269 584.785 245.029 580.534 175.842C576.284 106.656 597.497 38.3049 640.171 -16.3189C682.845 -70.9427 744.032 -108.064 812.191 -120.682C880.35 -133.299 950.77 -120.541 1010.17 -84.813L974.354 64.7835C949.889 54.6305 923.512 49.9061 897.043 50.9364C870.575 51.9667 844.645 58.7272 821.043 70.7513C797.44 82.7755 776.728 99.7771 760.334 120.583C743.94 141.389 732.255 165.504 726.086 191.264C719.916 217.024 719.409 243.816 724.599 269.791C729.789 295.766 740.552 320.307 756.146 341.718C771.741 363.13 791.795 380.904 814.925 393.813C838.055 406.722 863.71 414.459 890.121 416.491L883.914 441.693L869.699 500.972V501.655C869.217 503.274 868.905 504.938 868.768 506.621C880.127 507.676 891.673 508.297 903.343 508.297C999.451 508.318 1091.68 470.385 1159.96 402.753C1228.25 335.12 1267.06 243.259 1267.96 147.155C1263.81 146.99 1259.66 146.618 1255.55 146.037C1191.05 134.864 1127.86 83.0331 1114.21 13.6972C1107.92 -11.619 1107.67 -38.0601 1113.5 -63.4876C1119.32 -88.9151 1131.05 -112.615 1147.73 -132.672V-201.387H972.803C960.727 -201.329 948.759 -203.661 937.588 -208.249C926.418 -212.836 916.265 -219.588 907.714 -228.115C899.164 -236.642 892.384 -246.777 887.767 -257.935C883.15 -269.094 880.785 -281.055 880.81 -293.131C881.34 -316.115 890.652 -338.023 906.831 -354.356C923.011 -370.688 944.83 -380.206 967.808 -380.952C990.786 -381.699 1013.18 -373.619 1030.38 -358.372C1047.59 -343.124 1058.3 -321.867 1060.33 -298.966C1073.27 -315.849 1092.38 -326.899 1113.47 -329.687C1134.56 -332.475 1155.89 -326.772 1172.77 -313.832C1189.65 -300.893 1200.71 -281.776 1203.49 -260.688C1206.28 -239.601 1200.58 -218.269 1187.64 -201.387H1283.17L1173.05 -120.691L1224.45 -75.2538C1225.3 -74.5783 1226.11 -73.8528 1226.87 -73.0812L1227.8 -72.3363C1234.69 -65.6273 1239.42 -57.0176 1241.39 -47.607C1243.36 -38.1964 1242.48 -28.4121 1238.86 -19.5042C1235.24 -10.5962 1229.05 -2.96896 1221.08 2.4032C1213.1 7.77536 1203.71 10.6485 1194.09 10.6556C1187.36 10.632 1180.7 9.21603 1174.54 6.49673C1175.41 31.0795 1185.09 54.5297 1201.82 72.5606C1218.55 90.5916 1241.21 101.999 1265.66 104.697C1268.96 105.07 1272.28 105.257 1275.6 105.255H1276.84C1290.27 105.263 1303.58 102.623 1315.99 97.485C1328.41 92.347 1339.69 84.8123 1349.19 75.3115C1358.69 65.8107 1366.23 54.5304 1371.36 42.1155C1376.5 29.7006 1379.14 16.3946 1379.13 2.95853C1379.16 -3.51651 1378.58 -9.97955 1377.4 -16.3462C1394.81 6.27698 1408.72 31.3862 1418.67 58.1417L1420.91 64.349C1435.39 105.985 1440.06 150.401 1434.56 194.138C1429.06 237.875 1413.54 279.752 1389.2 316.508C1364.87 353.264 1332.38 383.907 1294.26 406.051C1256.15 428.194 1213.43 441.241 1169.45 444.175C1136.53 471.819 1099.37 493.974 1059.39 509.787L1098.07 629.092C1099.37 632.089 1101.36 634.74 1103.87 636.831C1106.38 638.922 1109.35 640.396 1112.53 641.134L1193.22 655.969C1196.25 656.496 1198.99 658.073 1200.97 660.424C1202.94 662.775 1204.03 665.748 1204.03 668.819V681.854H989.687L992.107 665.839C992.474 663.418 993.503 661.145 995.08 659.272C996.658 657.399 998.722 655.998 1001.05 655.224L1041.39 642.189C1044.02 641.347 1046.32 639.691 1047.95 637.46C1049.58 635.228 1050.46 632.537 1050.46 629.774L1019.92 523.133C987.816 532.107 954.727 537.07 921.406 537.906H911.474C906.881 537.906 902.287 537.906 897.88 537.906L888.817 628.223C888.709 632.033 889.87 635.771 892.117 638.849C894.364 641.928 897.57 644.173 901.232 645.231L944.683 655.721C954.429 658.577 957.719 669.129 957.719 682.164H743.131C743.131 670.06 742.511 658.08 753.001 656.404L828.606 645.045C834.331 644.708 839.698 642.153 843.57 637.923C847.441 633.692 849.51 628.12 849.339 622.388L857.284 536.913C848.525 550.17 835.319 559.862 820.046 564.244C804.773 568.626 788.437 567.408 773.982 560.811C756.212 574.123 734.721 581.538 712.523 582.017C690.326 582.495 668.535 576.014 650.208 563.48C666.383 552.889 679.936 538.755 689.841 522.15C699.746 505.545 705.743 486.904 707.377 467.639L707.626 467.329ZM1391.24 158.266C1390.94 143.247 1389.74 128.26 1387.64 113.387C1365.83 129.718 1340.41 140.555 1313.52 144.982C1312.4 244.994 1273.33 340.846 1204.21 413.139C1258.41 396.138 1305.77 362.291 1339.41 316.519C1373.04 270.748 1391.2 215.44 1391.24 158.638" fill="white"/>
</g>
</g>
</svg>
