<svg width="32" height="32" viewBox="0 0 32 32" fill="none" xmlns="http://www.w3.org/2000/svg">
<g clip-path="url(#clip0)">
<path d="M30.5107 23.7381C31.2751 22.4864 31.6766 21.0602 31.6766 19.5745C31.6766 15.1574 28.083 11.5637 23.6658 11.5637C23.1344 11.5637 22.6069 11.6167 22.0889 11.7206C21.8861 11.627 21.6778 11.5477 21.4671 11.4851L14.4505 8.67367C14.2361 8.5878 13.9907 8.65786 13.8541 8.84405L13.7867 8.93586L11.2058 7.04161C11.5114 6.24842 11.2638 5.31604 10.5463 4.78929C10.2125 4.54436 9.81766 4.41479 9.4046 4.41479C8.79128 4.41479 8.20878 4.70973 7.84616 5.20361C7.52822 5.63673 7.41597 6.17255 7.50297 6.67786C6.98528 6.74655 6.50985 7.02411 6.19766 7.44948C5.56747 8.30817 5.75335 9.51942 6.61197 10.1496C6.94585 10.3946 7.34066 10.5242 7.75378 10.5242C8.19428 10.5242 8.61891 10.372 8.9576 10.1032L11.539 11.998L11.4862 12.0699C11.3495 12.2562 11.3562 12.5112 11.5024 12.69L12.3022 13.6679C12.0966 13.6827 11.8905 13.7067 11.6847 13.7397L8.62753 12.5148C8.41322 12.4289 8.16772 12.499 8.03116 12.6852L7.96378 12.777L5.38297 10.8827C5.68853 10.0895 5.44085 9.15717 4.72341 8.63048C4.3896 8.38548 3.99472 8.25592 3.58166 8.25592C2.96835 8.25592 2.38572 8.55086 2.02322 9.0448C1.70535 9.47792 1.59303 10.0137 1.6801 10.519C1.16235 10.5877 0.686972 10.8654 0.374847 11.2906C0.0695343 11.7065 -0.0555282 12.2164 0.0227843 12.7265C0.101034 13.2365 0.373159 13.6855 0.789097 13.9907C1.12297 14.2357 1.51778 14.3652 1.93097 14.3652C2.37141 14.3652 2.7961 14.2131 3.13472 13.9443L5.71616 15.839L5.66328 15.911C5.52666 16.0972 5.53335 16.3523 5.67953 16.531L6.52647 17.5665C6.06591 18.5123 5.82303 19.5594 5.82303 20.6167C5.82303 24.4591 8.94903 27.5852 12.7915 27.5852C13.071 27.5852 13.2977 27.3585 13.2977 27.0789C13.2977 26.7993 13.071 26.5727 12.7915 26.5727C9.50735 26.5727 6.8356 23.9009 6.8356 20.6168C6.8356 19.8725 6.97585 19.1339 7.2451 18.4452L10.3397 22.2288C10.5668 22.6009 10.846 22.9394 11.1697 23.2354C11.1712 23.2368 11.1727 23.2381 11.1743 23.2395L11.1744 23.2396C11.18 23.2447 11.1857 23.2492 11.1913 23.2542C11.3106 23.3621 11.4344 23.464 11.5602 23.5562C11.6177 23.5985 11.6763 23.6389 11.7352 23.6783C11.7532 23.6903 11.7715 23.7017 11.7895 23.7135C11.8316 23.7407 11.8739 23.7674 11.9167 23.7931C11.9373 23.8056 11.958 23.8178 11.9788 23.83C12.0216 23.8549 12.0647 23.879 12.1081 23.9025C12.1273 23.9129 12.1463 23.9235 12.1657 23.9336C12.2223 23.9632 12.2793 23.9917 12.337 24.0189C12.3428 24.0216 12.3485 24.0247 12.3543 24.0274C12.4163 24.0563 12.4791 24.0835 12.5422 24.1097C12.5661 24.1195 12.5902 24.1286 12.6142 24.1382C12.6537 24.1537 12.6933 24.169 12.7333 24.1835C12.7628 24.1943 12.7924 24.2045 12.822 24.2147C12.8563 24.2263 12.8906 24.2374 12.9251 24.2482C12.9581 24.2585 12.9911 24.269 13.0244 24.2785C13.0533 24.2869 13.0824 24.2944 13.1114 24.3022C13.2541 24.3404 13.3984 24.3719 13.5443 24.3963C13.56 24.3989 13.5756 24.4017 13.5913 24.4042C13.6404 24.4119 13.6897 24.4186 13.7391 24.4247C13.754 24.4265 13.7689 24.4282 13.7838 24.4299C13.8352 24.4358 13.8867 24.441 13.9383 24.4452C13.9468 24.4459 13.9552 24.4462 13.9637 24.4469C14.1071 24.4576 14.2513 24.4619 14.3962 24.4592C14.4353 24.4585 14.4743 24.4574 14.5133 24.4557C14.538 24.4547 14.5627 24.4539 14.5875 24.4524C14.6451 24.449 14.7025 24.4443 14.7598 24.4388C14.7845 24.4364 14.8092 24.4338 14.8339 24.431C14.8861 24.4252 14.938 24.4186 14.9899 24.411C15.002 24.4092 15.0141 24.4082 15.0262 24.4064C15.0495 24.4028 15.0724 24.3979 15.0955 24.394C15.1209 24.3897 15.1462 24.3852 15.1715 24.3804C16.1522 24.1988 17.032 23.7174 17.708 22.999C17.7179 22.9886 17.7277 22.9781 17.7376 22.9676C17.7622 22.9409 17.7868 22.9144 17.8108 22.887C17.8482 22.8449 17.8847 22.8019 17.9205 22.7584C17.9322 22.7443 17.9435 22.73 17.955 22.7157C17.9969 22.6635 18.038 22.6107 18.0778 22.5565C18.8147 21.5526 19.1166 20.3217 18.9277 19.0907C18.7388 17.8597 18.0819 16.7759 17.0781 16.0392C16.9881 15.9731 16.8942 15.9094 16.7977 15.8488C16.7456 15.7889 16.6795 15.7413 16.6038 15.711L16.4412 15.6458C16.4301 15.6401 16.4187 15.6351 16.4076 15.6296C16.3162 15.5837 16.2232 15.5412 16.129 15.5014C15.9703 15.4344 15.8086 15.3751 15.6443 15.3264L13.9761 14.658C13.9777 14.6579 13.9797 14.6579 13.9813 14.6578C14.0006 14.6572 14.0214 14.6564 14.0445 14.6555C14.046 14.6555 14.0475 14.6554 14.049 14.6554C14.0724 14.6545 14.098 14.6534 14.1251 14.6522C14.1278 14.652 14.1303 14.652 14.1332 14.6519C14.1602 14.6507 14.1892 14.6493 14.2197 14.6477C14.2245 14.6475 14.2291 14.6472 14.234 14.647C14.2646 14.6454 14.2968 14.6437 14.3306 14.6417C14.3357 14.6415 14.3408 14.6411 14.346 14.6409C14.3808 14.6389 14.4172 14.6366 14.4553 14.6342C14.4597 14.6339 14.4642 14.6335 14.4687 14.6333C14.5495 14.628 14.637 14.6217 14.7311 14.6144C14.7352 14.614 14.7392 14.6137 14.7433 14.6134C14.7885 14.6099 14.8352 14.6059 14.8832 14.6017C14.8903 14.6011 14.8973 14.6005 14.9045 14.5999C14.952 14.5957 15.001 14.5913 15.0512 14.5865C15.0588 14.5857 15.0665 14.585 15.0742 14.5842C15.1251 14.5794 15.1773 14.5742 15.2308 14.5686C15.2378 14.5679 15.2449 14.5671 15.2519 14.5664C15.3077 14.5605 15.3645 14.5544 15.4229 14.5479C15.4252 14.5476 15.4273 14.5473 15.4296 14.5471C15.4885 14.5405 15.5488 14.5334 15.6102 14.526C15.6146 14.5254 15.6188 14.525 15.6232 14.5244C15.683 14.5171 15.7441 14.5094 15.8061 14.5014C15.8153 14.5002 15.8245 14.499 15.8337 14.4978C15.8942 14.4899 15.9557 14.4815 16.0182 14.4727C16.0288 14.4712 16.0395 14.4697 16.0503 14.4682C16.1133 14.4593 16.177 14.45 16.2418 14.4404C16.2514 14.4389 16.2612 14.4374 16.2707 14.436C16.3381 14.4258 16.4062 14.4152 16.4755 14.404C16.4798 14.4034 16.4843 14.4025 16.4887 14.4019C16.559 14.3905 16.6302 14.3786 16.7022 14.3663C16.7067 14.3655 16.711 14.3648 16.7155 14.364C16.7864 14.3519 16.8584 14.339 16.931 14.3257C16.9415 14.3238 16.952 14.322 16.9625 14.32C17.0328 14.307 17.104 14.2935 17.1757 14.2796C17.1883 14.2772 17.2008 14.2747 17.2133 14.2722C17.2851 14.2581 17.3574 14.2436 17.4304 14.2285C17.4422 14.226 17.454 14.2235 17.4658 14.221C17.541 14.2053 17.6168 14.1891 17.6933 14.1722C17.7001 14.1707 17.7069 14.1692 17.7137 14.1677C17.7914 14.1505 17.8697 14.1327 17.9486 14.1142C17.9529 14.1132 17.9572 14.1123 17.9615 14.1113C18.0404 14.0927 18.12 14.0734 18.2 14.0537C18.2108 14.051 18.2216 14.0484 18.2323 14.0456C18.3095 14.0264 18.3872 14.0064 18.4651 13.9859C18.4786 13.9824 18.492 13.9789 18.5055 13.9752C18.583 13.9547 18.6608 13.9336 18.7389 13.9118C18.7518 13.9082 18.7648 13.9045 18.7778 13.9009C18.8578 13.8784 18.938 13.8554 19.0185 13.8315C19.027 13.829 19.0355 13.8264 19.0441 13.8239C19.1275 13.799 19.2112 13.7735 19.2951 13.7473C19.2972 13.7466 19.2993 13.746 19.3013 13.7454C19.385 13.7191 19.4688 13.6919 19.5528 13.6642C19.5638 13.6605 19.5747 13.6569 19.5857 13.6533C19.666 13.6265 19.7466 13.599 19.8271 13.5707C19.8409 13.5659 19.8548 13.5611 19.8686 13.5562C19.9484 13.528 20.0283 13.499 20.1082 13.4694C20.1217 13.4644 20.1352 13.4594 20.1487 13.4543C20.2299 13.4239 20.3112 13.3928 20.3924 13.3609C20.4023 13.357 20.4121 13.353 20.422 13.3491C20.5075 13.3152 20.593 13.2807 20.6783 13.2451C20.685 13.2423 20.6916 13.2394 20.6982 13.2364C20.807 13.1854 20.9203 13.136 21.0448 13.0857C21.0513 13.0831 21.0576 13.0804 21.064 13.0775L21.1037 13.0596C21.2352 12.9995 21.3604 12.9545 21.476 12.926C21.4875 12.9232 21.4989 12.9199 21.5103 12.9162C21.58 12.8936 21.6501 12.873 21.7203 12.8527C21.8545 12.8143 21.9934 12.7786 22.1366 12.7465C22.1371 12.7465 22.1374 12.7463 22.1379 12.7462C22.6385 12.6342 23.15 12.5765 23.6657 12.5765C27.5246 12.5765 30.664 15.7159 30.664 19.5749C30.664 21.0693 30.1998 22.4949 29.3214 23.6976C29.3192 23.7006 29.3175 23.7038 29.3153 23.7069H25.4415C26.4388 22.6462 26.7769 21.6414 26.7976 21.5774C26.8836 21.3122 26.7387 21.0283 26.4738 20.9412C26.209 20.8544 25.9232 20.9987 25.8351 21.2632C25.8283 21.2834 25.1388 23.2849 22.7626 24.4189C22.5103 24.5393 22.4033 24.8415 22.5238 25.0938C22.6106 25.2758 22.792 25.3821 22.981 25.3821C23.0541 25.3821 23.1284 25.3662 23.1987 25.3326C23.5915 25.1452 23.9431 24.9375 24.2598 24.7193C24.2603 24.7193 24.2607 24.7194 24.2613 24.7194H30.1743C30.6228 24.7194 30.9876 25.0842 30.9876 25.5327V25.7525C30.9876 26.201 30.6228 26.5658 30.1743 26.5658H20.8647C20.4163 26.5658 20.0514 26.201 20.0514 25.7525C20.0514 25.4729 19.8248 25.2463 19.5452 25.2463C19.2655 25.2463 19.0389 25.4729 19.0389 25.7525C19.0389 26.0477 19.1097 26.3264 19.2346 26.5733H14.4699C14.1903 26.5733 13.9637 26.7999 13.9637 27.0795C13.9637 27.3592 14.1903 27.5858 14.4699 27.5858H23.6658C23.6944 27.5858 23.7223 27.5828 23.7497 27.5783H30.1743C31.181 27.5783 32.0001 26.7592 32.0001 25.7525V25.5327C32.0001 24.6405 31.3572 23.8965 30.5107 23.7381ZM12.138 11.1819L9.20354 9.02786C9.11329 8.96154 9.00841 8.92973 8.90435 8.92973C8.74872 8.92973 8.59497 9.00136 8.49585 9.13648C8.32072 9.37505 8.05028 9.51186 7.75385 9.51186C7.55772 9.51186 7.36997 9.45017 7.2111 9.33355C6.80253 9.03373 6.7141 8.4573 7.01391 8.0488C7.18878 7.81055 7.45903 7.67392 7.75535 7.67392C7.88553 7.67392 8.01153 7.7008 8.12966 7.7538C8.34741 7.85148 8.60372 7.7838 8.74485 7.59136C8.88603 7.39898 8.87379 7.13417 8.71535 6.9558C8.43016 6.63448 8.40791 6.14973 8.66228 5.80298C8.83747 5.56442 9.10791 5.42761 9.40453 5.42761C9.60072 5.42761 9.78835 5.48923 9.94716 5.6058C10.3557 5.9058 10.4441 6.48217 10.1443 6.89073C9.97885 7.11611 10.0275 7.43298 10.2528 7.59842L13.1875 9.75236L12.138 11.1819ZM6.31528 15.0229L3.38085 12.869C3.29341 12.8048 3.18835 12.7709 3.08128 12.7709C3.05578 12.7709 3.03003 12.7728 3.00453 12.7767C2.87185 12.797 2.7526 12.8694 2.67316 12.9776C2.49803 13.2162 2.22766 13.353 1.93122 13.353C1.7351 13.353 1.54735 13.2914 1.38841 13.1747C1.19047 13.0294 1.06097 12.8159 1.02378 12.5731C0.986597 12.3304 1.04603 12.0879 1.19135 11.8899C1.36616 11.6517 1.63647 11.515 1.93272 11.515C2.06291 11.515 2.18885 11.5419 2.30697 11.5949C2.5246 11.6925 2.78097 11.6249 2.92216 11.4324C3.06335 11.2401 3.0511 10.9753 2.89266 10.7969C2.60753 10.4755 2.58528 9.99073 2.83966 9.64405C3.01478 9.40542 3.28528 9.26861 3.58185 9.26861C3.77791 9.26861 3.9656 9.33023 4.12447 9.44686C4.53303 9.74673 4.62147 10.3232 4.32166 10.7317C4.24222 10.8399 4.20897 10.9753 4.22941 11.108C4.24972 11.2407 4.32203 11.3599 4.43022 11.4394L7.36485 13.5934L6.31528 15.0229ZM15.2903 16.2754C15.3057 16.2815 15.3213 16.287 15.3373 16.2915C15.5643 16.3575 15.7863 16.4465 15.9972 16.5561C16.0118 16.5637 16.0268 16.5707 16.0422 16.5769L16.0791 16.5917C16.1003 16.6092 16.1232 16.6251 16.1474 16.6391C16.263 16.706 16.3745 16.7788 16.479 16.8556C17.2648 17.4323 17.7792 18.2807 17.927 19.2444C18.0748 20.208 17.8385 21.1716 17.2618 21.9575C17.221 22.0131 17.1786 22.067 17.135 22.1199C17.127 22.1296 17.1187 22.1388 17.1106 22.1485C17.0717 22.1947 17.032 22.2401 16.9909 22.2841C16.9873 22.288 16.9835 22.2919 16.9799 22.2959C16.4452 22.8639 15.7388 23.2467 14.9737 23.3877C14.9638 23.3894 14.954 23.3912 14.9441 23.3929C14.8883 23.4027 14.832 23.4109 14.7757 23.4182C14.7612 23.42 14.7467 23.4221 14.7321 23.4238C14.6693 23.431 14.6062 23.4368 14.5428 23.4408C14.5387 23.441 14.5346 23.4415 14.5305 23.4418C14.4593 23.446 14.3877 23.4482 14.316 23.4482C14.2242 23.4482 14.1328 23.4445 14.042 23.4378C14.0348 23.4372 14.0276 23.4369 14.0204 23.4363C13.9806 23.4331 13.9409 23.429 13.9013 23.4245C13.8888 23.4231 13.8763 23.4217 13.8638 23.4202C13.8258 23.4154 13.788 23.4102 13.7503 23.4044C13.7369 23.4022 13.7236 23.3999 13.7103 23.3976C13.5978 23.3788 13.4867 23.3544 13.377 23.3252C13.353 23.3187 13.3289 23.3125 13.3051 23.3057C13.2797 23.2983 13.2546 23.2904 13.2294 23.2824C13.2017 23.2737 13.1741 23.2649 13.1466 23.2555C13.1238 23.2477 13.1011 23.2398 13.0785 23.2317C13.0468 23.2202 13.0153 23.2081 12.9839 23.1957C12.9654 23.1884 12.9468 23.1814 12.9285 23.1737C12.879 23.1533 12.8298 23.1319 12.7813 23.1092C12.7768 23.1071 12.7723 23.1048 12.7679 23.1027C12.7227 23.0814 12.678 23.059 12.6337 23.0359C12.6185 23.0279 12.6035 23.0195 12.5883 23.0114C12.5545 22.993 12.5208 22.9742 12.4875 22.9548C12.4711 22.9452 12.4547 22.9355 12.4385 22.9258C12.4052 22.9057 12.3723 22.885 12.3395 22.8638C12.3252 22.8545 12.3107 22.8454 12.2964 22.8359C12.2502 22.8052 12.2045 22.7735 12.1595 22.7405C12.0562 22.6646 11.9538 22.5805 11.8552 22.4905C11.8545 22.4899 11.8538 22.4894 11.8532 22.4887C11.5925 22.2505 11.369 21.9771 11.1887 21.6764C11.176 21.6553 11.1619 21.6352 11.1463 21.6162L7.52066 17.1831C7.52053 17.1829 7.52035 17.1828 7.52016 17.1825L6.71197 16.1944L6.83166 16.0314C6.83185 16.0312 6.83203 16.0309 6.83222 16.0307L8.48072 13.7847C8.48085 13.7845 8.48097 13.7844 8.48104 13.7842L8.61541 13.6011L11.4377 14.7319C11.4377 14.7319 11.4378 14.732 11.4379 14.732L15.2903 16.2754ZM20.5145 12.2097C20.4829 12.2232 20.4517 12.2367 20.421 12.2502C20.4113 12.2545 20.4015 12.2588 20.392 12.2631C20.3538 12.2802 20.316 12.2972 20.2788 12.3147C20.231 12.3346 20.1832 12.3542 20.1352 12.3735C20.1298 12.3758 20.1243 12.3779 20.1189 12.38C20.0767 12.397 20.0344 12.4139 19.9921 12.4304C19.9783 12.4357 19.9643 12.441 19.9505 12.4464C19.9164 12.4595 19.8823 12.4727 19.8482 12.4857C19.8332 12.4914 19.8183 12.4967 19.8034 12.5024C19.7705 12.5147 19.7375 12.527 19.7045 12.5392C19.6876 12.5454 19.6706 12.5514 19.6537 12.5575C19.6225 12.5688 19.5915 12.5801 19.5603 12.5911C19.5431 12.5972 19.5258 12.6031 19.5086 12.6092C19.478 12.6199 19.4473 12.6307 19.4167 12.6412C19.3981 12.6476 19.3796 12.6538 19.361 12.66C19.3316 12.67 19.3022 12.6801 19.2727 12.6899C19.2538 12.6961 19.2348 12.7022 19.216 12.7084C19.187 12.7179 19.158 12.7275 19.1291 12.7368C19.1097 12.743 19.0904 12.7491 19.0711 12.7552C19.0425 12.7644 19.0139 12.7735 18.9853 12.7824C18.9654 12.7885 18.9456 12.7945 18.9257 12.8007C18.8981 12.8092 18.8705 12.8177 18.8429 12.826C18.8212 12.8326 18.7994 12.839 18.7777 12.8455C18.7519 12.8531 18.7262 12.8609 18.7004 12.8684C18.6783 12.8749 18.6562 12.8811 18.6341 12.8875C18.6087 12.8948 18.5834 12.9021 18.5581 12.9093C18.5355 12.9157 18.5131 12.9219 18.4906 12.9281C18.4661 12.9349 18.4415 12.9418 18.417 12.9485C18.3935 12.955 18.37 12.9613 18.3464 12.9677C18.323 12.974 18.2995 12.9804 18.2762 12.9865C18.252 12.993 18.228 12.9992 18.2038 13.0055C18.1814 13.0114 18.159 13.0173 18.1366 13.0231C18.1116 13.0295 18.0867 13.0358 18.0618 13.0421C18.0403 13.0475 18.0187 13.053 17.9973 13.0584C17.9718 13.0647 17.9466 13.0709 17.9213 13.077C17.9007 13.0821 17.88 13.0872 17.8595 13.0921C17.8332 13.0985 17.8068 13.1047 17.7805 13.1109C17.7612 13.1154 17.7417 13.1201 17.7224 13.1245C17.6956 13.1308 17.669 13.1369 17.6423 13.143C17.6237 13.1472 17.605 13.1515 17.5863 13.1557C17.5592 13.1619 17.5323 13.1678 17.5053 13.1737C17.4873 13.1777 17.4693 13.1817 17.4514 13.1856C17.4232 13.1917 17.3952 13.1977 17.3672 13.2038C17.351 13.2072 17.3348 13.2107 17.3187 13.2141C17.289 13.2204 17.2595 13.2265 17.23 13.2326C17.2157 13.2356 17.2013 13.2385 17.187 13.2415C17.1567 13.2477 17.1265 13.2539 17.0964 13.2599C17.083 13.2625 17.0695 13.2652 17.0562 13.2679C17.025 13.274 16.994 13.28 16.963 13.2861C16.9512 13.2884 16.9393 13.2907 16.9276 13.2929C16.8948 13.2991 16.8624 13.3053 16.8299 13.3113C16.8203 13.3131 16.8105 13.3149 16.801 13.3167C16.7672 13.3229 16.7337 13.329 16.7003 13.335C16.6919 13.3365 16.6835 13.338 16.675 13.3395C16.6403 13.3457 16.6059 13.3517 16.5716 13.3577C16.565 13.3588 16.5583 13.36 16.5517 13.3611C16.5153 13.3674 16.4791 13.3735 16.4432 13.3795C16.439 13.3802 16.4347 13.3809 16.4305 13.3816C16.3928 13.3879 16.3554 13.394 16.3182 13.4C16.3158 13.4004 16.3133 13.4008 16.3108 13.4012C16.272 13.4074 16.2335 13.4135 16.1953 13.4194C16.1945 13.4195 16.1938 13.4196 16.193 13.4197C14.8517 13.6275 13.8918 13.6478 13.8344 13.6487H13.5942L12.5345 12.353L12.8706 11.895L14.3031 9.9433C14.3032 9.94323 14.3032 9.94311 14.3033 9.94305L14.4379 9.75967L20.533 12.2019C20.5267 12.2044 20.5207 12.207 20.5145 12.2097Z" fill="white"/>
<path d="M27.823 18.1298C27.8847 18.3076 27.9353 18.4912 27.9735 18.6756C28.023 18.9148 28.2336 19.0793 28.4687 19.0793C28.5027 19.0793 28.5373 19.0758 28.5719 19.0686C28.8456 19.0119 29.0216 18.7439 28.9649 18.4702C28.9179 18.2431 28.8554 18.0169 28.7795 17.7979C28.6879 17.5338 28.3997 17.3938 28.1353 17.4855C27.8713 17.5772 27.7314 17.8656 27.823 18.1298Z" fill="white"/>
<path d="M23.6605 14.1576C23.3809 14.1576 23.1543 14.3843 23.1543 14.6638C23.1543 14.9434 23.3809 15.1701 23.6605 15.1701C25.0391 15.1701 26.3126 15.7977 27.1543 16.8921C27.254 17.0218 27.4041 17.0897 27.556 17.0897C27.6637 17.0897 27.7722 17.0555 27.8642 16.9848C28.0858 16.8143 28.1274 16.4965 27.9569 16.2748C26.922 14.9292 25.356 14.1576 23.6605 14.1576Z" fill="white"/>
</g>
<defs>
<clipPath id="clip0">
<rect width="32" height="32" fill="white"/>
</clipPath>
</defs>
</svg>
