<svg width="32" height="32" viewBox="0 0 32 32" fill="none" xmlns="http://www.w3.org/2000/svg">
<path d="M23.9961 17.3303C24.5851 17.3303 25.0626 16.8528 25.0626 16.2638C25.0626 15.6749 24.5851 15.1974 23.9961 15.1974C23.4072 15.1974 22.9297 15.6749 22.9297 16.2638C22.9297 16.8528 23.4072 17.3303 23.9961 17.3303Z" fill="white"/>
<path d="M26.6606 8.26562H18.1289C17.8345 8.26562 17.5957 8.50438 17.5957 8.79885C17.5957 9.09333 17.8345 9.33208 18.1289 9.33208H26.1274V10.9318C26.1274 11.2262 26.3661 11.465 26.6606 11.465C26.9551 11.465 27.1938 11.2262 27.1938 10.9318V8.79885C27.1938 8.50431 26.9551 8.26562 26.6606 8.26562Z" fill="white"/>
<path d="M10.6645 23.1959H5.39671C4.81362 23.1975 4.25406 22.9658 3.84288 22.5523C3.43236 22.1391 3.20114 21.5809 3.19927 20.9985V18.9301C3.19927 18.6356 2.96052 18.3969 2.66604 18.3969C2.37157 18.3969 2.13281 18.6356 2.13281 18.9301V20.9985C2.13308 22.8009 3.59426 24.2621 5.39671 24.2624H10.6645C10.959 24.2624 11.1977 24.0236 11.1977 23.7291C11.1977 23.4347 10.959 23.1959 10.6645 23.1959Z" fill="white"/>
<path d="M30.41 22.5451C30.0824 22.2813 29.7177 22.0673 29.3276 21.9102V19.4633H30.9273C31.2218 19.4633 31.4605 19.2245 31.4605 18.93V13.5977C31.4605 13.3033 31.2218 13.0645 30.9273 13.0645H29.3276V6.66576C29.3276 6.37128 29.0888 6.13253 28.7944 6.13253H26.6614V4.53284C26.6614 4.23837 26.4227 3.99961 26.1282 3.99961H21.8624V2.39993C21.8624 2.10545 21.6236 1.8667 21.3292 1.8667H2.71147C2.01714 1.86863 1.3516 2.14418 0.859032 2.63348L0.767316 2.7252C0.187097 3.30342 -0.0871163 4.12106 0.0271947 4.93223C0.0121976 4.97542 0.00299941 5.02042 0 5.06607V22.2206C0 24.526 1.8687 26.395 4.17412 26.3952H18.1666C18.4563 28.7286 20.5827 30.3852 22.916 30.0955C23.7003 29.9981 24.442 29.6844 25.058 29.1894C26.8928 30.6673 29.5782 30.378 31.0561 28.5432C32.534 26.7084 32.2448 24.023 30.41 22.5451ZM30.394 14.131V18.3968H23.4999C22.322 18.3968 21.367 17.4418 21.367 16.2639C21.367 15.0859 22.322 14.131 23.4999 14.131H30.394ZM1.5213 3.47972L1.61248 3.38853C1.90449 3.09779 2.29942 2.93416 2.71147 2.93316H20.7959V3.99961H3.7326C3.43813 3.99961 3.19937 4.23837 3.19937 4.53284C3.19937 4.82732 3.43813 5.06607 3.7326 5.06607H25.595V6.13253H2.62082C1.76239 6.1324 1.06659 5.4364 1.06666 4.57797C1.06672 4.16605 1.23023 3.77106 1.5213 3.47972ZM18.1666 25.3288H4.17412C2.45779 25.3288 1.06646 23.9374 1.06646 22.2211C1.06646 22.2209 1.06646 22.2208 1.06646 22.2206V6.68016C1.51597 7.01456 2.0606 7.19632 2.62082 7.19899H28.2611V13.0645H23.4999C21.7329 13.0645 20.3006 14.4969 20.3006 16.2639C20.3006 18.0309 21.7329 19.4633 23.4999 19.4633H28.2611V21.633C28.0843 21.6096 27.9063 21.5974 27.7279 21.5962C26.7576 21.5942 25.8162 21.9262 25.0618 22.5363C23.2299 21.0618 20.5496 21.3515 19.0751 23.1833C18.5787 23.8001 18.2641 24.5431 18.1666 25.3288ZM22.3956 29.0614C20.6286 29.0614 19.1962 27.629 19.1962 25.862C19.1962 24.095 20.6286 22.6626 22.3956 22.6626C24.1626 22.6626 25.595 24.095 25.595 25.862C25.5933 27.6282 24.1619 29.0596 22.3956 29.0614ZM27.7279 29.0614C27.0335 29.0621 26.358 28.8351 25.8051 28.4151C26.9469 26.9045 26.9469 24.8195 25.8051 23.3089C26.3578 22.8885 27.0334 22.6615 27.7279 22.6626C29.4949 22.6626 30.9273 24.095 30.9273 25.862C30.9273 27.6289 29.4949 29.0614 27.7279 29.0614Z" fill="white"/>
</svg>
