<svg width="32" height="32" viewBox="0 0 32 32" fill="none" xmlns="http://www.w3.org/2000/svg">
<path d="M28 18.1631C27.7239 18.1631 27.5 18.387 27.5 18.6631V22.1666H26.7045C26.5084 20.4324 24.9437 19.1856 23.2096 19.3816C21.7454 19.5471 20.5901 20.7025 20.4245 22.1666H10V7.66663H27.5V9.23913C27.5 9.51525 27.7239 9.73913 28 9.73913C28.2761 9.73913 28.5 9.51525 28.5 9.23913V7.16663C28.5 6.8905 28.2761 6.66663 28 6.66663H9.5C9.22388 6.66663 9 6.8905 9 7.16663V7.66663H3.274C2.01881 7.66825 1.00162 8.68538 1 9.94063V10.6666C1 10.9428 1.22388 11.1666 1.5 11.1666H2.0815L1.7 15.7491C0.701563 16.009 0.0035 16.9089 0 17.9406V22.1666C0 22.4428 0.223875 22.6666 0.5 22.6666H1.5125C1.64956 24.4546 3.21019 25.793 4.99819 25.6559C6.59569 25.5335 7.865 24.2641 7.9875 22.6666C7.992 22.6666 7.9955 22.6691 8 22.6691H9C9 22.9453 9.22388 23.1691 9.5 23.1691H20.47C20.8262 24.8782 22.5004 25.9749 24.2095 25.6187C25.4406 25.3621 26.4024 24.4002 26.659 23.1691H28C28.2761 23.1691 28.5 22.9453 28.5 22.6691V18.6631C28.5 18.3869 28.2761 18.1631 28 18.1631ZM4.75 24.6666C3.50738 24.6666 2.5 23.6593 2.5 22.4166C2.5 21.174 3.50738 20.1666 4.75 20.1666C5.99263 20.1666 7 21.174 7 22.4166C6.99862 23.6587 5.99206 24.6653 4.75 24.6666ZM9 21.6666H8C7.97069 21.6697 7.94169 21.6755 7.9135 21.6841C7.51137 19.9371 5.76912 18.8468 4.02212 19.2489C2.8175 19.5262 1.87494 20.4636 1.591 21.6666H1V17.9406C1.00081 17.2374 1.57075 16.6674 2.274 16.6666H9V21.6666ZM9 15.6666H2.71L3.085 11.1666H9V15.6666ZM9 10.1666H2V9.94063C2.00081 9.23738 2.57075 8.66744 3.274 8.66663H9V10.1666ZM25.7222 22.6466C25.6579 23.7905 24.7106 24.6846 23.565 24.6826H23.5645C22.5154 24.6803 21.6197 23.9248 21.4405 22.8911C21.5281 22.738 21.5181 22.5478 21.415 22.4046C21.4818 21.2153 22.5002 20.3052 23.6896 20.372C24.879 20.4388 25.7891 21.4572 25.7222 22.6466Z" fill="white"/>
<path d="M27.5 10.6666H20.5C20.2239 10.6666 20 10.8905 20 11.1666C20 11.4428 20.2239 11.6666 20.5 11.6666H27.5C27.7761 11.6666 28 11.4428 28 11.1666C28 10.8905 27.7761 10.6666 27.5 10.6666Z" fill="white"/>
<path d="M28.5 16.1666H17.5C17.2239 16.1666 17 16.3905 17 16.6666C17 16.9427 17.2239 17.1666 17.5 17.1666H28.5C28.7761 17.1666 29 16.9427 29 16.6666C29 16.3905 28.7761 16.1666 28.5 16.1666Z" fill="white"/>
<path d="M27.5 13.1666H22C21.7239 13.1666 21.5 13.3905 21.5 13.6666C21.5 13.9428 21.7239 14.1666 22 14.1666H27.5C27.7761 14.1666 28 13.9428 28 13.6666C28 13.3905 27.7761 13.1666 27.5 13.1666Z" fill="white"/>
<path d="M29.5 11.6666H30.5C30.7761 11.6666 31 11.4428 31 11.1666C31 10.8905 30.7761 10.6666 30.5 10.6666H29.5C29.2239 10.6666 29 10.8905 29 11.1666C29 11.4428 29.2239 11.6666 29.5 11.6666Z" fill="white"/>
<path d="M31 16.1666H30C29.7239 16.1666 29.5 16.3905 29.5 16.6666C29.5 16.9427 29.7239 17.1666 30 17.1666H31C31.2761 17.1666 31.5 16.9427 31.5 16.6666C31.5 16.3905 31.2761 16.1666 31 16.1666Z" fill="white"/>
<path d="M31.5 13.1666H29.5C29.2239 13.1666 29 13.3905 29 13.6666C29 13.9428 29.2239 14.1666 29.5 14.1666H31.5C31.7761 14.1666 32 13.9428 32 13.6666C32 13.3905 31.7761 13.1666 31.5 13.1666Z" fill="white"/>
</svg>
