<svg width="120" height="120" viewBox="0 0 120 120" fill="none" xmlns="http://www.w3.org/2000/svg">
<path d="M110.156 19.5738L90.5824 0H32.3438V72.2299C19.8138 72.9605 9.84375 83.3841 9.84375 96.0938C9.84375 109.276 20.568 120 33.75 120C42.6766 120 50.475 115.081 54.5803 107.812H110.156V19.5738ZM91.4062 4.80117L105.355 18.75H91.4062V4.80117ZM33.75 117.188C22.1189 117.188 12.6562 107.725 12.6562 96.0938C12.6562 84.4627 22.1189 75 33.75 75C45.3811 75 54.8438 84.4627 54.8438 96.0938C54.8438 107.725 45.3811 117.188 33.75 117.188ZM55.9343 105C57.0438 102.246 57.6562 99.2402 57.6562 96.0938C57.6562 83.3841 47.6862 72.9605 35.1562 72.2299V2.8125H88.5938V21.5625H107.344V105H55.9343Z" fill="#333333"/>
<path d="M45 15H67.5V17.8125H45V15Z" fill="#333333"/>
<path d="M45 22.5H60V25.3125H45V22.5Z" fill="#333333"/>
<path d="M45 33.75H97.5V36.5625H45V33.75Z" fill="#333333"/>
<path d="M45 41.25H97.5V44.0625H45V41.25Z" fill="#333333"/>
<path d="M45 56.25H97.5V59.0625H45V56.25Z" fill="#333333"/>
<path d="M45 63.75H82.5V66.5625H45V63.75Z" fill="#333333"/>
<path d="M45 48.75H97.5V51.5625H45V48.75Z" fill="#333333"/>
<path d="M78.75 75H97.5V77.8125H78.75V75Z" fill="#333333"/>
<path d="M43.3622 84.4922L33.75 94.1046L24.1378 84.4922L22.1489 86.4811L31.7613 96.0933L22.1489 105.705L24.1378 107.694L33.75 98.0819L43.3622 107.694L45.3511 105.705L35.7387 96.0933L45.3511 86.4811L43.3622 84.4922Z" fill="#333333"/>
</svg>
