<svg width="120" height="120" viewBox="0 0 120 120" fill="none" xmlns="http://www.w3.org/2000/svg">
<path d="M60 0C26.863 0 0 26.863 0 60C0 93.137 26.863 120 60 120C93.137 120 120 93.137 120 60C119.962 26.8785 93.1215 0.0375 60 0ZM60 116C29.072 116 4 90.928 4 60C4 29.072 29.072 4 60 4C90.928 4 116 29.072 116 60C115.965 90.9132 90.9132 115.965 60 116Z" fill="#333333"/>
<path d="M60 10C32.3857 10 10 32.3857 10 60C10 87.6143 32.3857 110 60 110C87.6143 110 110 87.6143 110 60C109.969 32.3985 87.6015 10.0308 60 10ZM60 106C34.595 106 14 85.405 14 60C14 34.595 34.595 14 60 14C85.405 14 106 34.595 106 60C105.971 85.3932 85.3932 105.971 60 106Z" fill="#333333"/>
<path d="M58 22C58 23.1046 58.8954 24 60 24C61.1046 24 62 23.1046 62 22C62 20.8954 61.1046 20 60 20C58.8954 20 58 20.8954 58 22Z" fill="#333333"/>
<path d="M58 98C58 99.1046 58.8954 100 60 100C61.1046 100 62 99.1046 62 98C62 96.8954 61.1046 96 60 96C58.8954 96 58 96.8954 58 98Z" fill="#333333"/>
<path d="M39.2648 28.0942C39.817 29.0502 41.0395 29.3776 41.9955 28.8254C42.9514 28.2733 43.2788 27.0508 42.7267 26.0948C42.1746 25.1388 40.952 24.8115 39.9961 25.3636C39.0401 25.9157 38.7127 27.1382 39.2648 28.0942Z" fill="#333333"/>
<path d="M77.256 93.8989C77.8082 94.8549 79.0307 95.1823 79.9867 94.6301C80.9426 94.078 81.27 92.8555 80.7179 91.8995C80.1658 90.9435 78.9432 90.6162 77.9873 91.1683C77.0313 91.7204 76.7039 92.9429 77.256 93.8989Z" fill="#333333"/>
<path d="M26.0894 42.7344C27.046 43.2867 28.2691 42.9589 28.8214 42.0024C29.3737 41.0458 29.046 39.8227 28.0894 39.2704C27.1329 38.7181 25.9097 39.0458 25.3574 40.0024C24.8051 40.9589 25.1329 42.1821 26.0894 42.7344Z" fill="#333333"/>
<path d="M91.9 80.7422C92.8565 81.2945 94.0797 80.9667 94.632 80.0102C95.1842 79.0536 94.8565 77.8305 93.9 77.2782C92.9434 76.7259 91.7203 77.0536 91.168 78.0102C90.6157 78.9667 90.9434 80.1899 91.9 80.7422Z" fill="#333333"/>
<path d="M20 60C20 61.1046 20.8954 62 22 62C23.1046 62 24 61.1046 24 60C24 58.8954 23.1046 58 22 58C20.8954 58 20 58.8954 20 60Z" fill="#333333"/>
<path d="M96 60C96 61.1046 96.8954 62 98 62C99.1046 62 100 61.1046 100 60C100 58.8954 99.1046 58 98 58C96.8954 58 96 58.8954 96 60Z" fill="#333333"/>
<path d="M25.3582 80.0017C25.9104 80.9584 27.1335 81.2863 28.0902 80.7341C29.0469 80.182 29.3748 78.9588 28.8226 78.0021C28.2704 77.0455 27.0473 76.7176 26.0906 77.2697C25.1339 77.8219 24.806 79.0451 25.3582 80.0017Z" fill="#333333"/>
<path d="M91.168 42.0015C91.7203 42.9581 92.9434 43.2858 93.9 42.7335C94.8565 42.1812 95.1843 40.9581 94.632 40.0015C94.0797 39.045 92.8565 38.7172 91.9 39.2695C90.9434 39.8218 90.6157 41.045 91.168 42.0015Z" fill="#333333"/>
<path d="M39.9858 94.6364C40.9418 95.1885 42.1643 94.8612 42.7165 93.9052C43.2686 92.9492 42.9412 91.7267 41.9852 91.1745C41.0292 90.6224 39.8067 90.9498 39.2546 91.9058C38.7025 92.8617 39.0298 94.0843 39.9858 94.6364Z" fill="#333333"/>
<path d="M77.9966 28.8239C78.9525 29.376 80.1751 29.0486 80.7272 28.0927C81.2793 27.1367 80.9519 25.9142 79.9959 25.3621C79.04 24.8099 77.8174 25.1373 77.2653 26.0933C76.7132 27.0493 77.0406 28.2718 77.9966 28.8239Z" fill="#333333"/>
<path d="M60.0002 28C58.8956 28 58.0002 28.8954 58.0002 30V57.7356C58.0002 58.4381 57.6316 59.0892 57.0292 59.4506L40.6861 69.2565C39.7386 69.825 39.4318 71.0541 40.0009 72.0012V72.0012C40.5695 72.9473 41.7972 73.2538 42.7437 72.6859L61.0302 61.714C61.632 61.3525 62.0002 60.702 62.0002 60V30C62.0002 28.8954 61.1048 28 60.0002 28V28Z" fill="#333333"/>
</svg>
