<svg width="120" height="120" viewBox="0 0 120 120" fill="none" xmlns="http://www.w3.org/2000/svg">
<path d="M97.0174 34.7635C98.3077 34.7635 99.3544 33.7173 99.3544 32.4265V7.01115C99.3544 3.1452 96.2093 0 92.3433 0H7.27481C3.40887 0 0.263672 3.1452 0.263672 7.01115V112.646C0.263672 116.512 3.40887 119.657 7.27481 119.657H92.3433C96.2093 119.657 99.3544 116.512 99.3544 112.646V95.4283C99.3544 94.1375 98.3077 93.0913 97.0174 93.0913C95.727 93.0913 94.6803 94.1375 94.6803 95.4283V112.646C94.6803 113.934 93.6318 114.983 92.3433 114.983H7.27481C5.98615 114.983 4.93777 113.934 4.93777 112.646V7.01115C4.93777 5.72249 5.98615 4.67411 7.27481 4.67411H92.3433C93.6318 4.67411 94.6803 5.72249 94.6803 7.01115V32.4265C94.6803 33.7173 95.727 34.7635 97.0174 34.7635Z" fill="#333333"/>
<path d="M49.8076 12.6211C37.9519 12.6211 28.3066 22.2663 28.3066 34.1219C28.3066 40.2723 30.9031 45.8268 35.0565 49.7494C35.1343 49.8329 35.217 49.9113 35.3075 49.983C39.1335 53.484 44.2252 55.6225 49.8071 55.6225C55.3892 55.6225 60.4812 53.4835 64.307 49.983C64.3974 49.9113 64.48 49.8324 64.558 49.7494C68.7119 45.8268 71.3081 40.2723 71.3081 34.1219C71.3081 22.2663 61.6629 12.6211 49.8076 12.6211ZM49.8076 50.9485C45.9913 50.9485 42.4694 49.67 39.6434 47.5205C41.6974 43.8784 45.5304 41.6005 49.8076 41.6005C54.0847 41.6005 57.9174 43.8784 59.9715 47.5205C57.1454 49.67 53.6234 50.9485 49.8076 50.9485ZM46.068 33.1871V31.668C46.068 29.6063 47.7457 27.9287 49.8076 27.9287C51.869 27.9287 53.5467 29.6063 53.5467 31.668V33.1871C53.5467 35.2488 51.869 36.9263 49.8076 36.9263C47.7457 36.9263 46.068 35.2488 46.068 33.1871ZM63.3484 44.0971C61.6246 41.5409 59.236 39.5527 56.4628 38.3253C57.5633 36.9028 58.2208 35.1208 58.2208 33.1871V31.668C58.2208 27.0287 54.4465 23.2546 49.8076 23.2546C45.1682 23.2546 41.3941 27.0287 41.3941 31.668V33.1871C41.3941 35.1208 42.0515 36.9028 43.1522 38.3253C40.3789 39.5527 37.9902 41.5409 36.2666 44.0971C34.2032 41.3037 32.9807 37.8534 32.9807 34.1219C32.9807 24.8436 40.5291 17.2952 49.8076 17.2952C59.0859 17.2952 66.634 24.8436 66.634 34.1219C66.634 37.8534 65.4117 41.3037 63.3484 44.0971Z" fill="#333333"/>
<path d="M62.4273 102.363H49.8073C48.5169 102.363 47.4702 103.41 47.4702 104.7C47.4702 105.991 48.5169 107.037 49.8073 107.037H62.4273C63.7177 107.037 64.7644 105.991 64.7644 104.7C64.7644 103.41 63.7177 102.363 62.4273 102.363Z" fill="#333333"/>
<path d="M62.4271 89.2734H29.2409C27.9504 89.2734 26.9038 90.3197 26.9038 91.6105C26.9038 92.9013 27.9504 93.9475 29.2409 93.9475H62.4271C63.7174 93.9475 64.7641 92.9013 64.7641 91.6105C64.7641 90.3197 63.7174 89.2734 62.4271 89.2734Z" fill="#333333"/>
<path d="M62.4271 76.1875H29.2409C27.9504 76.1875 26.9038 77.2337 26.9038 78.5245C26.9038 79.8149 27.9504 80.8616 29.2409 80.8616H62.4271C63.7174 80.8616 64.7641 79.8149 64.7641 78.5245C64.7641 77.2337 63.7174 76.1875 62.4271 76.1875Z" fill="#333333"/>
<path d="M20.9128 63.7825C20.4784 63.3477 19.8754 63.0977 19.2585 63.0977C18.6436 63.0977 18.0406 63.3477 17.6062 63.7825C17.1715 64.2169 16.9214 64.8201 16.9214 65.4347C16.9214 66.0493 17.1712 66.6525 17.6062 67.0869C18.0432 67.5217 18.6436 67.7717 19.2585 67.7717C19.8754 67.7717 20.476 67.5217 20.9128 67.0869C21.3475 66.6525 21.5978 66.0493 21.5978 65.4347C21.5978 64.8201 21.3477 64.2169 20.9128 63.7825Z" fill="#333333"/>
<path d="M20.9128 76.8719C20.476 76.4375 19.8754 76.1875 19.2585 76.1875C18.6436 76.1875 18.0432 76.4375 17.6062 76.8719C17.1715 77.3067 16.9214 77.9099 16.9214 78.5245C16.9214 79.1391 17.1712 79.7419 17.6062 80.1767C18.0432 80.6115 18.6436 80.8616 19.2585 80.8616C19.8754 80.8616 20.476 80.6115 20.9128 80.1767C21.3475 79.7419 21.5978 79.1391 21.5978 78.5245C21.5978 77.9099 21.3477 77.3067 20.9128 76.8719Z" fill="#333333"/>
<path d="M20.9128 89.9583C20.476 89.5235 19.8754 89.2734 19.2585 89.2734C18.6436 89.2734 18.0432 89.5235 17.6062 89.9583C17.1715 90.3931 16.9214 90.9959 16.9214 91.6105C16.9214 92.2251 17.1712 92.8283 17.6062 93.2626C18.0406 93.6975 18.6436 93.9475 19.2585 93.9475C19.8754 93.9475 20.4784 93.6975 20.9128 93.2626C21.3475 92.8283 21.5978 92.2251 21.5978 91.6105C21.5978 90.9959 21.3477 90.3931 20.9128 89.9583Z" fill="#333333"/>
<path d="M62.4271 63.0977H29.2409C27.9504 63.0977 26.9038 64.1439 26.9038 65.4347C26.9038 66.7255 27.9504 67.7717 29.2409 67.7717H62.4271C63.7174 67.7717 64.7641 66.7255 64.7641 65.4347C64.7641 64.1439 63.7174 63.0977 62.4271 63.0977Z" fill="#333333"/>
<path d="M115.01 30.456C112.739 29.1451 110.094 28.7969 107.561 29.4753C105.029 30.154 102.912 31.7782 101.601 34.0487L72.1911 84.9876C72.0305 85.2668 71.9283 85.5767 71.8927 85.897L69.8226 104.44C69.7195 105.363 70.1726 106.259 70.9765 106.724C71.3393 106.933 71.7426 107.037 72.1446 107.037C72.6337 107.037 73.1206 106.883 73.5307 106.581L88.5545 95.5166C88.8141 95.3254 89.0313 95.0827 89.1923 94.8034L118.602 43.8645C121.309 39.1773 119.697 33.1623 115.01 30.456ZM75.0602 99.65L76.1415 89.9669L82.9053 93.8722L75.0602 99.65ZM86.3133 90.4424L77.4077 85.3006L101.008 44.4235L109.914 49.5653L86.3133 90.4424ZM114.554 41.5272L112.251 45.5173L103.345 40.3758L105.649 36.3857C106.335 35.1964 107.444 34.3457 108.771 33.9903C110.098 33.6345 111.483 33.8173 112.672 34.5039C113.862 35.1906 114.712 36.2993 115.068 37.6258C115.423 38.9523 115.241 40.3379 114.554 41.5272Z" fill="#333333"/>
</svg>
