<svg width="120" height="120" viewBox="0 0 120 120" fill="none" xmlns="http://www.w3.org/2000/svg">
<g clip-path="url(#clip0)">
<path d="M97.3217 4.14687H93.0453V1.94384C93.0453 0.870065 92.1752 0 91.1014 0C90.0277 0 89.1576 0.870065 89.1576 1.94384V4.14687H80.6047V1.94384C80.6047 0.870065 79.7346 0 78.6608 0C77.5871 0 76.717 0.870065 76.717 1.94384V4.14687H68.1641V1.94384C68.1641 0.870065 67.294 0 66.2202 0C65.1465 0 64.2764 0.870065 64.2764 1.94384V4.14687H55.7235V1.94384C55.7235 0.870065 54.8534 0 53.7796 0C52.7058 0 51.8358 0.870065 51.8358 1.94384V4.14687H43.2829V1.94384C43.2829 0.870065 42.4128 0 41.339 0C40.2652 0 39.3952 0.870065 39.3952 1.94384V4.14687H30.8423V1.94384C30.8423 0.870065 29.9722 0 28.8984 0C27.8246 0 26.9546 0.870065 26.9546 1.94384V4.14687H22.6781C19.3197 4.14687 16.5874 6.87914 16.5874 10.2376V113.909C16.5874 117.268 19.3197 120 22.6781 120H97.3217C100.68 120 103.412 117.268 103.412 113.909V10.2376C103.412 6.87914 100.68 4.14687 97.3217 4.14687ZM99.5248 113.909C99.5248 115.124 98.5365 116.112 97.3217 116.112H22.6781C21.4633 116.112 20.4751 115.124 20.4751 113.909V10.2376C20.4751 9.02281 21.4633 8.03456 22.6781 8.03456H26.9546V10.2376C26.9546 11.3114 27.8246 12.1814 28.8984 12.1814C29.9722 12.1814 30.8423 11.3114 30.8423 10.2376V8.03456H39.3952V10.2376C39.3952 11.3114 40.2652 12.1814 41.339 12.1814C42.4128 12.1814 43.2829 11.3114 43.2829 10.2376V8.03456H51.8358V10.2376C51.8358 11.3114 52.7058 12.1814 53.7796 12.1814C54.8534 12.1814 55.7235 11.3114 55.7235 10.2376V8.03456H64.2764V10.2376C64.2764 11.3114 65.1465 12.1814 66.2202 12.1814C67.294 12.1814 68.1641 11.3114 68.1641 10.2376V8.03456H76.717V10.2376C76.717 11.3114 77.5871 12.1814 78.6608 12.1814C79.7346 12.1814 80.6047 11.3114 80.6047 10.2376V8.03456H89.1576V10.2376C89.1576 11.3114 90.0277 12.1814 91.1014 12.1814C92.1752 12.1814 93.0453 11.3114 93.0453 10.2376V8.03456H97.3217C98.5365 8.03456 99.5248 9.02281 99.5248 10.2376V113.909Z" fill="#333333"/>
<path d="M53.7798 30.8408H82.8078C83.8816 30.8408 84.7517 29.9707 84.7517 28.897C84.7517 27.8232 83.8816 26.9531 82.8078 26.9531H53.7798C52.706 26.9531 51.8359 27.8232 51.8359 28.897C51.8359 29.9707 52.706 30.8408 53.7798 30.8408Z" fill="#333333"/>
<path d="M91.1016 35.2461H53.7798C52.706 35.2461 51.8359 36.1162 51.8359 37.1899C51.8359 38.2637 52.706 39.1338 53.7798 39.1338H91.1016C92.1754 39.1338 93.0454 38.2637 93.0454 37.1899C93.0454 36.1162 92.1754 35.2461 91.1016 35.2461Z" fill="#333333"/>
<path d="M44.1112 25.4517L35.1187 34.4447L30.2731 29.5989C29.5137 28.84 28.2831 28.84 27.5239 29.5989C26.7648 30.3583 26.7648 31.5889 27.5239 32.348L33.7442 38.5683C34.1239 38.9477 34.6216 39.1374 35.1189 39.1374C35.6163 39.1374 36.1139 38.9477 36.4936 38.5683L46.8608 28.2011C47.6199 27.4417 47.6199 26.2111 46.8608 25.452C46.1011 24.6931 44.8706 24.6931 44.1112 25.4517Z" fill="#333333"/>
<path d="M53.7798 51.5752H82.8078C83.8816 51.5752 84.7517 50.7051 84.7517 49.6313C84.7517 48.5576 83.8816 47.6875 82.8078 47.6875H53.7798C52.706 47.6875 51.8359 48.5576 51.8359 49.6313C51.8359 50.7051 52.706 51.5752 53.7798 51.5752Z" fill="#333333"/>
<path d="M91.1016 55.9844H53.7798C52.706 55.9844 51.8359 56.8544 51.8359 57.9282C51.8359 59.002 52.706 59.8721 53.7798 59.8721H91.1016C92.1754 59.8721 93.0454 59.002 93.0454 57.9282C93.0454 56.8544 92.1754 55.9844 91.1016 55.9844Z" fill="#333333"/>
<path d="M44.1112 46.1822L35.1187 55.1752L30.2731 50.3293C29.5137 49.5705 28.2831 49.5705 27.5239 50.3293C26.7648 51.0887 26.7648 52.3193 27.5239 53.0785L33.7442 59.2988C34.1239 59.6782 34.6216 59.8679 35.1189 59.8679C35.6163 59.8679 36.1139 59.6782 36.4936 59.2988L46.8608 48.9316C47.6199 48.1722 47.6199 46.9416 46.8608 46.1825C46.1011 45.4236 44.8706 45.4236 44.1112 46.1822Z" fill="#333333"/>
<path d="M53.7798 72.3096H82.8078C83.8816 72.3096 84.7517 71.4395 84.7517 70.3657C84.7517 69.2919 83.8816 68.4219 82.8078 68.4219H53.7798C52.706 68.4219 51.8359 69.2919 51.8359 70.3657C51.8359 71.4395 52.706 72.3096 53.7798 72.3096Z" fill="#333333"/>
<path d="M91.1016 76.7188H53.7798C52.706 76.7188 51.8359 77.5888 51.8359 78.6626C51.8359 79.7364 52.706 80.6064 53.7798 80.6064H91.1016C92.1754 80.6064 93.0454 79.7364 93.0454 78.6626C93.0454 77.5888 92.1754 76.7188 91.1016 76.7188Z" fill="#333333"/>
<path d="M44.1112 66.9205L35.1187 75.9135L30.2731 71.0676C29.5137 70.3087 28.2831 70.3087 27.5239 71.0676C26.7648 71.827 26.7648 73.0576 27.5239 73.8167L33.7442 80.037C34.1239 80.4165 34.6216 80.6062 35.1189 80.6062C35.6163 80.6062 36.1139 80.4165 36.4936 80.037L46.8608 69.6699C47.6199 68.9105 47.6199 67.6799 46.8608 66.9207C46.1011 66.1619 44.8706 66.1619 44.1112 66.9205Z" fill="#333333"/>
<path d="M53.7798 93.0439H82.8078C83.8816 93.0439 84.7517 92.1739 84.7517 91.1001C84.7517 90.0263 83.8816 89.1562 82.8078 89.1562H53.7798C52.706 89.1562 51.8359 90.0263 51.8359 91.1001C51.8359 92.1739 52.706 93.0439 53.7798 93.0439Z" fill="#333333"/>
<path d="M91.1016 97.4531H53.7798C52.706 97.4531 51.8359 98.3232 51.8359 99.397C51.8359 100.471 52.706 101.341 53.7798 101.341H91.1016C92.1754 101.341 93.0454 100.471 93.0454 99.397C93.0454 98.3232 92.1754 97.4531 91.1016 97.4531Z" fill="#333333"/>
<path d="M44.1112 87.6549L35.1187 96.6479L30.2731 91.802C29.5137 91.0431 28.2831 91.0431 27.5239 91.802C26.7648 92.5614 26.7648 93.792 27.5239 94.5511L33.7442 100.771C34.1239 101.151 34.6216 101.341 35.1189 101.341C35.6163 101.341 36.1139 101.151 36.4936 100.771L46.8608 90.4042C47.6199 89.6448 47.6199 88.4143 46.8608 87.6551C46.1011 86.8962 44.8706 86.8963 44.1112 87.6549Z" fill="#333333"/>
</g>
<defs>
<clipPath id="clip0">
<rect width="120" height="120" fill="white"/>
</clipPath>
</defs>
</svg>
