<svg width="120" height="120" viewBox="0 0 120 120" fill="none" xmlns="http://www.w3.org/2000/svg">
<path d="M108 23.85V16C108 11.5818 104.418 8.00004 100 8.00004H86.61C84.3059 3.11599 79.3903 0 73.9901 0C68.5896 0 63.6743 3.11599 61.3699 8.00004H48.6101C46.3057 3.11599 41.3904 0 35.9899 0C30.5897 0 25.6741 3.11599 23.37 8.00004H7.99999C3.58172 8.00004 0 11.5818 0 16V112C0 116.418 3.58172 120 7.99999 120H100C103.637 119.986 106.807 117.521 107.716 114H113.786C115.584 114.004 117.295 113.227 118.476 111.871C119.656 110.514 120.19 108.712 119.938 106.932L108 23.85ZM73.9999 4.00003C77.1471 4.00193 80.1103 5.48346 82.0001 8.00004H66.052C67.9247 5.49089 70.8689 4.00915 73.9999 4.00003ZM73.9999 28.0001C75.1045 28.0001 76.0001 27.1045 76.0001 25.9999C76.0001 24.8955 75.1045 24 73.9999 24C70.8689 23.9909 67.9247 22.5092 66.052 20H94.0001C95.1047 20 96 20.8955 96 22V31.9999H12V22C12 20.8955 12.8954 20 14 20H23.37C25.6845 24.8796 30.5993 27.9926 36 28.0001C37.1046 28.0001 37.9999 27.1045 37.9999 25.9999C37.9999 24.8955 37.1046 24 36 24C32.869 23.9909 29.9248 22.5092 28.0521 20H61.3699C63.6846 24.8796 68.5995 27.9926 73.9999 28.0001ZM96 94.0001H88.0001C84.6863 94.0001 82.0001 96.6862 82.0001 100V108H14C12.8954 108 12 107.105 12 106V36H96V94.0001ZM93.172 97.9999L85.9999 105.172V100C85.9999 98.8955 86.8955 97.9999 88.0001 97.9999H93.172ZM26.2001 16C25.9305 14.6803 25.9305 13.3198 26.2001 12H60.1601C60.0591 12.662 60.0056 13.3304 60 14C60.0056 14.6697 60.0591 15.338 60.1601 16H26.2001ZM36 4.00003C39.1472 4.00193 42.1102 5.48346 43.9999 8.00004H28.0521C29.9248 5.49089 32.869 4.00915 36 4.00003ZM104 112C104 114.209 102.209 116 100 116H7.99999C5.79087 116 4.00001 114.209 4.00001 112V16C4.00001 13.7909 5.79087 12 7.99999 12H22.16C22.0591 12.662 22.0056 13.3304 22 14C22.0056 14.6697 22.0591 15.338 22.16 16H14C10.6863 16 7.99999 18.6863 7.99999 22V106C7.99999 109.314 10.6863 112 14 112H82.3439C83.9363 112.005 85.4639 111.371 86.5861 110.242L98.242 98.5861C99.3715 97.4639 100.005 95.9363 100 94.3441V22C100 18.6863 97.3137 16 94.0001 16H64.2C63.9307 14.6803 63.9307 13.3198 64.2 12H100C102.209 12 104 13.7909 104 16V112ZM115.466 109.234C115.046 109.725 114.431 110.005 113.786 110L108 110V51.9881L115.976 107.502C116.07 108.126 115.883 108.76 115.466 109.234Z" fill="#333333"/>
<path d="M38 88.0001C44.6246 87.9935 49.9934 82.6247 50 76.0001V60C50 53.3726 44.6274 48 38 48C31.3726 48 26 53.3726 26 60V76.0001C26.0066 82.6247 31.3754 87.9935 38 88.0001ZM30.0001 60C30.0001 55.5818 33.5818 52.0001 38 52.0001C42.4182 52.0001 45.9999 55.5818 45.9999 60V76.0001C45.9999 80.4183 42.4182 84 38 84C33.5818 84 30.0001 80.4183 30.0001 76.0001V60Z" fill="#333333"/>
<path d="M59.9999 83.9997C58.8953 83.9997 58 84.895 58 85.9996C58 87.1042 58.8953 87.9997 59.9999 87.9997H76C77.1046 87.9997 77.9999 87.1042 77.9999 85.9996C77.9999 84.895 77.1046 83.9997 76 83.9997H70V49.9996C69.9998 49.1908 69.5125 48.4618 68.7653 48.1522C68.0181 47.8429 67.158 48.0137 66.5859 48.5856L58.5859 56.5858C57.828 57.3704 57.8388 58.6178 58.6103 59.3893C59.3819 60.1607 60.6292 60.1717 61.4139 59.4137L65.9999 54.8277V83.9997H59.9999Z" fill="#333333"/>
<path d="M76 94H29.9999C28.8953 94 28 94.8953 28 95.9999C28 97.1045 28.8953 97.9998 29.9999 97.9998H76C77.1046 97.9998 77.9999 97.1045 77.9999 95.9999C77.9999 94.8953 77.1046 94 76 94Z" fill="#333333"/>
</svg>
