<svg width="120" height="120" viewBox="0 0 120 120" fill="none" xmlns="http://www.w3.org/2000/svg">
<path d="M114 0H5.99999C2.72725 0 0 2.72725 0 5.99999V89.0909C0 92.3636 2.72725 95.0909 5.99999 95.0909H46.1818L41.091 105.636H38.9092C32.0001 105.636 26.3638 111.273 26.3638 118.182C26.3638 119.273 27.0911 120 28.1819 120H91.8181C92.9091 120 93.6362 119.273 93.6362 118.182C93.6362 118 93.6362 118 93.6362 117.818C93.4544 111.091 87.8181 105.636 81.0908 105.636H78.909L73.8182 95.0909H114C117.273 95.0909 120 92.3636 120 89.0909V5.99999C120 2.72725 117.273 0 114 0ZM81.2728 109.273C85.4547 109.273 89.0909 112.364 89.8182 116.364H30.1818C31.0909 112.364 34.5455 109.273 38.909 109.273C55.0909 109.273 66.0001 109.273 81.2728 109.273ZM74.9092 105.636H45.0908L50.1817 95.0909H69.6363L74.9092 105.636ZM116.364 89.0909C116.364 90.5456 115.273 91.4545 114 91.4545C113.818 91.4545 6.90915 91.4545 5.99999 91.4545C4.72716 91.4545 3.63641 90.5453 3.63641 89.0909V75.8181H116.364V89.0909V89.0909ZM116.364 72.3638H3.63641V5.99999C3.63641 4.72716 4.7274 3.63641 5.99999 3.63641H114C115.273 3.63641 116.364 4.7274 116.364 5.99999V72.3638Z" fill="#333333"/>
<path d="M60 89.4531C63.2727 89.4531 66 86.7259 66 83.4531C66 80.1804 63.2727 77.4531 60 77.4531C56.7272 77.4531 54 80.1804 54 83.4531C54 86.7259 56.7272 89.4531 60 89.4531ZM60 81.0895C61.2728 81.0895 62.3636 82.1805 62.3636 83.4531C62.3636 84.7259 61.2726 85.8167 60 85.8167C58.7274 85.8167 57.6364 84.7257 57.6364 83.4531C57.6362 82.1803 58.7272 81.0895 60 81.0895Z" fill="#333333"/>
<path d="M88.727 46.1835C89.4543 46.3654 90.1814 46.0017 90.545 45.4562L94.3633 39.6381L102.181 47.4561C102.545 47.8198 103.091 48.0016 103.454 48.0016C103.818 48.0016 104.363 47.8198 104.727 47.4561L111.091 41.0925C111.454 40.7288 111.636 40.3652 111.636 39.8197C111.636 39.2742 111.454 38.9105 111.091 38.5468L103.273 30.7288L109.091 26.9105C109.636 26.5469 110 25.8195 109.818 25.0924C109.636 24.3653 109.273 23.8196 108.545 23.6378L81.9996 16.0018C81.4541 15.8199 80.7268 16.0018 80.1816 16.5473C79.6361 17.0928 79.4542 17.6383 79.6361 18.3654L87.2725 44.9107C87.4544 45.6381 87.9999 46.1835 88.727 46.1835ZM103.818 26.0018L99.4541 28.9109C98.9086 29.2746 98.7268 29.6382 98.7268 30.1837C98.7268 30.7292 98.9086 31.2747 99.2723 31.6384L107.454 39.8201L103.636 43.6384L95.454 35.4566C95.0904 35.093 94.7267 34.9111 94.1812 34.9111H93.9994C93.4539 34.9111 92.9084 35.2748 92.7265 35.6385L89.8175 40.0022L84.1811 20.3658L103.818 26.0018Z" fill="#333333"/>
<path d="M113.091 54H83.4548C82.5456 54 81.6367 54.9092 81.6367 55.8181C81.6367 56.9091 82.364 57.6362 83.4548 57.6362H113.091C114.182 57.6362 114.909 56.9088 114.909 55.8181C114.909 54.7273 114.182 54 113.091 54Z" fill="#333333"/>
<path d="M113.273 64.1797H83.4548C82.3638 64.1797 81.6367 64.907 81.6367 65.9978C81.6367 67.0885 82.364 67.8159 83.4548 67.8159H113.091C114.182 67.8159 114.909 67.0885 114.909 65.9978C114.909 64.907 114.182 64.1797 113.273 64.1797Z" fill="#333333"/>
<path d="M73.2729 13.2734C59.4546 13.2734 25.273 13.2734 11.091 13.2734C10 13.2734 9.27295 14.0008 9.27295 15.0915V48.546C9.27295 49.637 10.1821 50.3641 11.091 50.3641C34.9092 50.3641 49.4548 50.3641 73.2729 50.3641C74.3639 50.3641 75.091 49.6368 75.091 48.546C75.091 44.7278 75.091 18.9098 75.091 15.0915C75.0912 14.0005 74.3639 13.2734 73.2729 13.2734ZM12.9094 16.9098H18.182C17.4547 19.4553 15.4548 21.637 12.9094 22.1825V16.9098ZM12.9094 46.728V41.4553C15.4548 42.1826 17.6365 44.1825 18.182 46.728H12.9094ZM71.273 46.728H66.0003C66.7277 44.0007 68.7276 42.0008 71.273 41.2735V46.728ZM71.4548 37.6371C66.7277 38.3644 63.0913 42.1826 62.3639 46.728H22.0003C21.2729 42.0008 17.6365 38.3644 12.9094 37.6371V26.0007C17.6365 25.2734 21.2729 21.637 22.0003 16.9098H62.3639C63.0913 21.637 66.7277 25.2734 71.4548 26.0007V37.6371ZM71.4548 22.3643C68.9094 21.637 66.7277 19.6371 66.1822 17.0917H71.4548V22.3643Z" fill="#333333"/>
<path d="M42.1815 17.6367C34.5451 17.6367 28.1816 24.0004 28.1816 31.8184C28.1816 39.6365 34.3635 46.0002 42.1815 46.0002C49.9996 46.0002 56.1814 39.6365 56.1814 31.8184C56.1814 24.0004 49.818 17.6367 42.1815 17.6367ZM42.1815 42.5458C36.5452 42.5458 31.8178 37.8187 31.8178 32.0003C31.8178 26.1819 36.3634 21.4547 42.1815 21.4547C47.9997 21.4547 52.5453 26.1819 52.5453 32.0003C52.5453 37.8187 47.8181 42.5458 42.1815 42.5458Z" fill="#333333"/>
<path d="M43.2726 30.364V26.5458C44.3636 26.7276 45.2725 27.0913 46.1817 27.6368L47.4545 25.8187C46.1817 24.9095 44.7272 24.364 43.2726 24.364V23.6367H41.9998V24.5459C40.7269 24.5459 39.6362 25.0914 38.9088 25.8187C38.1815 26.546 37.636 27.455 37.636 28.7278C37.636 29.8188 37.9997 30.7277 38.727 31.2732C39.4543 31.8187 40.5451 32.3642 41.9998 32.7279V36.5461C40.5451 36.3643 39.4543 35.8188 38.3634 34.728L36.9087 36.5461C38.3634 37.8189 39.9996 38.546 41.8177 38.7278V40.1825H43.0905V38.7278C44.3633 38.7278 45.4541 38.1824 46.3633 37.455C47.2724 36.7277 47.6361 35.8188 47.6361 34.5459C47.6361 33.4549 47.2724 32.546 46.5451 31.8187C45.818 31.2732 44.7272 30.7277 43.2726 30.364ZM41.8179 30.1822C40.9088 30.0004 40.5451 29.6367 40.1817 29.4549C39.9998 29.273 39.818 28.9094 39.818 28.3639C39.818 28.0002 39.9998 27.6365 40.3635 27.2729C40.7272 26.9092 41.0908 26.7274 41.8179 26.7274V30.1822V30.1822ZM44.3636 35.8185C43.9999 36.1822 43.4544 36.364 42.9092 36.364V32.9094C43.6365 33.0913 44.182 33.4549 44.5454 33.6368C44.9091 33.8186 44.9091 34.3641 44.9091 34.7278C44.9088 35.2733 44.7272 35.6367 44.3636 35.8185Z" fill="#333333"/>
<path d="M73.2729 58.9102H11.091C10 58.9102 9.27295 59.6375 9.27295 60.7282C9.27295 61.819 10.0003 62.5463 11.091 62.5463H73.2729C74.3639 62.5463 75.091 61.819 75.091 60.7282C75.091 59.6375 74.1821 58.9102 73.2729 58.9102Z" fill="#333333"/>
</svg>
